<svg id="bd411482-1dda-45f4-b854-91025f9c2056" data-name="圖層 1" xmlns="http://www.w3.org/2000/svg" viewBox="0 0 324.69 207.87"><defs><style>.b0f97119-7103-4aee-b391-cdafac3a65f0,.b1814e9f-8bb2-46a1-9303-3b1f82809e51,.ecaddedd-3456-43f4-a8ef-3653bff5bce0,.ff0fc8ed-1b62-4b1b-af2d-2a5ba5f9db0b{fill:none;}.a1dc02ff-7083-4a5b-8fab-5845197f95d1,.a350c0c3-35fa-4355-83dd-36501894fcb7,.a9514e75-5c5b-4eda-96dc-b44e46ddc0fd,.b0f97119-7103-4aee-b391-cdafac3a65f0,.b1814e9f-8bb2-46a1-9303-3b1f82809e51,.bd9bcffa-20bd-4545-8706-40e593c252b5,.ecaddedd-3456-43f4-a8ef-3653bff5bce0,.f1216fc7-8b4b-4b9b-b9f2-44e57e71f5f6,.f7e6e008-67ad-4de0-b27b-64fb8075fb0d,.ff0fc8ed-1b62-4b1b-af2d-2a5ba5f9db0b{stroke:#80cce3;stroke-linecap:round;stroke-linejoin:round;}.a350c0c3-35fa-4355-83dd-36501894fcb7,.a9514e75-5c5b-4eda-96dc-b44e46ddc0fd,.b0f97119-7103-4aee-b391-cdafac3a65f0{stroke-width:2.43px;}.f7e6e008-67ad-4de0-b27b-64fb8075fb0d,.ff0fc8ed-1b62-4b1b-af2d-2a5ba5f9db0b{stroke-width:2.43px;}.b1814e9f-8bb2-46a1-9303-3b1f82809e51,.bd9bcffa-20bd-4545-8706-40e593c252b5,.f1216fc7-8b4b-4b9b-b9f2-44e57e71f5f6{stroke-width:2.47px;}.a1dc02ff-7083-4a5b-8fab-5845197f95d1,.ecaddedd-3456-43f4-a8ef-3653bff5bce0{stroke-width:2.44px;}.a1dc02ff-7083-4a5b-8fab-5845197f95d1,.a350c0c3-35fa-4355-83dd-36501894fcb7,.bd9bcffa-20bd-4545-8706-40e593c252b5{fill:#fff;}.a8d769f3-45df-4984-952c-153700ab9810,.a9514e75-5c5b-4eda-96dc-b44e46ddc0fd,.f1216fc7-8b4b-4b9b-b9f2-44e57e71f5f6,.f7e6e008-67ad-4de0-b27b-64fb8075fb0d,.f7f28584-c112-41db-a8eb-9ec87faf92aa,.fa231da4-b94e-464e-bfd8-87ef4e7d8dd4{fill:#80cce3;}.f7f28584-c112-41db-a8eb-9ec87faf92aa{font-size:18.08px;font-family:GenJyuuGothic-Bold, Gen Jyuu Gothic;font-weight:700;}.f9500284-bf5d-4442-bea9-0b7d587c33bd{letter-spacing:0em;}.bc6996f2-ae5b-4244-8f8d-1032c83be8f3{letter-spacing:0em;}.b233bc82-6e91-4a04-91ff-493cdc74d404{letter-spacing:-0.01em;}.a8d769f3-45df-4984-952c-153700ab9810,.fa231da4-b94e-464e-bfd8-87ef4e7d8dd4{font-size:12.33px;font-family:NotoSansHant-Medium-B5pc-H, Noto Sans T Chinese;}.b27e3582-4a8e-4264-8487-2932a0652f16,.fa231da4-b94e-464e-bfd8-87ef4e7d8dd4{letter-spacing:-0.01em;}.b46f3364-ecbc-47e1-9d3b-92adf2595f3d{letter-spacing:0em;}.b4732666-9f8b-493d-b69d-8427fcfec44a{letter-spacing:-0.02em;}.b386d584-4a0a-47ab-8bb1-588b270df2f0{letter-spacing:-0.02em;}.b3ba12df-bad5-4b53-85ce-d87d9861e461{letter-spacing:0.02em;}.fc870616-a3d0-48fd-b0c2-6b45d7c9f8e0{letter-spacing:-0.05em;}.fff32c0a-1d3f-42c4-a6e7-b9c2d48cda53{letter-spacing:0em;}.a3fb3839-424c-44ca-95f7-e328853b2a4f{letter-spacing:-0.01em;}.a01426a4-02a7-4a8d-b54b-f514b2baf5c9{letter-spacing:-0.02em;}.b63c3440-e6c4-4c3a-aeaf-51cddb625ca1{letter-spacing:-0.01em;}.a6ffcee2-9a7e-4a57-8dfb-0953dd14f58c{letter-spacing:0em;}.f280d359-4a8c-407b-8f9d-6ba2c5c250ee{letter-spacing:-0.02em;}.bb10e7c1-d215-41b8-ad17-08cd0c2fcf2d{letter-spacing:-0.02em;}.b48a321f-899c-40f4-bc07-dab8a697cf84{letter-spacing:0.01em;}.bce27e99-1a8b-4712-b4ca-8243d95343ed{letter-spacing:-0.03em;}.f7520348-cfcd-43a4-ada9-5141a136c66e{letter-spacing:-0.04em;}.b893b49c-0985-4f5b-99b5-417b7a661e01{letter-spacing:0em;}.b7007788-135e-4d99-bf4a-a4232b3bc0fc{letter-spacing:0.01em;}.acf121b0-5eba-4683-8f23-51a13cb181e2{letter-spacing:-0.01em;}.b9ac077b-c379-4915-8186-feb033985191{letter-spacing:0em;}.be5d682e-7bea-40b1-b181-cdaae2c3b8ed{letter-spacing:0.01em;}.bf54ff06-ef8e-4569-b898-527da704b08d{letter-spacing:0em;}.b5e0580c-ce5e-425f-b387-61dff4407adc{letter-spacing:-0.01em;}.b3a559f4-dda4-46c3-8101-e40ac008fc49{letter-spacing:0em;}.a109f162-3281-47b9-b58e-71a994444d52{letter-spacing:-0.02em;}.b7de5202-75f6-4fec-b8c4-9cbdf8c87711{letter-spacing:-0.03em;}.b68fe7c0-db98-4ba6-96a2-49da8acc4d10{letter-spacing:0em;}.b337b5d5-32c5-492c-a2c4-21b84befa62a{letter-spacing:-0.05em;}.a37992d4-5b6e-4aca-83a9-9cf1c2f0fc3a{letter-spacing:0em;}.e5b54430-ad89-446d-8cb1-2ec645d50a39{letter-spacing:0.01em;}.b40b6d21-d79f-4b2e-969d-aebc1d0a6259{letter-spacing:-0.01em;}.fb021490-c913-4e6d-b95e-c11b0ad94182{letter-spacing:0.01em;}</style></defs><title>1029-空間介紹</title><polyline class="b0f97119-7103-4aee-b391-cdafac3a65f0" points="123.35 73.44 239.46 73.44 239.46 10.77"/><polyline class="b0f97119-7103-4aee-b391-cdafac3a65f0" points="230.82 10.77 123.35 10.77 123.35 64.44"/><path class="ff0fc8ed-1b62-4b1b-af2d-2a5ba5f9db0b" d="M72,10.77H27.54c-9.76,0-17.67,7.67-17.67,17.12V64.45"/><line class="ff0fc8ed-1b62-4b1b-af2d-2a5ba5f9db0b" x1="80.65" y1="73.44" x2="80.65" y2="10.77"/><polyline class="b0f97119-7103-4aee-b391-cdafac3a65f0" points="86.1 73.44 118.26 73.44 118.26 10.77"/><polyline class="b0f97119-7103-4aee-b391-cdafac3a65f0" points="109.63 10.77 86.1 10.77 86.1 63.92"/><path class="b1814e9f-8bb2-46a1-9303-3b1f82809e51" d="M9.87,78.75v109.4a17.67,17.67,0,0,0,17.67,17.67H81V78.75"/><path class="ecaddedd-3456-43f4-a8ef-3653bff5bce0" d="M245.24,98.05h78.21V27.19A17.46,17.46,0,0,0,305.78,10H245.24V89.14"/><path class="b1814e9f-8bb2-46a1-9303-3b1f82809e51" d="M245.24,206.64h60.54A17.67,17.67,0,0,0,323.45,189v-5.51"/><polyline class="b1814e9f-8bb2-46a1-9303-3b1f82809e51" points="314.35 183.46 245.24 183.46 245.24 197.09"/><polyline class="ecaddedd-3456-43f4-a8ef-3653bff5bce0" points="245.24 177.14 323.45 177.14 323.45 103.68"/><polyline class="ecaddedd-3456-43f4-a8ef-3653bff5bce0" points="314.81 102.84 245.24 102.84 245.24 168.41"/><polyline class="b0f97119-7103-4aee-b391-cdafac3a65f0" points="86.1 197.09 86.1 78.75 230 78.75"/><polyline class="b0f97119-7103-4aee-b391-cdafac3a65f0" points="239.46 78.75 239.46 205.82 86.1 205.82"/><line class="b1814e9f-8bb2-46a1-9303-3b1f82809e51" x1="72.37" y1="197.09" x2="81.01" y2="205.82"/><line class="b1814e9f-8bb2-46a1-9303-3b1f82809e51" x1="1.23" y1="70.46" x2="9.87" y2="79.19"/><line class="b1814e9f-8bb2-46a1-9303-3b1f82809e51" x1="109.63" y1="64.71" x2="118.08" y2="73.44"/><line class="b1814e9f-8bb2-46a1-9303-3b1f82809e51" x1="114.71" y1="64.71" x2="123.35" y2="73.44"/><line class="b1814e9f-8bb2-46a1-9303-3b1f82809e51" x1="230.82" y1="64.71" x2="239.28" y2="73.44"/><line class="b1814e9f-8bb2-46a1-9303-3b1f82809e51" x1="236.78" y1="94.95" x2="245.24" y2="103.68"/><line class="b1814e9f-8bb2-46a1-9303-3b1f82809e51" x1="236.78" y1="89.32" x2="245.24" y2="98.05"/><line class="b1814e9f-8bb2-46a1-9303-3b1f82809e51" x1="236.78" y1="174.73" x2="245.24" y2="183.46"/><line class="b1814e9f-8bb2-46a1-9303-3b1f82809e51" x1="236.78" y1="168.41" x2="245.24" y2="177.14"/><line class="b1814e9f-8bb2-46a1-9303-3b1f82809e51" x1="72.37" y1="64.71" x2="80.83" y2="73.44"/><line class="b1814e9f-8bb2-46a1-9303-3b1f82809e51" x1="72.37" y1="70.02" x2="80.83" y2="78.75"/><line class="b1814e9f-8bb2-46a1-9303-3b1f82809e51" x1="77.46" y1="64.71" x2="86.1" y2="73.44"/><line class="b1814e9f-8bb2-46a1-9303-3b1f82809e51" x1="230.82" y1="70.46" x2="239.46" y2="79.19"/><line class="b1814e9f-8bb2-46a1-9303-3b1f82809e51" x1="1.23" y1="64.45" x2="9.87" y2="73.18"/><line class="b1814e9f-8bb2-46a1-9303-3b1f82809e51" x1="77.46" y1="197.09" x2="86.1" y2="205.82"/><line class="b1814e9f-8bb2-46a1-9303-3b1f82809e51" x1="230.82" y1="197.09" x2="239.46" y2="205.82"/><line class="b1814e9f-8bb2-46a1-9303-3b1f82809e51" x1="236.52" y1="197" x2="245.24" y2="206.64"/><line class="b1814e9f-8bb2-46a1-9303-3b1f82809e51" x1="314.82" y1="174.59" x2="323.45" y2="183.32"/><line class="b1814e9f-8bb2-46a1-9303-3b1f82809e51" x1="314.82" y1="168.41" x2="323.45" y2="177.14"/><line class="b1814e9f-8bb2-46a1-9303-3b1f82809e51" x1="314.82" y1="94.95" x2="323.45" y2="103.68"/><line class="b1814e9f-8bb2-46a1-9303-3b1f82809e51" x1="314.82" y1="89.32" x2="323.45" y2="98.05"/><line class="b1814e9f-8bb2-46a1-9303-3b1f82809e51" x1="236.6" y1="2.04" x2="245.24" y2="10.77"/><line class="b1814e9f-8bb2-46a1-9303-3b1f82809e51" x1="230.82" y1="2.04" x2="239.46" y2="10.77"/><line class="b1814e9f-8bb2-46a1-9303-3b1f82809e51" x1="115.41" y1="2.04" x2="124.05" y2="10.77"/><line class="b1814e9f-8bb2-46a1-9303-3b1f82809e51" x1="109.63" y1="2.04" x2="118.26" y2="10.77"/><line class="b1814e9f-8bb2-46a1-9303-3b1f82809e51" x1="77.8" y1="2.04" x2="86.43" y2="10.77"/><line class="b1814e9f-8bb2-46a1-9303-3b1f82809e51" x1="72.01" y1="2.04" x2="80.65" y2="10.77"/><rect class="a350c0c3-35fa-4355-83dd-36501894fcb7" x="114.71" y="2.04" width="116.1" height="62.67"/><path class="f7e6e008-67ad-4de0-b27b-64fb8075fb0d" d="M72,64.71V2H18.9C9.14,2,1.23,9.7,1.23,19.16V64.71H72Z"/><rect class="a9514e75-5c5b-4eda-96dc-b44e46ddc0fd" x="77.46" y="2.04" width="32.16" height="62.67"/><path class="bd9bcffa-20bd-4545-8706-40e593c252b5" d="M1.23,70v109.4A17.67,17.67,0,0,0,18.9,197.09H72.37V70Z"/><path class="a1dc02ff-7083-4a5b-8fab-5845197f95d1" d="M314.82,64.35V18.46A17.47,17.47,0,0,0,297.14,1.22H236.6v88.1h78.22Z"/><path class="f1216fc7-8b4b-4b9b-b9f2-44e57e71f5f6" d="M236.6,197.09h60.54a17.68,17.68,0,0,0,17.68-17.67v-5.51H236.6Z"/><rect class="a1dc02ff-7083-4a5b-8fab-5845197f95d1" x="236.6" y="94.11" width="78.21" height="74.3"/><rect class="a350c0c3-35fa-4355-83dd-36501894fcb7" x="77.46" y="70.02" width="153.36" height="127.07"/><text class="f7f28584-c112-41db-a8eb-9ec87faf92aa" transform="translate(118.09 134.08)"><tspan class="f9500284-bf5d-4442-bea9-0b7d587c33bd">開</tspan><tspan class="bc6996f2-ae5b-4244-8f8d-1032c83be8f3" x="18.07" y="0">放</tspan><tspan class="b233bc82-6e91-4a04-91ff-493cdc74d404" x="36.13" y="0">空</tspan><tspan x="54.01" y="0">間</tspan></text><text class="fa231da4-b94e-464e-bfd8-87ef4e7d8dd4" transform="translate(119.46 151.05)">可<tspan class="b46f3364-ecbc-47e1-9d3b-92adf2595f3d" x="12.18" y="0">容</tspan><tspan class="b4732666-9f8b-493d-b69d-8427fcfec44a" x="24.56" y="0">納</tspan><tspan class="b386d584-4a0a-47ab-8bb1-588b270df2f0" x="36.61" y="0">1</tspan><tspan class="b3ba12df-bad5-4b53-85ce-d87d9861e461" x="43.33" y="0">0</tspan><tspan class="fc870616-a3d0-48fd-b0c2-6b45d7c9f8e0" x="50.6" y="0">0</tspan><tspan class="fff32c0a-1d3f-42c4-a6e7-b9c2d48cda53" x="57.03" y="0">人</tspan></text><text class="f7f28584-c112-41db-a8eb-9ec87faf92aa" transform="translate(239.99 46.06)"><tspan class="a3fb3839-424c-44ca-95f7-e328853b2a4f">圖</tspan><tspan class="a01426a4-02a7-4a8d-b54b-f514b2baf5c9" x="17.87" y="0">資</tspan><tspan class="b63c3440-e6c4-4c3a-aeaf-51cddb625ca1" x="35.53" y="0">中</tspan><tspan x="53.35" y="0">心</tspan></text><text class="a8d769f3-45df-4984-952c-153700ab9810" transform="translate(244.67 63.03)"><tspan class="b27e3582-4a8e-4264-8487-2932a0652f16">可</tspan><tspan class="a6ffcee2-9a7e-4a57-8dfb-0953dd14f58c" x="12.18" y="0">容</tspan><tspan class="f280d359-4a8c-407b-8f9d-6ba2c5c250ee" x="24.56" y="0">納</tspan><tspan class="bb10e7c1-d215-41b8-ad17-08cd0c2fcf2d" x="36.61" y="0">1</tspan><tspan class="fc870616-a3d0-48fd-b0c2-6b45d7c9f8e0" x="43.33" y="0">0</tspan><tspan x="49.75" y="0">人</tspan></text><text class="fa231da4-b94e-464e-bfd8-87ef4e7d8dd4" transform="translate(247.71 159.14)">可<tspan class="a6ffcee2-9a7e-4a57-8dfb-0953dd14f58c" x="12.18" y="0">容</tspan><tspan class="b48a321f-899c-40f4-bc07-dab8a697cf84" x="24.56" y="0">納</tspan><tspan class="bce27e99-1a8b-4712-b4ca-8243d95343ed" x="37.02" y="0">8</tspan><tspan class="fff32c0a-1d3f-42c4-a6e7-b9c2d48cda53" x="43.66" y="0">人</tspan></text><text class="f7f28584-c112-41db-a8eb-9ec87faf92aa" transform="translate(255.98 121.49)"><tspan class="f7520348-cfcd-43a4-ada9-5141a136c66e">	</tspan><tspan class="b893b49c-0985-4f5b-99b5-417b7a661e01" x="3.33" y="0">團</tspan><tspan x="21.37" y="0">體</tspan><tspan class="b7007788-135e-4d99-bf4a-a4232b3bc0fc" x="-7.44" y="21.7">諮</tspan><tspan class="acf121b0-5eba-4683-8f23-51a13cb181e2" x="10.85" y="21.7">詢</tspan><tspan x="28.81" y="21.7">室</tspan></text><text class="f7f28584-c112-41db-a8eb-9ec87faf92aa" transform="translate(127.57 35.28)"><tspan class="b9ac077b-c379-4915-8186-feb033985191">團</tspan><tspan class="be5d682e-7bea-40b1-b181-cdaae2c3b8ed" x="18.04" y="0">體</tspan><tspan class="bf54ff06-ef8e-4569-b898-527da704b08d" x="36.31" y="0">施</tspan><tspan class="b5e0580c-ce5e-425f-b387-61dff4407adc" x="54.4" y="0">測</tspan><tspan x="72.31" y="0">室</tspan></text><text class="a8d769f3-45df-4984-952c-153700ab9810" transform="translate(141.44 52.05)"><tspan class="b27e3582-4a8e-4264-8487-2932a0652f16">可</tspan><tspan class="a6ffcee2-9a7e-4a57-8dfb-0953dd14f58c" x="12.18" y="0">容</tspan><tspan class="b3a559f4-dda4-46c3-8101-e40ac008fc49" x="24.56" y="0">納</tspan><tspan class="a109f162-3281-47b9-b58e-71a994444d52" x="36.88" y="0">2</tspan><tspan class="b7de5202-75f6-4fec-b8c4-9cbdf8c87711" x="43.65" y="0">4</tspan><tspan x="50.33" y="0">人</tspan></text><text class="f7f28584-c112-41db-a8eb-9ec87faf92aa" transform="translate(20.05 119.78)"><tspan class="b68fe7c0-db98-4ba6-96a2-49da8acc4d10">亮</tspan><tspan x="18.1" y="0">點</tspan><tspan class="b337b5d5-32c5-492c-a2c4-21b84befa62a" x="-8.65" y="21.7">工</tspan><tspan class="a37992d4-5b6e-4aca-83a9-9cf1c2f0fc3a" x="8.59" y="21.7">作</tspan><tspan x="26.75" y="21.7">室</tspan></text><text class="a8d769f3-45df-4984-952c-153700ab9810" transform="translate(6.47 159.53)"><tspan class="b27e3582-4a8e-4264-8487-2932a0652f16">可</tspan><tspan class="b46f3364-ecbc-47e1-9d3b-92adf2595f3d" x="12.18" y="0">容</tspan><tspan class="e5b54430-ad89-446d-8cb1-2ec645d50a39" x="24.56" y="0">納</tspan><tspan class="b40b6d21-d79f-4b2e-969d-aebc1d0a6259" x="36.96" y="0">3</tspan><tspan class="fb021490-c913-4e6d-b95e-c11b0ad94182" x="43.88" y="0">2</tspan><tspan x="51.01" y="0">人</tspan></text></svg>