<svg id="bca553cc-37eb-47b3-8127-508130994533" data-name="圖層 1" xmlns="http://www.w3.org/2000/svg" viewBox="0 0 33.1 33.1"><defs><style>.b1652f03-3ab1-4c16-b108-7869ed603a52{fill:#f5ac48;}.fff8bb19-736b-41f6-b607-141321165f68{fill:#fff;}</style></defs><title>1030-空間運用</title><circle class="b1652f03-3ab1-4c16-b108-7869ed603a52" cx="16.55" cy="16.55" r="16.55"/><path class="fff8bb19-736b-41f6-b607-141321165f68" d="M10.76,18.76A4.79,4.79,0,1,1,15.55,14,4.79,4.79,0,0,1,10.76,18.76Zm0-8A3.24,3.24,0,1,0,14,14,3.24,3.24,0,0,0,10.76,10.74Z"/><path class="fff8bb19-736b-41f6-b607-141321165f68" d="M22.37,18.76A4.79,4.79,0,1,1,27.16,14,4.78,4.78,0,0,1,22.37,18.76Zm0-8A3.24,3.24,0,1,0,25.61,14,3.25,3.25,0,0,0,22.37,10.74Z"/><path class="fff8bb19-736b-41f6-b607-141321165f68" d="M15.35,14.5l-1.14-1.05a3.72,3.72,0,0,1,2.61-1.2A2.88,2.88,0,0,1,19,13.51l-1.24.93a1.38,1.38,0,0,0-1-.64A2.19,2.19,0,0,0,15.35,14.5Z"/><path class="fff8bb19-736b-41f6-b607-141321165f68" d="M6.75,14.75H4.4a.78.78,0,0,1,0-1.55H6.75a.78.78,0,1,1,0,1.55Z"/><path class="fff8bb19-736b-41f6-b607-141321165f68" d="M28.69,14.75H26.35a.78.78,0,1,1,0-1.55h2.34a.78.78,0,1,1,0,1.55Z"/><path class="fff8bb19-736b-41f6-b607-141321165f68" d="M20.12,24.53H13.06a.77.77,0,1,1,0-1.54h7.06a.77.77,0,1,1,0,1.54Z"/></svg>