<svg id="e423d500-9860-40bc-9e06-d9757abbc00f" data-name="圖層 1" xmlns="http://www.w3.org/2000/svg" xmlns:xlink="http://www.w3.org/1999/xlink" viewBox="0 0 411 190.71"><defs><style>.a85e1319-74da-43a3-8ab1-ab7001b65839{fill:none;}.b0db420e-b3d8-4002-9acc-7a5fa14dc273{clip-path:url(#b776a956-8fcf-4e9f-83c4-896dc5448579);}.bb1e0aaa-7903-4d13-8977-21856e75fd8c{fill:#1a88c5;}.a16e6f4e-db15-44cb-add6-c91e808d83f9,.b78990ca-a2b5-4434-9a81-12b4aa95ad27,.bb1e0aaa-7903-4d13-8977-21856e75fd8c,.be91d9a2-77b5-413d-943c-e16b3c92b10c{opacity:0.6;}.b78990ca-a2b5-4434-9a81-12b4aa95ad27{fill:#fff;}.be91d9a2-77b5-413d-943c-e16b3c92b10c{fill:#77c9d3;}.a16e6f4e-db15-44cb-add6-c91e808d83f9{fill:#e84966;}.b07b3439-70ea-496c-8c99-1616bbb3d19c{fill:#81cde4;}.f320cd6b-eaf3-4f0e-aa23-28d1efab5e82{clip-path:url(#efc499c5-cc2d-49bd-a78f-e5b205382069);}.a54b5055-4b01-42c7-b5c7-ce7aff53ce96{fill:#f5f7f7;}.a22ab489-092b-4a2f-a6fe-c2325fbb66bf{opacity:0.5;}</style><clipPath id="b776a956-8fcf-4e9f-83c4-896dc5448579"><rect class="a85e1319-74da-43a3-8ab1-ab7001b65839" x="0.09" y="-848.29" width="412" height="613"/></clipPath><clipPath id="efc499c5-cc2d-49bd-a78f-e5b205382069"><rect class="a85e1319-74da-43a3-8ab1-ab7001b65839" width="411" height="190.71"/></clipPath></defs><title>網站底圖</title><g class="b0db420e-b3d8-4002-9acc-7a5fa14dc273"><path class="bb1e0aaa-7903-4d13-8977-21856e75fd8c" d="M404.62,154.32a1.25,1.25,0,1,1-1.25-1.24A1.25,1.25,0,0,1,404.62,154.32Z"/><path class="b78990ca-a2b5-4434-9a81-12b4aa95ad27" d="M376,102.48a1.34,1.34,0,1,1-1.33-1.33A1.33,1.33,0,0,1,376,102.48Z"/><path class="bb1e0aaa-7903-4d13-8977-21856e75fd8c" d="M378.69,26.85a.77.77,0,0,1-.78-.77.78.78,0,1,1,1.55,0A.77.77,0,0,1,378.69,26.85Z"/><path class="b78990ca-a2b5-4434-9a81-12b4aa95ad27" d="M387.83,48.27a.74.74,0,1,1,.73-.74A.74.74,0,0,1,387.83,48.27Z"/><path class="b78990ca-a2b5-4434-9a81-12b4aa95ad27" d="M403.66,31.43a.74.74,0,1,1,.73-.74A.74.74,0,0,1,403.66,31.43Z"/><path class="b78990ca-a2b5-4434-9a81-12b4aa95ad27" d="M68.9,85.17A1.18,1.18,0,1,1,67.72,84,1.18,1.18,0,0,1,68.9,85.17Z"/><path class="b78990ca-a2b5-4434-9a81-12b4aa95ad27" d="M65.54,144.64a1.33,1.33,0,1,1-1.33-1.33A1.32,1.32,0,0,1,65.54,144.64Z"/><path class="be91d9a2-77b5-413d-943c-e16b3c92b10c" d="M168.85,162.81a2.16,2.16,0,1,1-2.16-2.16A2.16,2.16,0,0,1,168.85,162.81Z"/><path class="a16e6f4e-db15-44cb-add6-c91e808d83f9" d="M51.77,120a1.92,1.92,0,1,1-1.92-1.91A1.92,1.92,0,0,1,51.77,120Z"/><path class="bb1e0aaa-7903-4d13-8977-21856e75fd8c" d="M278.62,12.77A1.37,1.37,0,1,1,280,14.14,1.36,1.36,0,0,1,278.62,12.77Z"/><path class="b78990ca-a2b5-4434-9a81-12b4aa95ad27" d="M250.51,15.05a1.3,1.3,0,1,1,1.3,1.3A1.3,1.3,0,0,1,250.51,15.05Z"/><path class="bb1e0aaa-7903-4d13-8977-21856e75fd8c" d="M221.49,162.39a1.24,1.24,0,1,1,1.24,1.24A1.23,1.23,0,0,1,221.49,162.39Z"/><path class="bb1e0aaa-7903-4d13-8977-21856e75fd8c" d="M166.94,190a1.24,1.24,0,1,1,1.24,1.24A1.23,1.23,0,0,1,166.94,190Z"/><path class="b78990ca-a2b5-4434-9a81-12b4aa95ad27" d="M114.37,166.68a1.18,1.18,0,1,1,1.17,1.18A1.17,1.17,0,0,1,114.37,166.68Z"/><path class="b78990ca-a2b5-4434-9a81-12b4aa95ad27" d="M366.27-.25a.87.87,0,0,1,.88-.87.87.87,0,0,1,.87.87.87.87,0,0,1-.87.88A.87.87,0,0,1,366.27-.25Z"/><path class="b78990ca-a2b5-4434-9a81-12b4aa95ad27" d="M183.23,6.9a2,2,0,1,1,2,2A2,2,0,0,1,183.23,6.9Z"/><path class="bb1e0aaa-7903-4d13-8977-21856e75fd8c" d="M64.92,30.7a.92.92,0,1,1,.92-.92A.92.92,0,0,1,64.92,30.7Z"/><path class="be91d9a2-77b5-413d-943c-e16b3c92b10c" d="M39.27,48.23a1.6,1.6,0,1,1,1.6-1.6A1.6,1.6,0,0,1,39.27,48.23Z"/><path class="b78990ca-a2b5-4434-9a81-12b4aa95ad27" d="M33.5,13.8a.88.88,0,1,1,.88-.87A.87.87,0,0,1,33.5,13.8Z"/><path class="b78990ca-a2b5-4434-9a81-12b4aa95ad27" d="M24.59,68.43a.87.87,0,1,1,.87-.87A.87.87,0,0,1,24.59,68.43Z"/><path class="b78990ca-a2b5-4434-9a81-12b4aa95ad27" d="M116.17,35.79a1,1,0,1,1,1-1A1,1,0,0,1,116.17,35.79Z"/><path class="b78990ca-a2b5-4434-9a81-12b4aa95ad27" d="M72.11,49.15a1.75,1.75,0,1,1,1.75-1.74A1.75,1.75,0,0,1,72.11,49.15Z"/><path class="b78990ca-a2b5-4434-9a81-12b4aa95ad27" d="M170.62,116.22a1.18,1.18,0,1,1-1.18-1.17A1.18,1.18,0,0,1,170.62,116.22Z"/><path class="a16e6f4e-db15-44cb-add6-c91e808d83f9" d="M188.49,93.49a1.92,1.92,0,1,1-1.92-1.91A1.92,1.92,0,0,1,188.49,93.49Z"/><path class="b78990ca-a2b5-4434-9a81-12b4aa95ad27" d="M142.41,86.68a1.18,1.18,0,1,1,1.18,1.18A1.18,1.18,0,0,1,142.41,86.68Z"/><path class="be91d9a2-77b5-413d-943c-e16b3c92b10c" d="M136,134.67a2.16,2.16,0,1,1,2.15,2.16A2.15,2.15,0,0,1,136,134.67Z"/><path class="a16e6f4e-db15-44cb-add6-c91e808d83f9" d="M89,98.9a1.92,1.92,0,1,1,1.91,1.92A1.9,1.9,0,0,1,89,98.9Z"/><path class="bb1e0aaa-7903-4d13-8977-21856e75fd8c" d="M206.5,187.7a.88.88,0,1,1-.33-1.21A.89.89,0,0,1,206.5,187.7Z"/><path class="bb1e0aaa-7903-4d13-8977-21856e75fd8c" d="M298,124.11a.77.77,0,1,1,.77.77A.77.77,0,0,1,298,124.11Z"/><path class="bb1e0aaa-7903-4d13-8977-21856e75fd8c" d="M251.05,136a.77.77,0,0,1,.77-.78.78.78,0,0,1,.78.78.77.77,0,0,1-.78.77A.76.76,0,0,1,251.05,136Z"/><path class="b78990ca-a2b5-4434-9a81-12b4aa95ad27" d="M282.1,125.4a.74.74,0,1,1,.74.74A.74.74,0,0,1,282.1,125.4Z"/><path class="b78990ca-a2b5-4434-9a81-12b4aa95ad27" d="M298.67,180.89a.84.84,0,1,1,.84.84A.84.84,0,0,1,298.67,180.89Z"/><path class="b78990ca-a2b5-4434-9a81-12b4aa95ad27" d="M246.77,179.08a.84.84,0,0,1,1.68,0,.84.84,0,0,1-1.68,0Z"/><path class="b78990ca-a2b5-4434-9a81-12b4aa95ad27" d="M235.53,142a1.47,1.47,0,1,1,1.47,1.47A1.47,1.47,0,0,1,235.53,142Z"/><path class="be91d9a2-77b5-413d-943c-e16b3c92b10c" d="M282.76,169.29a1.54,1.54,0,1,1,1.53,1.54A1.53,1.53,0,0,1,282.76,169.29Z"/><path class="bb1e0aaa-7903-4d13-8977-21856e75fd8c" d="M328.67,183.22a.78.78,0,1,1,.77-.78A.78.78,0,0,1,328.67,183.22Z"/><path class="bb1e0aaa-7903-4d13-8977-21856e75fd8c" d="M352.34,171.86a.78.78,0,1,1,.78-.78A.78.78,0,0,1,352.34,171.86Z"/><path class="b78990ca-a2b5-4434-9a81-12b4aa95ad27" d="M353.64,187.79a.74.74,0,1,1,.73-.73A.74.74,0,0,1,353.64,187.79Z"/><path class="bb1e0aaa-7903-4d13-8977-21856e75fd8c" d="M242.24,56.51a.77.77,0,0,1-.78-.77.78.78,0,0,1,.78-.78.77.77,0,0,1,.77.78A.76.76,0,0,1,242.24,56.51Z"/><path class="bb1e0aaa-7903-4d13-8977-21856e75fd8c" d="M265.92,45.16a.78.78,0,0,1-.78-.78.78.78,0,1,1,.78.78Z"/><path class="bb1e0aaa-7903-4d13-8977-21856e75fd8c" d="M337.59,77.08a.76.76,0,0,1-.77-.77.77.77,0,0,1,.77-.78.78.78,0,0,1,.78.78A.77.77,0,0,1,337.59,77.08Z"/><path class="be91d9a2-77b5-413d-943c-e16b3c92b10c" d="M346.22,123.17a1.35,1.35,0,1,1,1.34-1.34A1.35,1.35,0,0,1,346.22,123.17Z"/><path class="b78990ca-a2b5-4434-9a81-12b4aa95ad27" d="M251.38,77.93a.74.74,0,1,1,.74-.73A.73.73,0,0,1,251.38,77.93Z"/><path class="b78990ca-a2b5-4434-9a81-12b4aa95ad27" d="M306.41,58.42a.74.74,0,0,1,0-1.48.74.74,0,0,1,0,1.48Z"/><path class="b78990ca-a2b5-4434-9a81-12b4aa95ad27" d="M361.75,40.7a.84.84,0,1,1,.84-.84A.84.84,0,0,1,361.75,40.7Z"/><path class="b78990ca-a2b5-4434-9a81-12b4aa95ad27" d="M343.64,92.6a1.47,1.47,0,1,1,1.47-1.47A1.47,1.47,0,0,1,343.64,92.6Z"/></g><rect class="b07b3439-70ea-496c-8c99-1616bbb3d19c" y="-0.01" width="411.18" height="190.73"/><g class="f320cd6b-eaf3-4f0e-aa23-28d1efab5e82"><path class="a54b5055-4b01-42c7-b5c7-ce7aff53ce96" d="M305.16,3.76H289.75a2.91,2.91,0,1,0,0,5.82h15.41a2.91,2.91,0,0,0,0-5.82Z"/><path class="a54b5055-4b01-42c7-b5c7-ce7aff53ce96" d="M317.64,34h-7.59a2.56,2.56,0,1,0,0,5.11h7.59a2.56,2.56,0,1,0,0-5.11Z"/><path class="a54b5055-4b01-42c7-b5c7-ce7aff53ce96" d="M150.61-538.9V-16.59A15.79,15.79,0,0,0,166.39-.81H323.11a2.26,2.26,0,0,1-.06,4.51h-8.89a2.94,2.94,0,1,0,0,5.88h32.61a2.58,2.58,0,1,1,0,5.15H330.21a4.39,4.39,0,1,0,0,8.77h5.17a5.28,5.28,0,0,1,0,10.55h-7a2.53,2.53,0,0,0-2.53,2.53h0a2.53,2.53,0,0,0,2.53,2.53h33.81a2.76,2.76,0,0,1,2.76,2.76h0a2.76,2.76,0,0,1-2.76,2.76H345a3.27,3.27,0,0,0,0,6.53h7.22a3.26,3.26,0,0,1,3.26,3.26v2.25A6.28,6.28,0,0,0,361.74,63h9.59a4.58,4.58,0,0,1,4.58,4.58,4.59,4.59,0,0,0,4.32,4.58L411,79V-538.9Z"/><g class="a22ab489-092b-4a2f-a6fe-c2325fbb66bf"><path class="bb1e0aaa-7903-4d13-8977-21856e75fd8c" d="M313.63,127.31a.65.65,0,1,1-.64-.65A.64.64,0,0,1,313.63,127.31Z"/><path class="bb1e0aaa-7903-4d13-8977-21856e75fd8c" d="M411.42,111.41a.65.65,0,1,1-.65-.65A.65.65,0,0,1,411.42,111.41Z"/><path class="bb1e0aaa-7903-4d13-8977-21856e75fd8c" d="M342.41,127.88a.65.65,0,1,1-.65-.65A.65.65,0,0,1,342.41,127.88Z"/><path class="be91d9a2-77b5-413d-943c-e16b3c92b10c" d="M341.4,160.31a1.13,1.13,0,1,1-2.25,0,1.13,1.13,0,0,1,2.25,0Z"/><path class="b78990ca-a2b5-4434-9a81-12b4aa95ad27" d="M403.39,128.26a1.23,1.23,0,1,1-1.23-1.23A1.23,1.23,0,0,1,403.39,128.26Z"/><path class="b78990ca-a2b5-4434-9a81-12b4aa95ad27" d="M384.83,84.06a.62.62,0,0,1-.62.62.61.61,0,0,1-.61-.62.61.61,0,0,1,.61-.61A.61.61,0,0,1,384.83,84.06Z"/><path class="b78990ca-a2b5-4434-9a81-12b4aa95ad27" d="M383.08,115.07a.7.7,0,1,1-1.39,0,.7.7,0,0,1,1.39,0Z"/><path class="b78990ca-a2b5-4434-9a81-12b4aa95ad27" d="M298.7,100.27a.7.7,0,1,1-.7-.69A.7.7,0,0,1,298.7,100.27Z"/><path class="b78990ca-a2b5-4434-9a81-12b4aa95ad27" d="M368.48,116.9a.62.62,0,0,1-.62.62.61.61,0,0,1-.61-.62.61.61,0,0,1,.61-.61A.61.61,0,0,1,368.48,116.9Z"/><path class="b78990ca-a2b5-4434-9a81-12b4aa95ad27" d="M343.67,103.15a.61.61,0,0,1-.61.62.62.62,0,1,1,0-1.23A.61.61,0,0,1,343.67,103.15Z"/><path class="b78990ca-a2b5-4434-9a81-12b4aa95ad27" d="M304.91,148.24a1.23,1.23,0,1,1-1.23-1.23A1.23,1.23,0,0,1,304.91,148.24Z"/><path class="be91d9a2-77b5-413d-943c-e16b3c92b10c" d="M392.49,144.52a1.12,1.12,0,1,1-1.12-1.13A1.12,1.12,0,0,1,392.49,144.52Z"/><circle class="be91d9a2-77b5-413d-943c-e16b3c92b10c" cx="324.52" cy="110.81" r="1.12"/><path class="a16e6f4e-db15-44cb-add6-c91e808d83f9" d="M375.89,102.25a1,1,0,1,1-1-1A1,1,0,0,1,375.89,102.25Z"/><path class="a16e6f4e-db15-44cb-add6-c91e808d83f9" d="M389.92,113.4a1,1,0,1,1-1-1A1,1,0,0,1,389.92,113.4Z"/><path class="bb1e0aaa-7903-4d13-8977-21856e75fd8c" d="M338.76,84.92a.65.65,0,1,1-.25-.88A.65.65,0,0,1,338.76,84.92Z"/><path class="bb1e0aaa-7903-4d13-8977-21856e75fd8c" d="M318.06,32.36a.55.55,0,1,1-.95-.54.53.53,0,0,1,.74-.21A.54.54,0,0,1,318.06,32.36Z"/><path class="bb1e0aaa-7903-4d13-8977-21856e75fd8c" d="M361.55,36.35a.55.55,0,1,1-.2-.75A.55.55,0,0,1,361.55,36.35Z"/><path class="b78990ca-a2b5-4434-9a81-12b4aa95ad27" d="M358.12,87.05a.62.62,0,1,1-.24-.84A.62.62,0,0,1,358.12,87.05Z"/><path class="b78990ca-a2b5-4434-9a81-12b4aa95ad27" d="M331.7,19.82a.52.52,0,1,1-.19-.71A.51.51,0,0,1,331.7,19.82Z"/><path class="bb1e0aaa-7903-4d13-8977-21856e75fd8c" d="M389.17,4.28a.49.49,0,0,1,.48-.48.48.48,0,0,1,.48.48.47.47,0,0,1-.48.48A.48.48,0,0,1,389.17,4.28Z"/><path class="b78990ca-a2b5-4434-9a81-12b4aa95ad27" d="M408.53,126.56a.61.61,0,0,1,.62-.61.61.61,0,0,1,.61.61.61.61,0,0,1-.61.62A.62.62,0,0,1,408.53,126.56Z"/><path class="b78990ca-a2b5-4434-9a81-12b4aa95ad27" d="M386.52,31a.53.53,0,0,1,1.05,0,.53.53,0,0,1-1.05,0Z"/><path class="b78990ca-a2b5-4434-9a81-12b4aa95ad27" d="M337.45-1a1,1,0,0,1,1-1,1,1,0,0,1,1,1,1,1,0,0,1-1,1A1,1,0,0,1,337.45-1Z"/><path class="b78990ca-a2b5-4434-9a81-12b4aa95ad27" d="M379.55,8a.92.92,0,1,1,.91.91A.92.92,0,0,1,379.55,8Z"/><path class="bb1e0aaa-7903-4d13-8977-21856e75fd8c" d="M356.32,9.32a.48.48,0,1,1,1,0,.48.48,0,1,1-1,0Z"/><path class="b78990ca-a2b5-4434-9a81-12b4aa95ad27" d="M375.58,2.76A.46.46,0,0,1,376,2.3a.46.46,0,1,1,0,.92A.46.46,0,0,1,375.58,2.76Z"/><path class="b78990ca-a2b5-4434-9a81-12b4aa95ad27" d="M346.7,13.08a.91.91,0,1,1,.91.91A.92.92,0,0,1,346.7,13.08Z"/><path class="be91d9a2-77b5-413d-943c-e16b3c92b10c" d="M409.61,37a1,1,0,1,1,1,.95A1,1,0,0,1,409.61,37Z"/><path class="a16e6f4e-db15-44cb-add6-c91e808d83f9" d="M395.09,37.53a.85.85,0,1,1,.85.85A.85.85,0,0,1,395.09,37.53Z"/><path class="bb1e0aaa-7903-4d13-8977-21856e75fd8c" d="M382.75,55.66a.48.48,0,0,1-.48-.48.49.49,0,0,1,.48-.48.48.48,0,0,1,.48.48A.47.47,0,0,1,382.75,55.66Z"/><path class="be91d9a2-77b5-413d-943c-e16b3c92b10c" d="M369.38,64.8a.83.83,0,0,1-.83-.83.83.83,0,1,1,1.66,0A.83.83,0,0,1,369.38,64.8Z"/><path class="b78990ca-a2b5-4434-9a81-12b4aa95ad27" d="M366.37,46.85a.46.46,0,0,1,0-.91.46.46,0,1,1,0,.91Z"/><path class="b78990ca-a2b5-4434-9a81-12b4aa95ad27" d="M361.72,75.34a.46.46,0,1,1,.46-.46A.46.46,0,0,1,361.72,75.34Z"/><path class="b78990ca-a2b5-4434-9a81-12b4aa95ad27" d="M409.47,58.31a.52.52,0,0,1,0-1,.52.52,0,0,1,0,1Z"/><path class="b78990ca-a2b5-4434-9a81-12b4aa95ad27" d="M386.5,65.28a.91.91,0,1,1,.91-.91A.91.91,0,0,1,386.5,65.28Z"/><path class="a16e6f4e-db15-44cb-add6-c91e808d83f9" d="M395.31,91.22a1,1,0,1,1,1,1A1,1,0,0,1,395.31,91.22Z"/><path class="bb1e0aaa-7903-4d13-8977-21856e75fd8c" d="M300.11,60.84a.41.41,0,0,1,0-.81.41.41,0,1,1,0,.81Z"/><path class="bb1e0aaa-7903-4d13-8977-21856e75fd8c" d="M302.05,19a.4.4,0,1,1,.4-.4A.4.4,0,0,1,302.05,19Z"/><path class="bb1e0aaa-7903-4d13-8977-21856e75fd8c" d="M318.65,79.42a.41.41,0,1,1,.41-.41A.4.4,0,0,1,318.65,79.42Z"/><path class="b78990ca-a2b5-4434-9a81-12b4aa95ad27" d="M304.88,72a.39.39,0,1,1,.38-.39A.38.38,0,0,1,304.88,72Z"/><path class="b78990ca-a2b5-4434-9a81-12b4aa95ad27" d="M313.13,63.23a.39.39,0,0,1-.38-.39.39.39,0,0,1,.77,0A.39.39,0,0,1,313.13,63.23Z"/><path class="b78990ca-a2b5-4434-9a81-12b4aa95ad27" d="M342.07,54.59a.44.44,0,1,1,.43-.44A.44.44,0,0,1,342.07,54.59Z"/><path class="bb1e0aaa-7903-4d13-8977-21856e75fd8c" d="M308.64,177.84a.41.41,0,1,1,0-.81.41.41,0,0,1,0,.81Z"/><path class="bb1e0aaa-7903-4d13-8977-21856e75fd8c" d="M321,171.91a.4.4,0,0,1,0-.8.4.4,0,1,1,0,.8Z"/><path class="b78990ca-a2b5-4434-9a81-12b4aa95ad27" d="M321.66,180.22a.38.38,0,1,1,.38-.38A.38.38,0,0,1,321.66,180.22Z"/><path class="b78990ca-a2b5-4434-9a81-12b4aa95ad27" d="M350.59,171.58a.44.44,0,1,1,.44-.44A.44.44,0,0,1,350.59,171.58Z"/><path class="bb1e0aaa-7903-4d13-8977-21856e75fd8c" d="M88.58,118.6a.65.65,0,1,1-.65-.65A.65.65,0,0,1,88.58,118.6Z"/><path class="bb1e0aaa-7903-4d13-8977-21856e75fd8c" d="M19.57,135.06a.65.65,0,1,1-.65-.65A.65.65,0,0,1,19.57,135.06Z"/><path class="be91d9a2-77b5-413d-943c-e16b3c92b10c" d="M18.55,167.5a1.12,1.12,0,1,1-1.12-1.13A1.12,1.12,0,0,1,18.55,167.5Z"/><path class="b78990ca-a2b5-4434-9a81-12b4aa95ad27" d="M80.55,135.45a1.23,1.23,0,1,1-1.23-1.23A1.24,1.24,0,0,1,80.55,135.45Z"/><path class="b78990ca-a2b5-4434-9a81-12b4aa95ad27" d="M138.58,91.25a.61.61,0,1,1-1.22,0,.61.61,0,1,1,1.22,0Z"/><path class="b78990ca-a2b5-4434-9a81-12b4aa95ad27" d="M136.84,122.26a.7.7,0,0,1-.7.69.7.7,0,0,1,0-1.39A.7.7,0,0,1,136.84,122.26Z"/><path class="b78990ca-a2b5-4434-9a81-12b4aa95ad27" d="M45.64,124.09a.61.61,0,0,1-.62.61.61.61,0,0,1-.61-.61.61.61,0,0,1,.61-.62A.62.62,0,0,1,45.64,124.09Z"/><path class="b78990ca-a2b5-4434-9a81-12b4aa95ad27" d="M20.83,110.34a.62.62,0,1,1-.62-.61A.61.61,0,0,1,20.83,110.34Z"/><path class="be91d9a2-77b5-413d-943c-e16b3c92b10c" d="M190.7,131.73a1.13,1.13,0,0,1-2.25,0,1.13,1.13,0,1,1,2.25,0Z"/><path class="be91d9a2-77b5-413d-943c-e16b3c92b10c" d="M69.65,151.7a1.13,1.13,0,1,1-1.12-1.12A1.13,1.13,0,0,1,69.65,151.7Z"/><circle class="be91d9a2-77b5-413d-943c-e16b3c92b10c" cx="1.68" cy="118" r="1.12"/><path class="a16e6f4e-db15-44cb-add6-c91e808d83f9" d="M129.65,109.43a1,1,0,1,1-1-1A1,1,0,0,1,129.65,109.43Z"/><path class="a16e6f4e-db15-44cb-add6-c91e808d83f9" d="M67.08,120.58a1,1,0,1,1-1-1A1,1,0,0,1,67.08,120.58Z"/><path class="bb1e0aaa-7903-4d13-8977-21856e75fd8c" d="M15.91,92.11a.65.65,0,1,1-1.12-.64.64.64,0,1,1,1.12.64Z"/><path class="bb1e0aaa-7903-4d13-8977-21856e75fd8c" d="M38.71,43.53a.54.54,0,0,1-.75.21.55.55,0,1,1,.75-.21Z"/><path class="b78990ca-a2b5-4434-9a81-12b4aa95ad27" d="M4.15,4.33a.91.91,0,1,1-.34-1.24A.9.9,0,0,1,4.15,4.33Z"/><path class="b78990ca-a2b5-4434-9a81-12b4aa95ad27" d="M35.27,94.24a.61.61,0,0,1-.83.23A.61.61,0,1,1,35,93.4.61.61,0,0,1,35.27,94.24Z"/><path class="b78990ca-a2b5-4434-9a81-12b4aa95ad27" d="M8.86,27a.52.52,0,0,1-.71.2A.51.51,0,0,1,8,26.49a.52.52,0,1,1,.9.51Z"/><path class="bb1e0aaa-7903-4d13-8977-21856e75fd8c" d="M66.33,11.47a.48.48,0,0,1,.48-.48.48.48,0,0,1,0,1A.48.48,0,0,1,66.33,11.47Z"/><path class="b78990ca-a2b5-4434-9a81-12b4aa95ad27" d="M85.59,4.91a.46.46,0,1,1,.46.45A.45.45,0,0,1,85.59,4.91Z"/><path class="bb1e0aaa-7903-4d13-8977-21856e75fd8c" d="M237.49,31.72a.71.71,0,1,1,.71.71A.71.71,0,0,1,237.49,31.72Z"/><path class="bb1e0aaa-7903-4d13-8977-21856e75fd8c" d="M247.94,53.5a.71.71,0,1,1,.71.71A.71.71,0,0,1,247.94,53.5Z"/><path class="b78990ca-a2b5-4434-9a81-12b4aa95ad27" d="M217.79,40.13a.68.68,0,1,1,.67.67A.67.67,0,0,1,217.79,40.13Z"/><path class="b78990ca-a2b5-4434-9a81-12b4aa95ad27" d="M233.28,54.69a.68.68,0,1,1,.68.67A.67.67,0,0,1,233.28,54.69Z"/><path class="bb1e0aaa-7903-4d13-8977-21856e75fd8c" d="M218.15,131.51a.65.65,0,1,1,.65.65A.65.65,0,0,1,218.15,131.51Z"/><path class="bb1e0aaa-7903-4d13-8977-21856e75fd8c" d="M189.71,145.9a.65.65,0,1,1,.64.65A.64.64,0,0,1,189.71,145.9Z"/><path class="b78990ca-a2b5-4434-9a81-12b4aa95ad27" d="M162.29,133.75a.62.62,0,0,1,.62-.62.61.61,0,0,1,.61.62.61.61,0,0,1-.61.61A.61.61,0,0,1,162.29,133.75Z"/><path class="b78990ca-a2b5-4434-9a81-12b4aa95ad27" d="M176.38,147a.61.61,0,0,1,.61-.61.62.62,0,1,1,0,1.23A.61.61,0,0,1,176.38,147Z"/><path class="b78990ca-a2b5-4434-9a81-12b4aa95ad27" d="M95.86,39.31a.52.52,0,0,1,.52-.52.52.52,0,1,1,0,1A.52.52,0,0,1,95.86,39.31Z"/><path class="b78990ca-a2b5-4434-9a81-12b4aa95ad27" d="M63.68,38.19a.52.52,0,0,1,.52-.52.52.52,0,1,1,0,1A.52.52,0,0,1,63.68,38.19Z"/><path class="b78990ca-a2b5-4434-9a81-12b4aa95ad27" d="M14.61,6.16a1,1,0,1,1,1,1A1,1,0,0,1,14.61,6.16Z"/><path class="b78990ca-a2b5-4434-9a81-12b4aa95ad27" d="M56.71,15.22a.91.91,0,0,1,1.82,0,.91.91,0,0,1-1.82,0Z"/><path class="bb1e0aaa-7903-4d13-8977-21856e75fd8c" d="M33.48,16.51A.47.47,0,0,1,34,16a.48.48,0,0,1,.48.48A.49.49,0,0,1,34,17,.48.48,0,0,1,33.48,16.51Z"/><path class="b78990ca-a2b5-4434-9a81-12b4aa95ad27" d="M52.73,9.94a.46.46,0,1,1,.46.46A.46.46,0,0,1,52.73,9.94Z"/><path class="b78990ca-a2b5-4434-9a81-12b4aa95ad27" d="M23.86,20.26a.91.91,0,1,1,.91.91A.91.91,0,0,1,23.86,20.26Z"/><path class="be91d9a2-77b5-413d-943c-e16b3c92b10c" d="M86.77,44.21a1,1,0,1,1,1,.95A1,1,0,0,1,86.77,44.21Z"/><path class="b78990ca-a2b5-4434-9a81-12b4aa95ad27" d="M98.72,20.67a.91.91,0,1,1-.34-1.24A.9.9,0,0,1,98.72,20.67Z"/><path class="bb1e0aaa-7903-4d13-8977-21856e75fd8c" d="M187.69,38.82a.48.48,0,0,1,.48-.48.49.49,0,0,1,.48.48.48.48,0,0,1-.48.48A.47.47,0,0,1,187.69,38.82Z"/><path class="be91d9a2-77b5-413d-943c-e16b3c92b10c" d="M158.87,10.19a.83.83,0,0,1,.83-.83.84.84,0,0,1,.84.83.85.85,0,0,1-.84.84A.84.84,0,0,1,158.87,10.19Z"/><path class="be91d9a2-77b5-413d-943c-e16b3c92b10c" d="M113.2,1.11a.83.83,0,1,1,1.66,0,.83.83,0,1,1-1.66,0Z"/><path class="b78990ca-a2b5-4434-9a81-12b4aa95ad27" d="M176.82,7.18a.46.46,0,1,1,.46.46A.45.45,0,0,1,176.82,7.18Z"/><path class="b78990ca-a2b5-4434-9a81-12b4aa95ad27" d="M176.57,21.63a.46.46,0,1,1,.46.46A.45.45,0,0,1,176.57,21.63Z"/><path class="b78990ca-a2b5-4434-9a81-12b4aa95ad27" d="M148.33,2.53a.46.46,0,0,1,.46-.45.46.46,0,0,1,0,.91A.46.46,0,0,1,148.33,2.53Z"/><path class="b78990ca-a2b5-4434-9a81-12b4aa95ad27" d="M104.83,31.85a1,1,0,1,1,1,1A1,1,0,0,1,104.83,31.85Z"/><path class="be91d9a2-77b5-413d-943c-e16b3c92b10c" d="M130.54,8.05a.84.84,0,0,1,.84-.84.84.84,0,1,1-.84.84Z"/><path class="b78990ca-a2b5-4434-9a81-12b4aa95ad27" d="M206.56,28.59a.91.91,0,1,1-.35-1.24A.91.91,0,0,1,206.56,28.59Z"/><circle class="be91d9a2-77b5-413d-943c-e16b3c92b10c" cx="260.43" cy="22.36" r="0.83"/><path class="be91d9a2-77b5-413d-943c-e16b3c92b10c" d="M225.91,10.12a.83.83,0,1,1,1.66,0,.83.83,0,0,1-1.66,0Z"/><path class="b78990ca-a2b5-4434-9a81-12b4aa95ad27" d="M293.64,46.71a.46.46,0,0,1,.46-.45.45.45,0,0,1,.45.45.46.46,0,0,1-.45.46A.47.47,0,0,1,293.64,46.71Z"/><path class="b78990ca-a2b5-4434-9a81-12b4aa95ad27" d="M249.06,14.7a.46.46,0,0,1,.46-.45.45.45,0,0,1,.45.45.46.46,0,0,1-.45.46A.47.47,0,0,1,249.06,14.7Z"/><path class="b78990ca-a2b5-4434-9a81-12b4aa95ad27" d="M206.35,14.22a.52.52,0,1,1,.52.52A.51.51,0,0,1,206.35,14.22Z"/><path class="b78990ca-a2b5-4434-9a81-12b4aa95ad27" d="M198.2,50.44a1,1,0,1,1,1,1A1,1,0,0,1,198.2,50.44Z"/><path class="be91d9a2-77b5-413d-943c-e16b3c92b10c" d="M231.27,20.21a.84.84,0,0,1,1.67,0,.84.84,0,1,1-1.67,0Z"/><path class="a16e6f4e-db15-44cb-add6-c91e808d83f9" d="M268.74,9.28a.74.74,0,1,1,.74.74A.74.74,0,0,1,268.74,9.28Z"/><path class="a16e6f4e-db15-44cb-add6-c91e808d83f9" d="M72.25,44.72a.85.85,0,1,1,.85.84A.85.85,0,0,1,72.25,44.72Z"/><circle class="bb1e0aaa-7903-4d13-8977-21856e75fd8c" cx="114.46" cy="40.28" r="0.48"/><path class="bb1e0aaa-7903-4d13-8977-21856e75fd8c" d="M129.14,33.71a.48.48,0,0,1-.48-.48.49.49,0,0,1,.48-.48.48.48,0,0,1,.48.48A.47.47,0,0,1,129.14,33.71Z"/><path class="bb1e0aaa-7903-4d13-8977-21856e75fd8c" d="M136.51,62.85a.48.48,0,0,1-.48-.48.47.47,0,0,1,.48-.48.48.48,0,0,1,.48.48A.49.49,0,0,1,136.51,62.85Z"/><path class="be91d9a2-77b5-413d-943c-e16b3c92b10c" d="M123.14,72a.84.84,0,0,1-.83-.84.83.83,0,0,1,1.66,0A.84.84,0,0,1,123.14,72Z"/><path class="b78990ca-a2b5-4434-9a81-12b4aa95ad27" d="M120.13,54a.46.46,0,0,1-.46-.45.46.46,0,1,1,.92,0A.46.46,0,0,1,120.13,54Z"/><path class="b78990ca-a2b5-4434-9a81-12b4aa95ad27" d="M129.94,43.59a.46.46,0,1,1,.46-.45A.45.45,0,0,1,129.94,43.59Z"/><path class="b78990ca-a2b5-4434-9a81-12b4aa95ad27" d="M164.35,33.32a.52.52,0,0,1-.52-.52.52.52,0,1,1,1,0A.52.52,0,0,1,164.35,33.32Z"/><path class="b78990ca-a2b5-4434-9a81-12b4aa95ad27" d="M115.48,82.52a.46.46,0,0,1,0-.91.46.46,0,1,1,0,.91Z"/><path class="b78990ca-a2b5-4434-9a81-12b4aa95ad27" d="M163.23,65.5a.52.52,0,0,1-.52-.52.52.52,0,1,1,1,0A.52.52,0,0,1,163.23,65.5Z"/><path class="b78990ca-a2b5-4434-9a81-12b4aa95ad27" d="M140.26,72.47a.91.91,0,0,1,0-1.82.91.91,0,0,1,0,1.82Z"/><path class="be91d9a2-77b5-413d-943c-e16b3c92b10c" d="M169.25,42.41a1,1,0,1,1,.95-.95A1,1,0,0,1,169.25,42.41Z"/><path class="a16e6f4e-db15-44cb-add6-c91e808d83f9" d="M281.94,37.81a.85.85,0,1,1,0-1.69.85.85,0,0,1,0,1.69Z"/><path class="b78990ca-a2b5-4434-9a81-12b4aa95ad27" d="M191.62,107.44a.61.61,0,0,1-.61.62.62.62,0,0,1-.62-.62.61.61,0,0,1,.62-.61A.61.61,0,0,1,191.62,107.44Z"/><path class="a16e6f4e-db15-44cb-add6-c91e808d83f9" d="M200.94,95.59a1,1,0,1,1-1-1A1,1,0,0,1,200.94,95.59Z"/><path class="b78990ca-a2b5-4434-9a81-12b4aa95ad27" d="M176.92,92a.61.61,0,0,1,.61-.61.61.61,0,0,1,.62.61.62.62,0,0,1-.62.62A.61.61,0,0,1,176.92,92Z"/><path class="be91d9a2-77b5-413d-943c-e16b3c92b10c" d="M173.59,117.06a1.13,1.13,0,1,1,1.12,1.12A1.12,1.12,0,0,1,173.59,117.06Z"/><path class="a16e6f4e-db15-44cb-add6-c91e808d83f9" d="M149.07,98.41a1,1,0,1,1,1,1A1,1,0,0,1,149.07,98.41Z"/><path class="b78990ca-a2b5-4434-9a81-12b4aa95ad27" d="M294.32,184.83a.52.52,0,0,1-.52.52.52.52,0,0,1-.52-.52.53.53,0,0,1,.52-.52A.52.52,0,0,1,294.32,184.83Z"/><path class="bb1e0aaa-7903-4d13-8977-21856e75fd8c" d="M210.33,144.71a.46.46,0,0,1-.8-.46.46.46,0,0,1,.8.46Z"/><path class="b78990ca-a2b5-4434-9a81-12b4aa95ad27" d="M207.44,187.34a.51.51,0,1,1-.9-.5.51.51,0,1,1,.9.5Z"/><path class="bb1e0aaa-7903-4d13-8977-21856e75fd8c" d="M258.06,111.55a.41.41,0,1,1,.4.4A.4.4,0,0,1,258.06,111.55Z"/><path class="bb1e0aaa-7903-4d13-8977-21856e75fd8c" d="M233.56,117.74a.41.41,0,0,1,.81,0,.41.41,0,1,1-.81,0Z"/><path class="b78990ca-a2b5-4434-9a81-12b4aa95ad27" d="M249.75,112.22a.39.39,0,1,1,.39.39A.38.38,0,0,1,249.75,112.22Z"/><path class="b78990ca-a2b5-4434-9a81-12b4aa95ad27" d="M258.39,141.16a.44.44,0,1,1,.44.44A.44.44,0,0,1,258.39,141.16Z"/><path class="b78990ca-a2b5-4434-9a81-12b4aa95ad27" d="M231.33,140.22a.44.44,0,1,1,.44.43A.44.44,0,0,1,231.33,140.22Z"/><path class="b78990ca-a2b5-4434-9a81-12b4aa95ad27" d="M225.47,120.9a.77.77,0,1,1,.77.77A.77.77,0,0,1,225.47,120.9Z"/><path class="be91d9a2-77b5-413d-943c-e16b3c92b10c" d="M250.09,135.11a.81.81,0,1,1,.81.8A.8.8,0,0,1,250.09,135.11Z"/><path class="bb1e0aaa-7903-4d13-8977-21856e75fd8c" d="M274,142.37a.41.41,0,0,1,0-.81.41.41,0,1,1,0,.81Z"/><path class="bb1e0aaa-7903-4d13-8977-21856e75fd8c" d="M286.38,136.45a.41.41,0,1,1,0-.81.41.41,0,0,1,0,.81Z"/><path class="bb1e0aaa-7903-4d13-8977-21856e75fd8c" d="M292.57,161a.41.41,0,0,1,0-.81.41.41,0,1,1,0,.81Z"/><path class="be91d9a2-77b5-413d-943c-e16b3c92b10c" d="M281.33,168.63a.7.7,0,1,1,.7-.7A.7.7,0,0,1,281.33,168.63Z"/><path class="b78990ca-a2b5-4434-9a81-12b4aa95ad27" d="M278.8,153.54a.39.39,0,1,1,.38-.38A.38.38,0,0,1,278.8,153.54Z"/><path class="b78990ca-a2b5-4434-9a81-12b4aa95ad27" d="M287.05,144.76a.39.39,0,0,1-.38-.39.38.38,0,0,1,.38-.38.39.39,0,0,1,.39.38A.4.4,0,0,1,287.05,144.76Z"/><path class="b78990ca-a2b5-4434-9a81-12b4aa95ad27" d="M19.22,61.77a.44.44,0,1,1,.44-.44A.43.43,0,0,1,19.22,61.77Z"/><path class="b78990ca-a2b5-4434-9a81-12b4aa95ad27" d="M274.89,177.49a.38.38,0,1,1,.38-.38A.38.38,0,0,1,274.89,177.49Z"/><path class="b78990ca-a2b5-4434-9a81-12b4aa95ad27" d="M295.73,169a.77.77,0,1,1,.76-.77A.76.76,0,0,1,295.73,169Z"/><path class="bb1e0aaa-7903-4d13-8977-21856e75fd8c" d="M229,76.31a.41.41,0,1,1,0-.81.41.41,0,0,1,0,.81Z"/><path class="bb1e0aaa-7903-4d13-8977-21856e75fd8c" d="M241.31,70.38a.4.4,0,1,1,.41-.4A.4.4,0,0,1,241.31,70.38Z"/><path class="bb1e0aaa-7903-4d13-8977-21856e75fd8c" d="M278.69,87a.41.41,0,1,1,.4-.4A.4.4,0,0,1,278.69,87Z"/><path class="be91d9a2-77b5-413d-943c-e16b3c92b10c" d="M283.18,111.06a.7.7,0,1,1,.71-.7A.7.7,0,0,1,283.18,111.06Z"/><path class="b78990ca-a2b5-4434-9a81-12b4aa95ad27" d="M233.74,87.47a.38.38,0,1,1,.38-.38A.38.38,0,0,1,233.74,87.47Z"/><path class="b78990ca-a2b5-4434-9a81-12b4aa95ad27" d="M262.43,77.3a.39.39,0,1,1,0-.77.39.39,0,0,1,0,.77Z"/><path class="b78990ca-a2b5-4434-9a81-12b4aa95ad27" d="M291.28,68.06a.44.44,0,1,1,.44-.44A.43.43,0,0,1,291.28,68.06Z"/><path class="b78990ca-a2b5-4434-9a81-12b4aa95ad27" d="M281.84,95.12a.77.77,0,1,1,.77-.76A.77.77,0,0,1,281.84,95.12Z"/><path class="a16e6f4e-db15-44cb-add6-c91e808d83f9" d="M237.9,2a.85.85,0,1,1-.84-.84A.85.85,0,0,1,237.9,2Z"/><path class="b78990ca-a2b5-4434-9a81-12b4aa95ad27" d="M27.75,178.77a.44.44,0,0,1,0-.88.44.44,0,1,1,0,.88Z"/><path class="b78990ca-a2b5-4434-9a81-12b4aa95ad27" d="M139.3,186.46a.52.52,0,0,1,.73-.73.5.5,0,0,1,0,.73A.52.52,0,0,1,139.3,186.46Z"/><path class="be91d9a2-77b5-413d-943c-e16b3c92b10c" d="M159.94,188.73a.7.7,0,0,1,1,1,.7.7,0,0,1-1-1Z"/><path class="a16e6f4e-db15-44cb-add6-c91e808d83f9" d="M128.81,188.44a.83.83,0,0,1,0,1.18.84.84,0,0,1-1.19,0,.83.83,0,0,1,0-1.18A.84.84,0,0,1,128.81,188.44Z"/></g><path class="a85e1319-74da-43a3-8ab1-ab7001b65839" d="M150.61-538.9V-16.71A15.78,15.78,0,0,0,166.39-.94H323.11a2.26,2.26,0,0,1-.06,4.51h-8.89a2.95,2.95,0,0,0,0,5.89h32.61a2.57,2.57,0,1,1,0,5.14H330.21a4.39,4.39,0,1,0,0,8.78h5.17a5.28,5.28,0,0,1,0,10.55h-7a2.53,2.53,0,0,0-2.53,2.53h0A2.53,2.53,0,0,0,328.35,39h33.81a2.75,2.75,0,0,1,2.76,2.76h0a2.76,2.76,0,0,1-2.76,2.76H345A3.26,3.26,0,1,0,345,51h7.22a3.26,3.26,0,0,1,3.26,3.27v2.24a6.29,6.29,0,0,0,6.28,6.29h9.59a4.58,4.58,0,0,1,4.58,4.58A4.59,4.59,0,0,0,380.23,72L411,78.85V-538.9Z"/></g></svg>