<?xml version="1.0" encoding="UTF-8"?>
<svg xmlns="http://www.w3.org/2000/svg" xmlns:xlink="http://www.w3.org/1999/xlink" width="40pt" height="40pt" viewBox="0 0 40 40" version="1.1">
<g id="surface1">
<path style=" stroke:none;fill-rule:nonzero;fill:rgb(96.470588%,67.843137%,28.235294%);fill-opacity:1;" d="M 9.644531 0 L 30.355469 0 C 35.683594 0 40 4.316406 40 9.644531 L 40 30.355469 C 40 35.683594 35.683594 40 30.355469 40 L 9.644531 40 C 4.316406 40 0 35.683594 0 30.355469 L 0 9.644531 C 0 4.316406 4.316406 0 9.644531 0 Z M 9.644531 0 "/>
<path style=" stroke:none;fill-rule:nonzero;fill:rgb(100%,100%,100%);fill-opacity:1;" d="M 34.195312 20.90625 C 34.132812 23.035156 34.132812 25.167969 33.984375 27.308594 C 33.792969 30.007812 32.636719 32.1875 30.191406 33.539062 C 28.878906 34.230469 27.414062 34.578125 25.933594 34.546875 C 22.277344 34.578125 18.617188 34.578125 14.960938 34.546875 C 13.476562 34.574219 12.011719 34.230469 10.695312 33.546875 C 8.714844 32.527344 7.355469 30.605469 7.046875 28.398438 C 6.851562 27.074219 6.75 25.738281 6.753906 24.398438 C 6.726562 21.488281 6.753906 18.570312 6.800781 15.660156 C 6.761719 14.113281 7.101562 12.582031 7.789062 11.199219 C 8.765625 9.332031 10.523438 8 12.589844 7.566406 C 14.035156 7.28125 15.511719 7.164062 16.988281 7.210938 C 19.886719 7.210938 22.789062 7.210938 25.6875 7.261719 C 27.234375 7.222656 28.765625 7.566406 30.148438 8.261719 C 32.136719 9.285156 33.507812 11.210938 33.816406 13.429688 C 33.996094 14.746094 34.09375 16.074219 34.113281 17.402344 C 34.160156 18.5625 34.113281 19.726562 34.113281 20.890625 Z M 31.691406 20.9375 L 31.648438 20.9375 C 31.648438 19.734375 31.648438 18.503906 31.648438 17.292969 C 31.648438 16.3125 31.59375 15.332031 31.488281 14.359375 C 31.226562 12 29.914062 10.484375 27.65625 10 C 26.695312 9.808594 25.71875 9.71875 24.738281 9.722656 C 21.867188 9.6875 18.992188 9.691406 16.121094 9.722656 C 15.207031 9.726562 14.296875 9.808594 13.394531 9.960938 C 11.476562 10.304688 10.140625 11.394531 9.621094 13.316406 C 9.410156 14.097656 9.300781 14.90625 9.292969 15.714844 C 9.242188 19.046875 9.246094 22.375 9.253906 25.714844 C 9.261719 26.316406 9.304688 26.917969 9.382812 27.511719 C 9.660156 29.847656 10.984375 31.386719 13.230469 31.867188 C 14.179688 32.050781 15.144531 32.140625 16.109375 32.136719 C 18.96875 32.167969 21.828125 32.136719 24.691406 32.136719 C 25.460938 32.128906 26.230469 32.078125 26.992188 31.984375 C 28.496094 31.808594 29.792969 31.207031 30.648438 29.910156 C 31.238281 28.980469 31.550781 27.902344 31.554688 26.800781 C 31.628906 24.828125 31.648438 22.878906 31.691406 20.9375 Z M 31.691406 20.9375 "/>
<path style=" stroke:none;fill-rule:nonzero;fill:rgb(100%,100%,100%);fill-opacity:1;" d="M 27.480469 20.921875 C 27.472656 24.8125 24.308594 27.960938 20.417969 27.953125 C 16.523438 27.941406 13.378906 24.777344 13.390625 20.882812 C 13.40625 16.988281 16.574219 13.847656 20.46875 13.863281 C 24.339844 13.90625 27.460938 17.046875 27.480469 20.921875 Z M 24.992188 20.921875 C 25 18.40625 22.96875 16.363281 20.457031 16.351562 C 17.941406 16.339844 15.894531 18.367188 15.878906 20.878906 C 15.863281 23.394531 17.886719 25.445312 20.398438 25.464844 C 21.613281 25.480469 22.785156 25.007812 23.648438 24.152344 C 24.511719 23.296875 24.996094 22.132812 24.992188 20.914062 Z M 24.992188 20.921875 "/>
<path style=" stroke:none;fill-rule:nonzero;fill:rgb(100%,100%,100%);fill-opacity:1;" d="M 29.378906 13.601562 C 29.378906 14.503906 28.648438 15.238281 27.742188 15.246094 C 26.84375 15.222656 26.121094 14.5 26.097656 13.601562 C 26.109375 12.695312 26.847656 11.96875 27.753906 11.96875 C 28.1875 11.960938 28.605469 12.128906 28.914062 12.4375 C 29.21875 12.746094 29.390625 13.164062 29.378906 13.601562 Z M 29.378906 13.601562 "/>
</g>
</svg>
