<?xml version="1.0" encoding="UTF-8"?>
<svg xmlns="http://www.w3.org/2000/svg" xmlns:xlink="http://www.w3.org/1999/xlink" width="40pt" height="40pt" viewBox="0 0 40 40" version="1.1">
<g id="surface1">
<path style=" stroke:none;fill-rule:nonzero;fill:rgb(96.470588%,67.843137%,28.235294%);fill-opacity:1;" d="M 9.644531 0 L 30.355469 0 C 35.683594 0 40 4.316406 40 9.644531 L 40 30.355469 C 40 35.683594 35.683594 40 30.355469 40 L 9.644531 40 C 4.316406 40 0 35.683594 0 30.355469 L 0 9.644531 C 0 4.316406 4.316406 0 9.644531 0 Z M 9.644531 0 "/>
<path style=" stroke:none;fill-rule:nonzero;fill:rgb(100%,100%,100%);fill-opacity:1;" d="M 30.722656 12.367188 C 30.144531 12.144531 29.53125 12.019531 28.90625 12 C 27.554688 12 26.820312 12.800781 26.820312 14.703125 L 26.820312 16.175781 L 30.046875 16.175781 L 30.046875 19.738281 L 26.820312 19.738281 L 26.820312 33.382812 L 22.304688 33.382812 L 22.304688 19.738281 L 20 19.738281 L 20 16.398438 L 22.304688 16.214844 L 22.304688 14.800781 C 22.304688 11.199219 23.964844 8.441406 28.304688 8.441406 C 29.417969 8.441406 30.519531 8.652344 31.558594 9.050781 Z M 30.722656 12.367188 "/>
</g>
</svg>
