<?xml version="1.0" encoding="UTF-8"?>
<svg xmlns="http://www.w3.org/2000/svg" xmlns:xlink="http://www.w3.org/1999/xlink" width="40pt" height="40pt" viewBox="0 0 40 40" version="1.1">
<g id="surface1">
<path style=" stroke:none;fill-rule:nonzero;fill:rgb(96.470588%,67.843137%,28.235294%);fill-opacity:1;" d="M 9.644531 0 L 30.355469 0 C 35.683594 0 40 4.316406 40 9.644531 L 40 30.355469 C 40 35.683594 35.683594 40 30.355469 40 L 9.644531 40 C 4.316406 40 0 35.683594 0 30.355469 L 0 9.644531 C 0 4.316406 4.316406 0 9.644531 0 Z M 9.644531 0 "/>
<path style=" stroke:none;fill-rule:nonzero;fill:rgb(100%,100%,100%);fill-opacity:1;" d="M 35.40625 18.335938 L 35.40625 18.734375 L 35.300781 19.4375 C 35.230469 19.910156 35.195312 20.398438 35.089844 20.871094 C 34.558594 23.042969 33.417969 25.015625 31.800781 26.558594 C 28.960938 29.382812 25.78125 31.839844 22.328125 33.867188 C 21.441406 34.398438 20.523438 34.894531 19.601562 35.390625 C 19.285156 35.5625 18.914062 35.703125 18.601562 35.433594 C 18.285156 35.160156 18.421875 34.785156 18.535156 34.445312 C 18.601562 34.300781 18.65625 34.152344 18.703125 34 C 18.835938 33.269531 18.988281 32.535156 19.0625 31.796875 C 19.113281 31.34375 18.800781 31.074219 18.339844 31.03125 C 16.332031 30.878906 14.363281 30.378906 12.519531 29.558594 C 9.632812 28.246094 7.261719 26.359375 5.78125 23.472656 C 4.65625 21.367188 4.308594 18.933594 4.800781 16.601562 C 5.382812 13.800781 6.933594 11.621094 9.113281 9.867188 C 11.804688 7.734375 15.09375 6.484375 18.523438 6.292969 C 20.1875 6.15625 21.863281 6.253906 23.503906 6.574219 C 27.453125 7.371094 30.800781 9.164062 33.242188 12.398438 C 34.324219 13.796875 35.011719 15.453125 35.242188 17.199219 C 35.277344 17.566406 35.347656 17.953125 35.40625 18.335938 Z M 22.652344 19.027344 L 22.554688 19.074219 L 21.757812 17.984375 C 21.074219 17.054688 20.386719 16.121094 19.699219 15.183594 C 19.5 14.808594 19.0625 14.625 18.65625 14.753906 C 18.304688 14.859375 18.074219 15.1875 18.089844 15.550781 C 18.089844 17.550781 18.089844 19.550781 18.089844 21.550781 C 18.09375 21.804688 18.210938 22.039062 18.410156 22.195312 C 18.609375 22.351562 18.867188 22.410156 19.113281 22.351562 C 19.523438 22.242188 19.796875 21.851562 19.753906 21.429688 C 19.753906 20.730469 19.753906 20.03125 19.753906 19.335938 C 19.753906 18.886719 19.753906 18.441406 19.753906 17.992188 C 20.800781 19.292969 21.753906 20.601562 22.730469 21.90625 C 22.914062 22.273438 23.316406 22.472656 23.714844 22.398438 C 24.109375 22.273438 24.351562 21.878906 24.292969 21.46875 L 24.292969 15.640625 C 24.335938 15.320312 24.191406 15.003906 23.917969 14.828125 C 23.648438 14.652344 23.296875 14.652344 23.023438 14.828125 C 22.753906 15.003906 22.605469 15.320312 22.652344 15.640625 Z M 25.332031 18.457031 L 25.308594 18.457031 C 25.308594 19.484375 25.289062 20.507812 25.308594 21.535156 C 25.285156 21.777344 25.375 22.015625 25.550781 22.1875 C 25.726562 22.355469 25.972656 22.433594 26.210938 22.398438 L 29.136719 22.398438 C 29.359375 22.417969 29.578125 22.339844 29.742188 22.191406 C 29.90625 22.039062 30 21.824219 30 21.601562 C 30.007812 21.371094 29.917969 21.148438 29.753906 20.992188 C 29.589844 20.832031 29.363281 20.753906 29.136719 20.773438 C 28.734375 20.773438 28.371094 20.773438 27.992188 20.773438 C 26.949219 20.773438 26.957031 20.773438 26.976562 19.726562 C 26.976562 19.464844 27.070312 19.394531 27.324219 19.398438 C 27.929688 19.398438 28.523438 19.398438 29.140625 19.398438 C 29.371094 19.417969 29.59375 19.335938 29.761719 19.175781 C 29.925781 19.015625 30.011719 18.789062 30 18.558594 C 30.007812 18.339844 29.921875 18.128906 29.765625 17.976562 C 29.605469 17.820312 29.390625 17.742188 29.171875 17.761719 C 28.773438 17.761719 28.371094 17.761719 27.972656 17.761719 C 26.953125 17.761719 26.960938 17.761719 26.96875 16.738281 C 26.96875 16.457031 27.070312 16.378906 27.335938 16.382812 C 27.914062 16.382812 28.496094 16.382812 29.070312 16.382812 C 29.308594 16.40625 29.542969 16.332031 29.722656 16.171875 C 29.898438 16.011719 30 15.785156 30 15.546875 C 30.007812 15.3125 29.917969 15.085938 29.75 14.921875 C 29.582031 14.761719 29.355469 14.675781 29.121094 14.6875 C 28.160156 14.664062 27.195312 14.664062 26.234375 14.6875 C 25.980469 14.671875 25.734375 14.769531 25.558594 14.957031 C 25.386719 15.144531 25.308594 15.398438 25.34375 15.652344 C 25.328125 16.589844 25.332031 17.519531 25.332031 18.457031 Z M 9.941406 18.558594 C 9.941406 19.492188 9.941406 20.429688 9.941406 21.359375 C 9.941406 22.085938 10.261719 22.394531 10.96875 22.394531 L 13.726562 22.394531 C 13.960938 22.425781 14.191406 22.355469 14.371094 22.203125 C 14.546875 22.050781 14.652344 21.828125 14.65625 21.597656 C 14.648438 21.359375 14.542969 21.132812 14.367188 20.972656 C 14.1875 20.816406 13.953125 20.734375 13.714844 20.757812 C 13.175781 20.757812 12.636719 20.730469 12.097656 20.757812 C 11.738281 20.777344 11.621094 20.675781 11.625 20.304688 C 11.644531 19.066406 11.625 17.832031 11.625 16.597656 C 11.625 16.195312 11.625 15.796875 11.570312 15.394531 C 11.550781 15.035156 11.253906 14.753906 10.894531 14.753906 C 10.316406 14.691406 9.960938 15.050781 9.957031 15.730469 C 9.933594 16.664062 9.941406 17.601562 9.941406 18.558594 Z M 16.992188 18.492188 L 16.949219 18.492188 C 16.949219 17.503906 16.949219 16.515625 16.949219 15.527344 C 16.925781 15.132812 16.613281 14.816406 16.21875 14.78125 C 15.824219 14.746094 15.464844 15.003906 15.371094 15.386719 C 15.347656 15.503906 15.332031 15.621094 15.328125 15.738281 C 15.328125 17.621094 15.328125 19.503906 15.328125 21.386719 C 15.328125 21.976562 15.632812 22.363281 16.101562 22.394531 C 16.648438 22.4375 17 22.066406 17.003906 21.410156 C 17 20.441406 16.992188 19.464844 16.992188 18.492188 Z M 16.992188 18.492188 "/>
<path style=" stroke:none;fill-rule:nonzero;fill:rgb(96.470588%,67.843137%,28.235294%);fill-opacity:1;" d="M 22.652344 19.027344 L 22.652344 15.636719 C 22.605469 15.316406 22.753906 15 23.023438 14.824219 C 23.296875 14.648438 23.648438 14.648438 23.917969 14.824219 C 24.191406 15 24.335938 15.316406 24.292969 15.636719 L 24.292969 21.449219 C 24.363281 21.863281 24.117188 22.269531 23.714844 22.398438 C 23.320312 22.496094 22.910156 22.320312 22.703125 21.96875 C 21.734375 20.660156 20.773438 19.351562 19.722656 18.050781 C 19.722656 18.5 19.722656 18.949219 19.722656 19.394531 C 19.722656 20.09375 19.753906 20.792969 19.722656 21.488281 C 19.761719 21.902344 19.5 22.285156 19.101562 22.398438 C 18.855469 22.457031 18.597656 22.398438 18.398438 22.246094 C 18.199219 22.089844 18.082031 21.851562 18.074219 21.601562 C 18.074219 19.601562 18.074219 17.601562 18.074219 15.601562 C 18.058594 15.234375 18.292969 14.90625 18.644531 14.800781 C 19.042969 14.667969 19.480469 14.835938 19.6875 15.199219 C 20.375 16.128906 21.0625 17.0625 21.742188 18 L 22.542969 19.09375 Z M 22.652344 19.027344 "/>
<path style=" stroke:none;fill-rule:nonzero;fill:rgb(96.470588%,67.843137%,28.235294%);fill-opacity:1;" d="M 25.332031 18.457031 C 25.332031 17.519531 25.332031 16.589844 25.332031 15.65625 C 25.296875 15.402344 25.375 15.148438 25.546875 14.960938 C 25.722656 14.773438 25.96875 14.675781 26.222656 14.691406 C 27.183594 14.667969 28.148438 14.667969 29.109375 14.691406 C 29.34375 14.675781 29.574219 14.757812 29.746094 14.921875 C 29.914062 15.085938 30.007812 15.3125 30 15.546875 C 29.996094 15.78125 29.894531 16.003906 29.722656 16.160156 C 29.550781 16.316406 29.320312 16.394531 29.089844 16.375 C 28.511719 16.375 27.933594 16.375 27.351562 16.375 C 27.089844 16.375 26.984375 16.449219 26.984375 16.730469 C 26.984375 17.753906 26.984375 17.753906 27.988281 17.753906 C 28.386719 17.753906 28.789062 17.753906 29.1875 17.753906 C 29.40625 17.734375 29.621094 17.8125 29.78125 17.964844 C 29.9375 18.121094 30.023438 18.332031 30.015625 18.550781 C 30.027344 18.777344 29.9375 19 29.777344 19.15625 C 29.613281 19.316406 29.390625 19.398438 29.164062 19.382812 C 28.554688 19.382812 27.964844 19.382812 27.347656 19.382812 C 27.097656 19.382812 27.003906 19.449219 27 19.710938 C 26.980469 20.757812 26.972656 20.757812 28.015625 20.757812 C 28.414062 20.757812 28.78125 20.757812 29.160156 20.757812 C 29.386719 20.746094 29.609375 20.828125 29.769531 20.992188 C 29.929688 21.152344 30.011719 21.375 30 21.601562 C 30 21.824219 29.90625 22.035156 29.746094 22.1875 C 29.582031 22.339844 29.363281 22.417969 29.140625 22.398438 L 26.210938 22.398438 C 25.972656 22.429688 25.730469 22.351562 25.554688 22.183594 C 25.382812 22.019531 25.292969 21.78125 25.3125 21.539062 C 25.289062 20.511719 25.3125 19.488281 25.3125 18.460938 Z M 25.332031 18.457031 "/>
<path style=" stroke:none;fill-rule:nonzero;fill:rgb(96.470588%,67.843137%,28.235294%);fill-opacity:1;" d="M 9.941406 18.558594 C 9.941406 17.613281 9.941406 16.664062 9.941406 15.71875 C 9.941406 15.039062 10.300781 14.679688 10.878906 14.738281 C 11.238281 14.742188 11.535156 15.023438 11.554688 15.382812 C 11.601562 15.785156 11.605469 16.183594 11.609375 16.585938 C 11.609375 17.820312 11.632812 19.054688 11.609375 20.292969 C 11.609375 20.664062 11.722656 20.765625 12.078125 20.742188 C 12.621094 20.714844 13.160156 20.742188 13.699219 20.742188 C 13.941406 20.722656 14.179688 20.800781 14.363281 20.964844 C 14.542969 21.125 14.644531 21.355469 14.648438 21.601562 C 14.644531 21.832031 14.539062 22.054688 14.363281 22.207031 C 14.183594 22.359375 13.953125 22.429688 13.71875 22.398438 L 10.960938 22.398438 C 10.253906 22.398438 9.9375 22.089844 9.933594 21.363281 C 9.933594 20.433594 9.933594 19.496094 9.933594 18.5625 Z M 9.941406 18.558594 "/>
<path style=" stroke:none;fill-rule:nonzero;fill:rgb(96.470588%,67.843137%,28.235294%);fill-opacity:1;" d="M 16.992188 18.492188 C 16.992188 19.464844 16.992188 20.441406 16.992188 21.410156 C 16.992188 22.066406 16.636719 22.4375 16.089844 22.394531 C 15.621094 22.363281 15.316406 21.976562 15.316406 21.386719 C 15.316406 19.503906 15.316406 17.621094 15.316406 15.738281 C 15.320312 15.621094 15.335938 15.503906 15.359375 15.386719 C 15.453125 15.003906 15.8125 14.746094 16.207031 14.78125 C 16.601562 14.816406 16.910156 15.132812 16.9375 15.527344 C 16.9375 16.515625 16.9375 17.503906 16.9375 18.492188 Z M 16.992188 18.492188 "/>
</g>
</svg>
