<?xml version="1.0" encoding="UTF-8"?>
<svg xmlns="http://www.w3.org/2000/svg" xmlns:xlink="http://www.w3.org/1999/xlink" width="40pt" height="40pt" viewBox="0 0 40 40" version="1.1">
<g id="surface1">
<path style=" stroke:none;fill-rule:nonzero;fill:rgb(96.470588%,67.843137%,28.235294%);fill-opacity:1;" d="M 9.644531 0 L 30.355469 0 C 35.683594 0 40 4.316406 40 9.644531 L 40 30.355469 C 40 35.683594 35.683594 40 30.355469 40 L 9.644531 40 C 4.316406 40 0 35.683594 0 30.355469 L 0 9.644531 C 0 4.316406 4.316406 0 9.644531 0 Z M 9.644531 0 "/>
<path style=" stroke:none;fill-rule:nonzero;fill:rgb(100%,100%,100%);fill-opacity:1;" d="M 20 30.683594 C 18.101562 30.640625 16.195312 30.609375 14.296875 30.542969 C 13.144531 30.503906 11.992188 30.429688 10.84375 30.328125 C 10.261719 30.292969 9.679688 30.195312 9.117188 30.042969 C 7.859375 29.707031 6.910156 28.671875 6.675781 27.390625 C 6.449219 26.328125 6.316406 25.246094 6.277344 24.15625 C 6.210938 23.023438 6.164062 21.886719 6.164062 20.757812 C 6.152344 18.964844 6.261719 17.179688 6.496094 15.402344 C 6.554688 14.738281 6.726562 14.085938 7.003906 13.480469 C 7.535156 12.445312 8.546875 11.742188 9.699219 11.601562 C 11.117188 11.402344 12.542969 11.289062 13.972656 11.261719 C 15.703125 11.207031 17.4375 11.15625 19.171875 11.148438 C 21.0625 11.148438 22.953125 11.179688 24.839844 11.222656 C 25.988281 11.246094 27.132812 11.300781 28.277344 11.382812 C 29.074219 11.429688 29.867188 11.53125 30.652344 11.683594 C 32.027344 11.9375 33.101562 13.019531 33.34375 14.398438 C 33.570312 15.464844 33.703125 16.546875 33.742188 17.636719 C 33.804688 18.800781 33.855469 19.96875 33.855469 21.132812 C 33.867188 22.792969 33.765625 24.457031 33.554688 26.105469 C 33.492188 26.671875 33.378906 27.234375 33.210938 27.785156 C 32.863281 29.035156 31.800781 29.960938 30.511719 30.132812 C 29.371094 30.316406 28.210938 30.402344 27.054688 30.476562 C 25.648438 30.5625 24.257812 30.597656 22.828125 30.628906 C 21.875 30.652344 20.925781 30.628906 19.972656 30.628906 Z M 17.199219 25.027344 L 24.4375 20.886719 L 17.164062 16.753906 Z M 17.199219 25.027344 "/>
<path style=" stroke:none;fill-rule:nonzero;fill:rgb(96.470588%,67.843137%,28.235294%);fill-opacity:1;" d="M 17.164062 25.027344 L 17.164062 16.753906 L 24.4375 20.886719 Z M 17.164062 25.027344 "/>
</g>
</svg>
