<svg id="e06d9f71-112d-4890-a18f-8664a7029a2a" data-name="圖層 1" xmlns="http://www.w3.org/2000/svg" viewBox="0 0 33.1 33.1"><defs><style>.a07a4e87-6dfc-406c-9f51-5bf9d0c790ca{fill:#f5ac48;}.e6d40a69-af4c-45af-97d5-dcdec8003d39{fill:none;}.f6792e06-3150-4634-ab66-d91c9e242adb{fill:#fff;}</style></defs><title>1030-空間運用</title><circle class="a07a4e87-6dfc-406c-9f51-5bf9d0c790ca" cx="16.55" cy="16.55" r="16.55"/><path class="e6d40a69-af4c-45af-97d5-dcdec8003d39" d="M25.38,17l.64-.11.54,1.29A.85.85,0,1,0,25.38,17Z"/><path class="f6792e06-3150-4634-ab66-d91c9e242adb" d="M13.58,24.9H11.12a1.6,1.6,0,0,1-1.71-1.72q0-6.93,0-13.86a1.68,1.68,0,0,1,0-.45,1.58,1.58,0,0,1,1.61-1.26c3.21,0,6.43,0,9.64,0a1.69,1.69,0,0,1,1.75,1.76c0,1.52,0,2.41,0,3.94v.22a.8.8,0,0,0,.81.77A.79.79,0,0,0,24,13.5c0-1.69,0-2.75,0-4.44a3.14,3.14,0,0,0-2.4-2.95L21.18,6H10.66a6.33,6.33,0,0,0-1.09.36A3.07,3.07,0,0,0,7.81,9.08a1.92,1.92,0,0,0,0,.24c0,4.62,0,9.25,0,13.87a3.12,3.12,0,0,0,1.94,3,6.41,6.41,0,0,0,.91.27h3.2l0,0a.8.8,0,0,0-.31-1.57Z"/><path class="f6792e06-3150-4634-ab66-d91c9e242adb" d="M27.37,15.66a2.41,2.41,0,0,0-3.39,0L17.71,22a1,1,0,0,0-.24.41c-.32,1-.63,2-.93,3.05a1,1,0,0,0-.05.37.86.86,0,0,0,.61.72h.36l.11-.05,3-.84a1.18,1.18,0,0,0,.53-.28c1.46-1.44,4.84-4.81,6.28-6.27A2.39,2.39,0,0,0,27.37,15.66Zm-7,8.13a1.36,1.36,0,0,1-.72.42c-.39.09-.78.21-1.21.32.11-.34.22-.64.29-1a2,2,0,0,1,.62-1.05c.61-.58,2.28-2.25,3.41-3.38l1.13,1.12-2.55,2.55C21.05,23.14,20.71,23.45,20.4,23.79Zm5.71-5.73-.95,1L24,17.91l1-1a.81.81,0,0,1,1.26-.12A.82.82,0,0,1,26.11,18.06Z"/><path class="f6792e06-3150-4634-ab66-d91c9e242adb" d="M20.8,11.36a.8.8,0,0,0-.78-.55H11.91a1.27,1.27,0,0,0-.28,0,.79.79,0,0,0-.62.86.78.78,0,0,0,.79.72H20a1.2,1.2,0,0,0,.58-.18A.76.76,0,0,0,20.8,11.36Z"/><path class="f6792e06-3150-4634-ab66-d91c9e242adb" d="M20.84,14.85A.81.81,0,0,0,20,14H11.74a.78.78,0,0,0-.72.64.79.79,0,0,0,.81.95H20A.8.8,0,0,0,20.84,14.85Z"/><path class="f6792e06-3150-4634-ab66-d91c9e242adb" d="M14.32,17.21H11.86A.81.81,0,0,0,11,18a.8.8,0,0,0,.86.8c1.63,0,3.26,0,4.88,0a.8.8,0,0,0,.86-.8.81.81,0,0,0-.86-.8Z"/></svg>