<?xml version="1.0" encoding="UTF-8"?>
<svg xmlns="http://www.w3.org/2000/svg" xmlns:xlink="http://www.w3.org/1999/xlink" width="40pt" height="40pt" viewBox="0 0 40 40" version="1.1">
<g id="surface1">
<path style=" stroke:none;fill-rule:nonzero;fill:rgb(96.470588%,67.843137%,28.235294%);fill-opacity:1;" d="M 9.644531 0 L 30.355469 0 C 35.683594 0 40 4.316406 40 9.644531 L 40 30.355469 C 40 35.683594 35.683594 40 30.355469 40 L 9.644531 40 C 4.316406 40 0 35.683594 0 30.355469 L 0 9.644531 C 0 4.316406 4.316406 0 9.644531 0 Z M 9.644531 0 "/>
<path style=" stroke:none;fill-rule:nonzero;fill:rgb(100%,100%,100%);fill-opacity:1;" d="M 30.035156 27.625 L 9.964844 27.625 C 8.726562 27.625 7.71875 26.621094 7.71875 25.378906 L 7.71875 14.621094 C 7.71875 13.378906 8.726562 12.375 9.964844 12.375 L 30.035156 12.375 C 31.273438 12.375 32.28125 13.378906 32.28125 14.621094 L 32.28125 25.378906 C 32.28125 26.621094 31.273438 27.625 30.035156 27.625 Z M 9.964844 13.511719 C 9.351562 13.511719 8.855469 14.007812 8.855469 14.621094 L 8.855469 25.378906 C 8.855469 25.992188 9.351562 26.488281 9.964844 26.488281 L 30.035156 26.488281 C 30.648438 26.488281 31.144531 25.992188 31.148438 25.378906 L 31.148438 14.621094 C 31.144531 14.007812 30.648438 13.511719 30.035156 13.511719 Z M 9.964844 13.511719 "/>
<path style=" stroke:none;fill-rule:nonzero;fill:rgb(100%,100%,100%);fill-opacity:1;" d="M 22.472656 21.015625 L 23.152344 20.101562 L 31.410156 26.242188 L 30.730469 27.15625 Z M 22.472656 21.015625 "/>
<path style=" stroke:none;fill-rule:nonzero;fill:rgb(100%,100%,100%);fill-opacity:1;" d="M 8.585938 26.238281 L 16.820312 20.125 L 17.496094 21.035156 L 9.265625 27.152344 Z M 8.585938 26.238281 "/>
<path style=" stroke:none;fill-rule:nonzero;fill:rgb(100%,100%,100%);fill-opacity:1;" d="M 20 22.117188 C 19.082031 22.125 18.1875 21.84375 17.4375 21.316406 L 7.941406 13.960938 L 8.632812 13.058594 L 18.109375 20.398438 C 19.246094 21.210938 20.769531 21.210938 21.90625 20.398438 L 31.367188 13.058594 L 32.058594 13.960938 L 22.585938 21.285156 C 21.832031 21.824219 20.925781 22.117188 20 22.117188 Z M 20 22.117188 "/>
</g>
</svg>
