<svg id="e640c2fd-42f1-4a6e-b922-304759aab8de" data-name="圖層 1" xmlns="http://www.w3.org/2000/svg" xmlns:xlink="http://www.w3.org/1999/xlink" viewBox="0 0 411 64"><defs><style>.a16c25e1-3f74-4d1e-a7e1-3de528c394e5,.e806efe9-b4fb-4cf2-9b27-f823f00a9ab4{fill:none;}.ee6a098f-c1b3-42ff-ac83-6bfd0216ba58{clip-path:url(#e8d4edf4-b5aa-424c-bdec-833db35f7dba);}.a16c25e1-3f74-4d1e-a7e1-3de528c394e5{stroke:#81cde4;stroke-miterlimit:10;stroke-width:0.69px;}.f5d2f16b-694f-4aa6-8503-e968c5e6b6b5{clip-path:url(#b88ffedc-41d4-4eaa-8fbf-19cf9f5b1a96);}.f14aac53-977f-496f-b0ab-0a9f3b24e1e6{opacity:0.5;}.af5de09c-215a-4bda-a31f-3ef6902b2aa6{fill:#fff;}.af5de09c-215a-4bda-a31f-3ef6902b2aa6,.bb7e0f0e-a4fe-4b2d-a8ee-5eab2612f3db,.bfe36b61-5537-4267-a684-74fbef5e5117,.f14e0fa6-f78a-4af1-9a1c-05242508abc9{opacity:0.6;}.bb7e0f0e-a4fe-4b2d-a8ee-5eab2612f3db{fill:#1a88c5;}.bfe36b61-5537-4267-a684-74fbef5e5117{fill:#77c9d3;}.f14e0fa6-f78a-4af1-9a1c-05242508abc9{fill:#e84966;}</style><clipPath id="e8d4edf4-b5aa-424c-bdec-833db35f7dba"><rect class="e806efe9-b4fb-4cf2-9b27-f823f00a9ab4" y="-0.19" width="411" height="64.56"/></clipPath><clipPath id="b88ffedc-41d4-4eaa-8fbf-19cf9f5b1a96"><rect class="e806efe9-b4fb-4cf2-9b27-f823f00a9ab4" x="-466.39" y="386.22" width="411" height="190.44"/></clipPath></defs><title>首頁</title><g class="ee6a098f-c1b3-42ff-ac83-6bfd0216ba58"><line class="a16c25e1-3f74-4d1e-a7e1-3de528c394e5" x1="2.74" y1="-7.41" x2="-30.82" y2="83.51"/><line class="a16c25e1-3f74-4d1e-a7e1-3de528c394e5" x1="7.3" y1="-7.41" x2="-26.25" y2="83.51"/><line class="a16c25e1-3f74-4d1e-a7e1-3de528c394e5" x1="12.56" y1="-7.41" x2="-20.99" y2="83.51"/><line class="a16c25e1-3f74-4d1e-a7e1-3de528c394e5" x1="17.82" y1="-7.41" x2="-15.74" y2="83.51"/><line class="a16c25e1-3f74-4d1e-a7e1-3de528c394e5" x1="23.08" y1="-7.41" x2="-10.48" y2="83.51"/><line class="a16c25e1-3f74-4d1e-a7e1-3de528c394e5" x1="28.34" y1="-7.41" x2="-5.22" y2="83.51"/><line class="a16c25e1-3f74-4d1e-a7e1-3de528c394e5" x1="33.6" y1="-7.41" x2="0.04" y2="83.51"/><line class="a16c25e1-3f74-4d1e-a7e1-3de528c394e5" x1="38.86" y1="-7.41" x2="5.3" y2="83.51"/><line class="a16c25e1-3f74-4d1e-a7e1-3de528c394e5" x1="44.11" y1="-7.41" x2="10.56" y2="83.51"/><line class="a16c25e1-3f74-4d1e-a7e1-3de528c394e5" x1="49.37" y1="-7.41" x2="15.82" y2="83.51"/><line class="a16c25e1-3f74-4d1e-a7e1-3de528c394e5" x1="54.63" y1="-7.41" x2="21.07" y2="83.51"/><line class="a16c25e1-3f74-4d1e-a7e1-3de528c394e5" x1="59.89" y1="-7.41" x2="26.33" y2="83.51"/><line class="a16c25e1-3f74-4d1e-a7e1-3de528c394e5" x1="65.15" y1="-7.41" x2="31.59" y2="83.51"/><line class="a16c25e1-3f74-4d1e-a7e1-3de528c394e5" x1="70.41" y1="-7.41" x2="36.85" y2="83.51"/><line class="a16c25e1-3f74-4d1e-a7e1-3de528c394e5" x1="75.67" y1="-7.41" x2="42.11" y2="83.51"/><line class="a16c25e1-3f74-4d1e-a7e1-3de528c394e5" x1="80.92" y1="-7.41" x2="47.37" y2="83.51"/><line class="a16c25e1-3f74-4d1e-a7e1-3de528c394e5" x1="86.18" y1="-7.41" x2="52.63" y2="83.51"/><line class="a16c25e1-3f74-4d1e-a7e1-3de528c394e5" x1="91.44" y1="-7.41" x2="57.89" y2="83.51"/><line class="a16c25e1-3f74-4d1e-a7e1-3de528c394e5" x1="96.7" y1="-7.41" x2="63.14" y2="83.51"/><line class="a16c25e1-3f74-4d1e-a7e1-3de528c394e5" x1="101.96" y1="-7.41" x2="68.4" y2="83.51"/><line class="a16c25e1-3f74-4d1e-a7e1-3de528c394e5" x1="107.22" y1="-7.41" x2="73.66" y2="83.51"/><line class="a16c25e1-3f74-4d1e-a7e1-3de528c394e5" x1="112.48" y1="-7.41" x2="78.92" y2="83.51"/><line class="a16c25e1-3f74-4d1e-a7e1-3de528c394e5" x1="117.74" y1="-7.41" x2="84.18" y2="83.51"/><line class="a16c25e1-3f74-4d1e-a7e1-3de528c394e5" x1="122.99" y1="-7.41" x2="89.44" y2="83.51"/><line class="a16c25e1-3f74-4d1e-a7e1-3de528c394e5" x1="128.25" y1="-7.41" x2="94.7" y2="83.51"/><line class="a16c25e1-3f74-4d1e-a7e1-3de528c394e5" x1="133.51" y1="-7.41" x2="99.95" y2="83.51"/><line class="a16c25e1-3f74-4d1e-a7e1-3de528c394e5" x1="138.77" y1="-7.41" x2="105.21" y2="83.51"/><line class="a16c25e1-3f74-4d1e-a7e1-3de528c394e5" x1="144.03" y1="-7.41" x2="110.47" y2="83.51"/><line class="a16c25e1-3f74-4d1e-a7e1-3de528c394e5" x1="149.29" y1="-7.41" x2="115.73" y2="83.51"/><line class="a16c25e1-3f74-4d1e-a7e1-3de528c394e5" x1="154.55" y1="-7.41" x2="120.99" y2="83.51"/><line class="a16c25e1-3f74-4d1e-a7e1-3de528c394e5" x1="159.8" y1="-7.41" x2="126.25" y2="83.51"/><line class="a16c25e1-3f74-4d1e-a7e1-3de528c394e5" x1="165.06" y1="-7.41" x2="131.51" y2="83.51"/><line class="a16c25e1-3f74-4d1e-a7e1-3de528c394e5" x1="170.32" y1="-7.41" x2="136.76" y2="83.51"/><line class="a16c25e1-3f74-4d1e-a7e1-3de528c394e5" x1="175.58" y1="-7.41" x2="142.02" y2="83.51"/><line class="a16c25e1-3f74-4d1e-a7e1-3de528c394e5" x1="180.84" y1="-7.41" x2="147.28" y2="83.51"/><line class="a16c25e1-3f74-4d1e-a7e1-3de528c394e5" x1="186.1" y1="-7.41" x2="152.54" y2="83.51"/><line class="a16c25e1-3f74-4d1e-a7e1-3de528c394e5" x1="191.36" y1="-7.41" x2="157.8" y2="83.51"/><line class="a16c25e1-3f74-4d1e-a7e1-3de528c394e5" x1="196.62" y1="-7.41" x2="163.06" y2="83.51"/><line class="a16c25e1-3f74-4d1e-a7e1-3de528c394e5" x1="201.87" y1="-7.41" x2="168.32" y2="83.51"/><line class="a16c25e1-3f74-4d1e-a7e1-3de528c394e5" x1="207.13" y1="-7.41" x2="173.58" y2="83.51"/><line class="a16c25e1-3f74-4d1e-a7e1-3de528c394e5" x1="212.39" y1="-7.41" x2="178.83" y2="83.51"/><line class="a16c25e1-3f74-4d1e-a7e1-3de528c394e5" x1="217.65" y1="-7.41" x2="184.09" y2="83.51"/><line class="a16c25e1-3f74-4d1e-a7e1-3de528c394e5" x1="222.91" y1="-7.41" x2="189.35" y2="83.51"/><line class="a16c25e1-3f74-4d1e-a7e1-3de528c394e5" x1="228.17" y1="-7.41" x2="194.61" y2="83.51"/><line class="a16c25e1-3f74-4d1e-a7e1-3de528c394e5" x1="233.43" y1="-7.41" x2="199.87" y2="83.51"/><line class="a16c25e1-3f74-4d1e-a7e1-3de528c394e5" x1="238.68" y1="-7.41" x2="205.13" y2="83.51"/><line class="a16c25e1-3f74-4d1e-a7e1-3de528c394e5" x1="243.94" y1="-7.41" x2="210.39" y2="83.51"/><line class="a16c25e1-3f74-4d1e-a7e1-3de528c394e5" x1="249.2" y1="-7.41" x2="215.64" y2="83.51"/><line class="a16c25e1-3f74-4d1e-a7e1-3de528c394e5" x1="254.46" y1="-7.41" x2="220.9" y2="83.51"/><line class="a16c25e1-3f74-4d1e-a7e1-3de528c394e5" x1="259.72" y1="-7.41" x2="226.16" y2="83.51"/><line class="a16c25e1-3f74-4d1e-a7e1-3de528c394e5" x1="264.98" y1="-7.41" x2="231.42" y2="83.51"/><line class="a16c25e1-3f74-4d1e-a7e1-3de528c394e5" x1="270.24" y1="-7.41" x2="236.68" y2="83.51"/><line class="a16c25e1-3f74-4d1e-a7e1-3de528c394e5" x1="275.5" y1="-7.41" x2="241.94" y2="83.51"/><line class="a16c25e1-3f74-4d1e-a7e1-3de528c394e5" x1="280.75" y1="-7.41" x2="247.2" y2="83.51"/><line class="a16c25e1-3f74-4d1e-a7e1-3de528c394e5" x1="286.01" y1="-7.41" x2="252.46" y2="83.51"/><line class="a16c25e1-3f74-4d1e-a7e1-3de528c394e5" x1="291.27" y1="-7.41" x2="257.71" y2="83.51"/><line class="a16c25e1-3f74-4d1e-a7e1-3de528c394e5" x1="296.53" y1="-7.41" x2="262.97" y2="83.51"/><line class="a16c25e1-3f74-4d1e-a7e1-3de528c394e5" x1="301.79" y1="-7.41" x2="268.23" y2="83.51"/><line class="a16c25e1-3f74-4d1e-a7e1-3de528c394e5" x1="307.05" y1="-7.41" x2="273.49" y2="83.51"/><line class="a16c25e1-3f74-4d1e-a7e1-3de528c394e5" x1="312.31" y1="-7.41" x2="278.75" y2="83.51"/><line class="a16c25e1-3f74-4d1e-a7e1-3de528c394e5" x1="317.56" y1="-7.41" x2="284.01" y2="83.51"/><line class="a16c25e1-3f74-4d1e-a7e1-3de528c394e5" x1="322.82" y1="-7.41" x2="289.27" y2="83.51"/><line class="a16c25e1-3f74-4d1e-a7e1-3de528c394e5" x1="328.08" y1="-7.41" x2="294.52" y2="83.51"/><line class="a16c25e1-3f74-4d1e-a7e1-3de528c394e5" x1="333.34" y1="-7.41" x2="299.78" y2="83.51"/><line class="a16c25e1-3f74-4d1e-a7e1-3de528c394e5" x1="338.6" y1="-7.41" x2="305.04" y2="83.51"/><line class="a16c25e1-3f74-4d1e-a7e1-3de528c394e5" x1="343.86" y1="-7.41" x2="310.3" y2="83.51"/><line class="a16c25e1-3f74-4d1e-a7e1-3de528c394e5" x1="349.12" y1="-7.41" x2="315.56" y2="83.51"/><line class="a16c25e1-3f74-4d1e-a7e1-3de528c394e5" x1="354.37" y1="-7.41" x2="320.82" y2="83.51"/><line class="a16c25e1-3f74-4d1e-a7e1-3de528c394e5" x1="359.63" y1="-7.41" x2="326.08" y2="83.51"/><line class="a16c25e1-3f74-4d1e-a7e1-3de528c394e5" x1="364.89" y1="-7.41" x2="331.33" y2="83.51"/><line class="a16c25e1-3f74-4d1e-a7e1-3de528c394e5" x1="370.15" y1="-7.41" x2="336.59" y2="83.51"/><line class="a16c25e1-3f74-4d1e-a7e1-3de528c394e5" x1="375.41" y1="-7.41" x2="341.85" y2="83.51"/><line class="a16c25e1-3f74-4d1e-a7e1-3de528c394e5" x1="380.67" y1="-7.41" x2="347.11" y2="83.51"/><line class="a16c25e1-3f74-4d1e-a7e1-3de528c394e5" x1="385.93" y1="-7.41" x2="352.37" y2="83.51"/><line class="a16c25e1-3f74-4d1e-a7e1-3de528c394e5" x1="391.19" y1="-7.41" x2="357.63" y2="83.51"/><line class="a16c25e1-3f74-4d1e-a7e1-3de528c394e5" x1="396.44" y1="-7.41" x2="362.89" y2="83.51"/><line class="a16c25e1-3f74-4d1e-a7e1-3de528c394e5" x1="401.7" y1="-7.41" x2="368.15" y2="83.51"/><line class="a16c25e1-3f74-4d1e-a7e1-3de528c394e5" x1="406.96" y1="-7.41" x2="373.4" y2="83.51"/><line class="a16c25e1-3f74-4d1e-a7e1-3de528c394e5" x1="412.22" y1="-7.41" x2="378.66" y2="83.51"/><line class="a16c25e1-3f74-4d1e-a7e1-3de528c394e5" x1="417.48" y1="-7.41" x2="383.92" y2="83.51"/><line class="a16c25e1-3f74-4d1e-a7e1-3de528c394e5" x1="422.74" y1="-7.41" x2="389.18" y2="83.51"/><line class="a16c25e1-3f74-4d1e-a7e1-3de528c394e5" x1="428" y1="-7.41" x2="394.44" y2="83.51"/><line class="a16c25e1-3f74-4d1e-a7e1-3de528c394e5" x1="433.25" y1="-7.41" x2="399.7" y2="83.51"/><line class="a16c25e1-3f74-4d1e-a7e1-3de528c394e5" x1="438.51" y1="-7.41" x2="404.96" y2="83.51"/><line class="a16c25e1-3f74-4d1e-a7e1-3de528c394e5" x1="443.77" y1="-7.41" x2="410.21" y2="83.51"/></g><g class="f5d2f16b-694f-4aa6-8503-e968c5e6b6b5"><g class="f14aac53-977f-496f-b0ab-0a9f3b24e1e6"><path class="af5de09c-215a-4bda-a31f-3ef6902b2aa6" d="M30.4,32.17a.76.76,0,0,1-.76.77.77.77,0,1,1,0-1.53A.76.76,0,0,1,30.4,32.17Z"/><path class="bb7e0f0e-a4fe-4b2d-a8ee-5eab2612f3db" d="M75.94,21.75a.71.71,0,0,1-1.24-.7.71.71,0,1,1,1.24.7Z"/><path class="bb7e0f0e-a4fe-4b2d-a8ee-5eab2612f3db" d="M75.13,1.69A.71.71,0,1,1,73.89,1a.71.71,0,0,1,1.24.7Z"/><path class="bb7e0f0e-a4fe-4b2d-a8ee-5eab2612f3db" d="M39.52,12.36a.71.71,0,1,1-.71-.71A.71.71,0,0,1,39.52,12.36Z"/><path class="bfe36b61-5537-4267-a684-74fbef5e5117" d="M53.08,32.2A1.24,1.24,0,1,1,51.84,31,1.23,1.23,0,0,1,53.08,32.2Z"/><path class="bfe36b61-5537-4267-a684-74fbef5e5117" d="M60.56,44.77a.83.83,0,1,1-1.66,0,.83.83,0,1,1,1.66,0Z"/><path class="af5de09c-215a-4bda-a31f-3ef6902b2aa6" d="M26.45,36.66a.68.68,0,1,1-.68-.68A.69.69,0,0,1,26.45,36.66Z"/><path class="af5de09c-215a-4bda-a31f-3ef6902b2aa6" d="M11,22.1a.68.68,0,1,1-.67-.68A.68.68,0,0,1,11,22.1Z"/><path class="af5de09c-215a-4bda-a31f-3ef6902b2aa6" d="M25.43,43.34a.46.46,0,0,1-.92,0,.46.46,0,0,1,.92,0Z"/><path class="f14e0fa6-f78a-4af1-9a1c-05242508abc9" d="M50.86,44.36a.74.74,0,1,1-.74-.74A.74.74,0,0,1,50.86,44.36Z"/><circle class="bb7e0f0e-a4fe-4b2d-a8ee-5eab2612f3db" cx="161.56" cy="27.7" r="0.48"/><path class="bb7e0f0e-a4fe-4b2d-a8ee-5eab2612f3db" d="M60,56a.48.48,0,0,1,.48-.48.49.49,0,0,1,.48.48.48.48,0,0,1-.48.48A.47.47,0,0,1,60,56Z"/><path class="af5de09c-215a-4bda-a31f-3ef6902b2aa6" d="M46.67,61.7a.46.46,0,0,1,.91,0,.46.46,0,1,1-.91,0Z"/><path class="af5de09c-215a-4bda-a31f-3ef6902b2aa6" d="M124.08,49.52a.52.52,0,1,1-.52-.51A.52.52,0,0,1,124.08,49.52Z"/><path class="af5de09c-215a-4bda-a31f-3ef6902b2aa6" d="M127.86,62.26a.59.59,0,1,1-.59-.59A.58.58,0,0,1,127.86,62.26Z"/><path class="bb7e0f0e-a4fe-4b2d-a8ee-5eab2612f3db" d="M61.62,14a.47.47,0,0,1-.63.18.46.46,0,0,1-.18-.63.46.46,0,1,1,.81.45Z"/><path class="af5de09c-215a-4bda-a31f-3ef6902b2aa6" d="M86.39,47.75a.52.52,0,1,1-.9-.51.52.52,0,0,1,.7-.19A.51.51,0,0,1,86.39,47.75Z"/><path class="af5de09c-215a-4bda-a31f-3ef6902b2aa6" d="M137.34,1.56a.44.44,0,1,1,.44.44A.43.43,0,0,1,137.34,1.56Z"/><path class="af5de09c-215a-4bda-a31f-3ef6902b2aa6" d="M94.16,5.65a.43.43,0,0,1,.44-.43.44.44,0,1,1-.44.43Z"/><path class="bfe36b61-5537-4267-a684-74fbef5e5117" d="M129.69,5.68a.81.81,0,1,1,.8.8A.8.8,0,0,1,129.69,5.68Z"/><path class="f14e0fa6-f78a-4af1-9a1c-05242508abc9" d="M117.48,6.11a.72.72,0,1,1,.72.71A.71.71,0,0,1,117.48,6.11Z"/><path class="bb7e0f0e-a4fe-4b2d-a8ee-5eab2612f3db" d="M153,2.78A.41.41,0,1,1,153,2a.41.41,0,0,1,0,.81Z"/><path class="bb7e0f0e-a4fe-4b2d-a8ee-5eab2612f3db" d="M122.34,25.64a.41.41,0,1,1,.4-.4A.4.4,0,0,1,122.34,25.64Z"/><path class="bfe36b61-5537-4267-a684-74fbef5e5117" d="M111.09,33.32a.7.7,0,1,1,.7-.7A.7.7,0,0,1,111.09,33.32Z"/><path class="af5de09c-215a-4bda-a31f-3ef6902b2aa6" d="M157.74,14a.39.39,0,0,1-.38-.39.39.39,0,0,1,.77,0A.39.39,0,0,1,157.74,14Z"/><path class="af5de09c-215a-4bda-a31f-3ef6902b2aa6" d="M104.65,42.18a.38.38,0,1,1,0-.76.38.38,0,1,1,0,.76Z"/><path class="af5de09c-215a-4bda-a31f-3ef6902b2aa6" d="M125.49,33.73a.77.77,0,1,1,.77-.77A.77.77,0,0,1,125.49,33.73Z"/></g></g></svg>