<svg xmlns="http://www.w3.org/2000/svg" xmlns:xlink="http://www.w3.org/1999/xlink" viewBox="0 0 411 148"><defs><style>.a09b6199-8cb8-47ff-b57d-4e6b78b8bd49{fill:none;}.f2eb5c2c-5c20-4807-a92b-702d6dca8a87{isolation:isolate;}.b046a167-96fa-41d2-85c4-cc02eaa39653{clip-path:url(#a81ca379-f4fa-4956-a09e-3aea91dad78f);}.a0090bbb-f423-4ff6-a5a4-729ffa3f371c{fill:#77c9d3;}.a0090bbb-f423-4ff6-a5a4-729ffa3f371c,.a72226e6-0cc3-492b-b629-74836175c75b,.be2c6f9a-fde2-4147-838e-7deb4f64d909,.fd3539f8-a32d-4302-9a8d-0f5f5bcfb212{opacity:0.6;}.a72226e6-0cc3-492b-b629-74836175c75b,.a9a979b1-9b88-4a7b-9db3-142697416e95,.ad5698c0-f868-4178-9cb9-a9aa2e8583c9,.b747e693-3f02-439b-afe7-94986294e670,.ba23485e-e06e-486a-aac7-42cc3c7f2db5,.f5963747-5263-4171-aa01-84043100556b,.fd231263-d251-41d4-a42d-1cacff835440{fill:#fff;}.fd3539f8-a32d-4302-9a8d-0f5f5bcfb212{fill:#1a88c5;}.be2c6f9a-fde2-4147-838e-7deb4f64d909{fill:#e84966;}.a94f1654-cf8b-4ff1-ae1e-136dec683fab,.be2f0cd2-d19c-4575-89be-e636c91a04f4{fill:#f5f7f7;}.b82a26c3-5fe2-4a99-90ae-90fd1544666c{fill:#1d234d;}.b747e693-3f02-439b-afe7-94986294e670,.fd231263-d251-41d4-a42d-1cacff835440{font-size:9px;}.a9a979b1-9b88-4a7b-9db3-142697416e95,.ad5698c0-f868-4178-9cb9-a9aa2e8583c9,.b747e693-3f02-439b-afe7-94986294e670,.ba23485e-e06e-486a-aac7-42cc3c7f2db5,.f5963747-5263-4171-aa01-84043100556b,.fd231263-d251-41d4-a42d-1cacff835440{font-family:GenJyuuGothic-P-Regular, Gen Jyuu Gothic P;}.b747e693-3f02-439b-afe7-94986294e670{letter-spacing:0.04em;}.fd231263-d251-41d4-a42d-1cacff835440{letter-spacing:0.04em;}.a9a979b1-9b88-4a7b-9db3-142697416e95,.ba23485e-e06e-486a-aac7-42cc3c7f2db5,.f5963747-5263-4171-aa01-84043100556b{font-size:7.14px;}.a9a979b1-9b88-4a7b-9db3-142697416e95{letter-spacing:0.04em;}.ba23485e-e06e-486a-aac7-42cc3c7f2db5{letter-spacing:0.02em;}.a6bdcfa8-302e-4bba-9218-28da5f40e7dc,.f5963747-5263-4171-aa01-84043100556b{letter-spacing:0.04em;}.e1532e70-3e43-49c8-9ae8-fb4f5ba6fab1{font-family:NotoSansHant-Regular-B5pc-H, Noto Sans T Chinese;letter-spacing:0.04em;}.a4f0b459-6c12-497b-87c1-3bea94987b41{fill:#ec6548;}.f24b967b-a2fa-4d17-b267-d3f46906a283{fill:#8193ca;}.bb57f584-1127-48b1-a234-5183f54c2e54{fill:#ebe7f3;}.f71649e7-c191-4e30-971b-bcc635cc6502{fill:#a9b3db;}.bc7dc166-4e16-45d6-9fa9-7e6afe3d514c{fill:#cec3e0;}.aa619d02-fc89-465c-b521-0a5fb01b390d{fill:#f4a76a;}.e98bf3ef-b451-487e-bde6-3bb9ce886b8a{fill:#934897;}.f96ac9c0-8a91-44f4-ad73-a47f0abf6515{fill:#7a1385;}.ba28cbf2-fe7d-4c2f-b500-d4b0ec710d19{fill:#312873;}.ecd7b62a-8f6b-4b31-8d38-f746d94c88f8{fill:#e2daec;}.f6a6329e-1626-4204-9fb3-7ec9e1fead53{fill:#00ac8a;}.e278611c-ded1-4f3b-ad2b-8986bb1a48d6{fill:#0c152e;}.a75fc756-c75e-4a9a-8d72-b9b291f199d5{clip-path:url(#abd24b84-9412-463e-bc7c-339188386f1a);}.abf8b516-a962-4880-8f4d-efe50d2e5a93{fill:#f49b17;}.f144597a-ebad-47aa-898d-1b55a03004ca{fill:#c9caca;}.a37b56b2-3aca-4310-a227-2aa0ee825126,.ae88d73c-6d79-45d3-bad8-f0f7c7d39a6c{fill:#e6e6e5;}.f204f06c-bdf3-44a8-a356-f1f13c837774{fill:#2a2b2b;}.f3f29249-1605-4510-9c0c-8909bd73163d{fill:#344c5b;}.a37b56b2-3aca-4310-a227-2aa0ee825126{mix-blend-mode:multiply;}.a79a0713-bc87-44f3-8b3b-25640432bc13{fill:#e5c24f;}.a64783dc-d1db-4a72-90b7-c668ecbd3446{fill:#d35a48;}.b304334c-a7a6-4ffd-bbcd-a67efae66899{fill:#221938;}.a94f1654-cf8b-4ff1-ae1e-136dec683fab,.bfecb88a-f076-4ba0-b1c3-7fc4323e0d30{opacity:0.5;}.a94f1654-cf8b-4ff1-ae1e-136dec683fab{mix-blend-mode:lighten;}.fdca61d8-59ec-4e63-8b33-ac8afc8dc8d4{fill:#dbd7d5;opacity:0.2;}.ad5698c0-f868-4178-9cb9-a9aa2e8583c9{font-size:11.3px;letter-spacing:0.05em;}.a9e74f06-9f05-4146-aa06-d77494a22add{clip-path:url(#b6d70b40-1af1-4337-a146-e2b42a679e0c);}</style><clipPath id="a81ca379-f4fa-4956-a09e-3aea91dad78f"><rect class="a09b6199-8cb8-47ff-b57d-4e6b78b8bd49" y="-677" width="412" height="613"/></clipPath><clipPath id="abd24b84-9412-463e-bc7c-339188386f1a"><path class="a09b6199-8cb8-47ff-b57d-4e6b78b8bd49" d="M378.88,120.11h0a8.62,8.62,0,0,1,8.61,8.61V131l-2.15,3.74,2.15,3.54v4.52H370.28V128.72A8.61,8.61,0,0,1,378.88,120.11Z"/></clipPath><clipPath id="b6d70b40-1af1-4337-a146-e2b42a679e0c"><rect class="a09b6199-8cb8-47ff-b57d-4e6b78b8bd49" x="-0.09" y="171.29" width="411" height="190.71"/></clipPath></defs><title>網站底圖</title><g class="f2eb5c2c-5c20-4807-a92b-702d6dca8a87"><g id="b6bf1ac4-a180-4f32-9ad4-b672604d8a56" data-name="圖層 1"><g class="b046a167-96fa-41d2-85c4-cc02eaa39653"><path class="a0090bbb-f423-4ff6-a5a4-729ffa3f371c" d="M373.61,24.53a1.81,1.81,0,1,1-1.81-1.81A1.81,1.81,0,0,1,373.61,24.53Z"/><path class="a72226e6-0cc3-492b-b629-74836175c75b" d="M392,80.89a1,1,0,1,1-1.73-1,1,1,0,1,1,1.73,1Z"/><path class="fd3539f8-a32d-4302-9a8d-0f5f5bcfb212" d="M382.3,118a.78.78,0,0,1,0-1.55.78.78,0,1,1,0,1.55Z"/><path class="be2c6f9a-fde2-4147-838e-7deb4f64d909" d="M124.47,70.38A2.41,2.41,0,1,1,122.06,68,2.41,2.41,0,0,1,124.47,70.38Z"/><path class="a72226e6-0cc3-492b-b629-74836175c75b" d="M117.44,0a1.47,1.47,0,1,1-2.94,0,1.47,1.47,0,0,1,2.94,0Z"/><path class="fd3539f8-a32d-4302-9a8d-0f5f5bcfb212" d="M258.49,142.28a1.37,1.37,0,1,1,1.37,1.37A1.36,1.36,0,0,1,258.49,142.28Z"/><path class="fd3539f8-a32d-4302-9a8d-0f5f5bcfb212" d="M27.79,23.4a.92.92,0,1,1-.92-.92A.92.92,0,0,1,27.79,23.4Z"/><path class="a0090bbb-f423-4ff6-a5a4-729ffa3f371c" d="M160.92.08a2.37,2.37,0,1,1-4.74,0,2.37,2.37,0,1,1,4.74,0Z"/><path class="a0090bbb-f423-4ff6-a5a4-729ffa3f371c" d="M175.28,24.18a1.6,1.6,0,1,1-1.6-1.6A1.6,1.6,0,0,1,175.28,24.18Z"/><path class="a72226e6-0cc3-492b-b629-74836175c75b" d="M109.85,8.64a1.3,1.3,0,1,1-1.3-1.3A1.3,1.3,0,0,1,109.85,8.64Z"/><path class="a72226e6-0cc3-492b-b629-74836175c75b" d="M107.89,21.44a.88.88,0,1,1-.88-.87A.87.87,0,0,1,107.89,21.44Z"/><path class="be2c6f9a-fde2-4147-838e-7deb4f64d909" d="M156.67,23.4A1.42,1.42,0,1,1,155.25,22,1.43,1.43,0,0,1,156.67,23.4Z"/><path class="a0090bbb-f423-4ff6-a5a4-729ffa3f371c" d="M107.71,101a1.6,1.6,0,1,1,1.6,1.6A1.6,1.6,0,0,1,107.71,101Z"/><path class="a0090bbb-f423-4ff6-a5a4-729ffa3f371c" d="M20.11,83.58a1.6,1.6,0,1,1,1.6,1.6A1.6,1.6,0,0,1,20.11,83.58Z"/><path class="a72226e6-0cc3-492b-b629-74836175c75b" d="M142.14,95.23a.87.87,0,1,1,.87.88A.87.87,0,0,1,142.14,95.23Z"/><path class="a72226e6-0cc3-492b-b629-74836175c75b" d="M141.66,123a.88.88,0,1,1,.87.87A.88.88,0,0,1,141.66,123Z"/><path class="a72226e6-0cc3-492b-b629-74836175c75b" d="M87.5,86.32a.88.88,0,1,1,.88.87A.87.87,0,0,1,87.5,86.32Z"/><path class="a72226e6-0cc3-492b-b629-74836175c75b" d="M4.07,142.55a2,2,0,1,1,2,2A2,2,0,0,1,4.07,142.55Z"/><path class="a0090bbb-f423-4ff6-a5a4-729ffa3f371c" d="M53.38,96.88a1.6,1.6,0,1,1,1.6,1.6A1.6,1.6,0,0,1,53.38,96.88Z"/><path class="be2c6f9a-fde2-4147-838e-7deb4f64d909" d="M64,72.17a1.42,1.42,0,1,1,1.42,1.42A1.42,1.42,0,0,1,64,72.17Z"/><path class="a72226e6-0cc3-492b-b629-74836175c75b" d="M173.15,72.17a1.47,1.47,0,1,1,1.47,1.46A1.47,1.47,0,0,1,173.15,72.17Z"/><path class="a72226e6-0cc3-492b-b629-74836175c75b" d="M199.17,136.28a1.75,1.75,0,1,1-.67-2.38A1.75,1.75,0,0,1,199.17,136.28Z"/><path class="fd3539f8-a32d-4302-9a8d-0f5f5bcfb212" d="M174.09,45.79a.93.93,0,1,1,.93.92A.93.93,0,0,1,174.09,45.79Z"/><path class="fd3539f8-a32d-4302-9a8d-0f5f5bcfb212" d="M187.6,74a.93.93,0,1,1,.92.92A.92.92,0,0,1,187.6,74Z"/><circle class="a0090bbb-f423-4ff6-a5a4-729ffa3f371c" cx="302.49" cy="124.34" r="1.6"/><path class="a0090bbb-f423-4ff6-a5a4-729ffa3f371c" d="M236.28,100.86a1.6,1.6,0,1,1,1.6,1.6A1.6,1.6,0,0,1,236.28,100.86Z"/><path class="a72226e6-0cc3-492b-b629-74836175c75b" d="M148.63,56.66a.88.88,0,0,1,1.75,0,.88.88,0,1,1-1.75,0Z"/><path class="a72226e6-0cc3-492b-b629-74836175c75b" d="M280.69,109.65a.87.87,0,1,1,.87.88A.87.87,0,0,1,280.69,109.65Z"/><path class="a72226e6-0cc3-492b-b629-74836175c75b" d="M198.77,108.73a1,1,0,1,1,1,1A1,1,0,0,1,198.77,108.73Z"/><path class="a0090bbb-f423-4ff6-a5a4-729ffa3f371c" d="M246.57,120.22a1.6,1.6,0,1,1,1.6,1.6A1.6,1.6,0,0,1,246.57,120.22Z"/><path class="be2c6f9a-fde2-4147-838e-7deb4f64d909" d="M318.42,99.25a1.42,1.42,0,1,1,1.42,1.43A1.42,1.42,0,0,1,318.42,99.25Z"/><path class="fd3539f8-a32d-4302-9a8d-0f5f5bcfb212" d="M50.7,146.11a.92.92,0,1,1,.92-.92A.92.92,0,0,1,50.7,146.11Z"/><path class="a72226e6-0cc3-492b-b629-74836175c75b" d="M118.22,145.35a1,1,0,1,1,1-1A1,1,0,0,1,118.22,145.35Z"/><path class="fd3539f8-a32d-4302-9a8d-0f5f5bcfb212" d="M352.26,68.32a1,1,0,0,1-2.09,0,1,1,0,1,1,2.09,0Z"/><path class="fd3539f8-a32d-4302-9a8d-0f5f5bcfb212" d="M310.77,69.2a1,1,0,1,1-1-1A1,1,0,0,1,310.77,69.2Z"/><path class="a72226e6-0cc3-492b-b629-74836175c75b" d="M297.09,33.3a1,1,0,1,1-1-1A1,1,0,0,1,297.09,33.3Z"/><path class="a72226e6-0cc3-492b-b629-74836175c75b" d="M304.34,57.73a1.12,1.12,0,1,1-1.12-1.12A1.12,1.12,0,0,1,304.34,57.73Z"/><path class="a72226e6-0cc3-492b-b629-74836175c75b" d="M241.52,78.05a1,1,0,0,1-2,0,1,1,0,0,1,2,0Z"/><path class="be2c6f9a-fde2-4147-838e-7deb4f64d909" d="M259.27,85.29a1.61,1.61,0,1,1-1.61-1.62A1.61,1.61,0,0,1,259.27,85.29Z"/><path class="a72226e6-0cc3-492b-b629-74836175c75b" d="M224.8,29.91a1,1,0,1,1-.37-1.35A1,1,0,0,1,224.8,29.91Z"/><path class="a0090bbb-f423-4ff6-a5a4-729ffa3f371c" d="M272.18,2.24A1.35,1.35,0,1,1,273.53.89,1.34,1.34,0,0,1,272.18,2.24Z"/><path class="a72226e6-0cc3-492b-b629-74836175c75b" d="M259.83,19.23a.74.74,0,1,1,.74-.74A.74.74,0,0,1,259.83,19.23Z"/><path class="a72226e6-0cc3-492b-b629-74836175c75b" d="M299.8,3a1.47,1.47,0,1,1,1.47-1.47A1.47,1.47,0,0,1,299.8,3Z"/></g><path class="be2f0cd2-d19c-4575-89be-e636c91a04f4" d="M288,72.38H262.29a4.86,4.86,0,0,0,0,9.72H288a4.86,4.86,0,1,0,0-9.72Z"/><rect class="b82a26c3-5fe2-4a99-90ae-90fd1544666c" x="-0.18" y="16.03" width="411.18" height="131.93"/><text class="b747e693-3f02-439b-afe7-94986294e670" transform="translate(311.75 37.61)">友站連結</text><text class="b747e693-3f02-439b-afe7-94986294e670" transform="translate(258.64 37.61)">會員專區</text><text class="b747e693-3f02-439b-afe7-94986294e670" transform="translate(205.54 37.61)">職場情報</text><text class="fd231263-d251-41d4-a42d-1cacff835440" transform="translate(152.43 37.61)">線上預約</text><text class="fd231263-d251-41d4-a42d-1cacff835440" transform="translate(99.32 37.61)">最新消息</text><text class="fd231263-d251-41d4-a42d-1cacff835440" transform="translate(46.22 37.61)">關於我們</text><text class="a9a979b1-9b88-4a7b-9db3-142697416e95" transform="translate(50.04 57.06)">服務內容</text><text class="a9a979b1-9b88-4a7b-9db3-142697416e95" transform="translate(50.04 74.83)">空間介紹</text><text class="a9a979b1-9b88-4a7b-9db3-142697416e95" transform="translate(50.04 92.6)">聯絡我們</text><text class="ba23485e-e06e-486a-aac7-42cc3c7f2db5" transform="translate(49.5 110.37)">Y<tspan class="a6bdcfa8-302e-4bba-9218-28da5f40e7dc" x="3.96" y="0">S微電影</tspan></text><text class="ba23485e-e06e-486a-aac7-42cc3c7f2db5" transform="translate(98.9 57.06)">Y<tspan class="a6bdcfa8-302e-4bba-9218-28da5f40e7dc" x="3.96" y="0">S新聞快訊</tspan></text><text class="a9a979b1-9b88-4a7b-9db3-142697416e95" transform="translate(103.15 74.83)">活動預告</text><text class="a9a979b1-9b88-4a7b-9db3-142697416e95" transform="translate(103.15 92.6)">活動花絮</text><text class="a9a979b1-9b88-4a7b-9db3-142697416e95" transform="translate(156.27 57.06)">活動報名</text><text class="a9a979b1-9b88-4a7b-9db3-142697416e95" transform="translate(156.27 74.83)">預約諮詢</text><text class="a9a979b1-9b88-4a7b-9db3-142697416e95" transform="translate(156.27 92.6)">空間運用</text><text class="a9a979b1-9b88-4a7b-9db3-142697416e95" transform="translate(156.27 110.37)">參訪申請</text><text class="f5963747-5263-4171-aa01-84043100556b" transform="translate(209.38 57.06)">職場新聞</text><text class="f5963747-5263-4171-aa01-84043100556b" transform="translate(209.38 74.83)">求職技巧</text><text class="f5963747-5263-4171-aa01-84043100556b" transform="translate(209.38 92.6)">達人專訪</text><text class="a9a979b1-9b88-4a7b-9db3-142697416e95" transform="translate(205.89 110.37)">青年說BAR</text><text class="f5963747-5263-4171-aa01-84043100556b" transform="translate(209.38 128.14)">職訓資源</text><text class="f5963747-5263-4171-aa01-84043100556b" transform="translate(262.49 57.06)">基本資料</text><text class="f5963747-5263-4171-aa01-84043100556b" transform="translate(262.49 74.83)">報名狀態</text><text class="f5963747-5263-4171-aa01-84043100556b" transform="translate(262.49 92.6)">活動足跡</text><text class="f5963747-5263-4171-aa01-84043100556b" transform="translate(311.9 128.14)">台灣就業通</text><text class="f5963747-5263-4171-aa01-84043100556b" transform="translate(308.19 74.83)">勞動部粉絲團</text><text class="f5963747-5263-4171-aa01-84043100556b" transform="translate(319.32 57.06)">勞動部</text><text class="f5963747-5263-4171-aa01-84043100556b" transform="translate(315.61 92.6)">分署官網</text><text class="f5963747-5263-4171-aa01-84043100556b" transform="translate(308.19 110.37)">賈<tspan class="e1532e70-3e43-49c8-9ae8-fb4f5ba6fab1" x="7.42" y="0">萳</tspan><tspan x="14.84" y="0">妮粉絲團</tspan></text><rect class="a4f0b459-6c12-497b-87c1-3bea94987b41" x="367.94" y="127.45" width="1.09" height="1.87"/><rect class="f24b967b-a2fa-4d17-b267-d3f46906a283" x="391.33" y="117.62" width="0.85" height="9.31"/><path class="bb57f584-1127-48b1-a234-5183f54c2e54" d="M391.75,126.3a4.37,4.37,0,0,0-4.36,4.37v3.91l5.27-3.46Z"/><path class="f71649e7-c191-4e30-971b-bcc635cc6502" d="M395.27,128.09a4.35,4.35,0,0,0-3.52-1.79v6.45Z"/><polygon class="f71649e7-c191-4e30-971b-bcc635cc6502" points="391.75 146.51 396.12 146.51 396.12 138.21 390.45 140.31 391.75 146.51"/><polygon class="bc7dc166-4e16-45d6-9fa9-7e6afe3d514c" points="387.39 145.39 387.39 146.51 391.75 146.51 391.75 140.48 387.39 145.39"/><polygon class="aa619d02-fc89-465c-b521-0a5fb01b390d" points="391.75 130.99 387.39 134.58 387.39 145.39 391.75 141.8 393.51 136.13 391.75 130.99"/><path class="a4f0b459-6c12-497b-87c1-3bea94987b41" d="M395.27,128.09l-3.52,2.9V141.8l4.37-3.59v-7.54A4.34,4.34,0,0,0,395.27,128.09Z"/><path class="e98bf3ef-b451-487e-bde6-3bb9ce886b8a" d="M387.18,145.3a2.41,2.41,0,0,0-2.41,2.41h7l.77-1.2-.77-1.21Z"/><path class="f96ac9c0-8a91-44f4-ad73-a47f0abf6515" d="M398.73,147.71a2.41,2.41,0,0,0-2.41-2.41h-4.57v2.41Z"/><rect class="ba28cbf2-fe7d-4c2f-b500-d4b0ec710d19" x="388.42" y="134.76" width="1.34" height="7.83" rx="0.56"/><rect class="ba28cbf2-fe7d-4c2f-b500-d4b0ec710d19" x="391.08" y="132.48" width="1.34" height="7.83" rx="0.56"/><rect class="ba28cbf2-fe7d-4c2f-b500-d4b0ec710d19" x="393.74" y="130.01" width="1.34" height="7.83" rx="0.56"/><polygon class="f96ac9c0-8a91-44f4-ad73-a47f0abf6515" points="392.35 147.71 387.49 147.71 386.32 144.98 387.49 142.84 392.35 147.71"/><polygon class="e98bf3ef-b451-487e-bde6-3bb9ce886b8a" points="365.45 147.71 370.32 147.71 370.99 145.47 370.32 142.84 365.45 147.71"/><polygon class="a4f0b459-6c12-497b-87c1-3bea94987b41" points="366.47 127.08 365.17 128.04 365.74 129.32 368.37 129.23 366.47 127.08"/><rect class="f24b967b-a2fa-4d17-b267-d3f46906a283" x="378.3" y="99.67" width="1.17" height="12.83" transform="translate(757.76 212.18) rotate(180)"/><path class="bc7dc166-4e16-45d6-9fa9-7e6afe3d514c" d="M382.82,113.73v0h0Z"/><path class="bc7dc166-4e16-45d6-9fa9-7e6afe3d514c" d="M374.94,113.7h0v0Z"/><path class="f71649e7-c191-4e30-971b-bcc635cc6502" d="M382.82,115.8l-4.45.36.51-4.26A3.93,3.93,0,0,1,382.82,115.8Z"/><path class="ecd7b62a-8f6b-4b31-8d38-f746d94c88f8" d="M378.88,111.9v3.9h-3.94A3.94,3.94,0,0,1,378.88,111.9Z"/><polygon class="f71649e7-c191-4e30-971b-bcc635cc6502" points="374.94 115.76 378.88 115.76 379.97 118.53 378.88 121.73 374.94 121.73 374.94 115.76"/><rect class="f24b967b-a2fa-4d17-b267-d3f46906a283" x="378.88" y="115.76" width="3.94" height="5.97"/><path class="ecd7b62a-8f6b-4b31-8d38-f746d94c88f8" d="M370.28,128.72a8.61,8.61,0,0,1,8.6-8.61L382.52,131l-3.64,11.8h-8.6Z"/><path class="f71649e7-c191-4e30-971b-bcc635cc6502" d="M378.88,120.11h0a8.62,8.62,0,0,1,8.61,8.61V131l-1.82,3.54,1.82,3.74v2.82l-8.61,1.7V120.11Z"/><rect class="f96ac9c0-8a91-44f4-ad73-a47f0abf6515" x="370.28" y="142.84" width="17.21" height="4.87"/><polygon class="e98bf3ef-b451-487e-bde6-3bb9ce886b8a" points="387.49 147.71 383.19 142.84 387.49 142.84 387.49 147.71"/><polygon class="e98bf3ef-b451-487e-bde6-3bb9ce886b8a" points="383.19 147.71 378.88 142.84 383.19 142.84 383.19 147.71"/><polygon class="e98bf3ef-b451-487e-bde6-3bb9ce886b8a" points="378.88 147.71 374.58 142.84 378.88 142.84 378.88 147.71"/><polygon class="e98bf3ef-b451-487e-bde6-3bb9ce886b8a" points="374.58 147.71 370.28 142.84 374.58 142.84 374.58 147.71"/><circle class="f6a6329e-1626-4204-9fb3-7ec9e1fead53" cx="378.88" cy="134.68" r="3.64"/><circle class="ba28cbf2-fe7d-4c2f-b500-d4b0ec710d19" cx="378.88" cy="134.68" r="2.69"/><circle class="e98bf3ef-b451-487e-bde6-3bb9ce886b8a" cx="378.88" cy="134.68" r="3.64"/><circle class="e278611c-ded1-4f3b-ad2b-8986bb1a48d6" cx="378.88" cy="134.68" r="2.69"/><path class="e98bf3ef-b451-487e-bde6-3bb9ce886b8a" d="M387.49,131v7.28a3.64,3.64,0,1,1,0-7.28Z"/><path class="e278611c-ded1-4f3b-ad2b-8986bb1a48d6" d="M387.49,132h0v5.37h0a2.69,2.69,0,1,1,0-5.37Z"/><path class="e98bf3ef-b451-487e-bde6-3bb9ce886b8a" d="M370.28,131a3.53,3.53,0,0,1,3.54,3.54v8.26h-3.54l-5.78-1.7V131Z"/><path class="bc7dc166-4e16-45d6-9fa9-7e6afe3d514c" d="M372.87,141.89v-7.31a2.59,2.59,0,0,0-2.59-2.59h-4.83v9.9Z"/><rect class="f96ac9c0-8a91-44f4-ad73-a47f0abf6515" x="364.5" y="141.14" width="22.99" height="1.71" transform="translate(751.99 283.98) rotate(180)"/><rect class="e98bf3ef-b451-487e-bde6-3bb9ce886b8a" x="361.67" y="142.84" width="2.83" height="1.62" transform="translate(726.17 287.31) rotate(180)"/><rect class="e98bf3ef-b451-487e-bde6-3bb9ce886b8a" x="358.84" y="144.47" width="2.83" height="1.62" transform="translate(720.5 290.55) rotate(180)"/><rect class="e98bf3ef-b451-487e-bde6-3bb9ce886b8a" x="356" y="146.09" width="2.83" height="1.62" transform="translate(714.84 293.8) rotate(180)"/><rect class="ba28cbf2-fe7d-4c2f-b500-d4b0ec710d19" x="368.23" y="134.58" width="2.05" height="2.78" transform="translate(738.51 271.95) rotate(180)"/><path class="ecd7b62a-8f6b-4b31-8d38-f746d94c88f8" d="M364.5,128.72h5.78a0,0,0,0,1,0,0v.38a1.94,1.94,0,0,1-1.94,1.94h-1.9a1.94,1.94,0,0,1-1.94-1.94v-.38A0,0,0,0,1,364.5,128.72Z" transform="translate(734.78 259.76) rotate(180)"/><rect class="f96ac9c0-8a91-44f4-ad73-a47f0abf6515" x="370.28" y="128.9" width="17.21" height="1.29" transform="translate(757.76 259.1) rotate(180)"/><g class="a75fc756-c75e-4a9a-8d72-b9b291f199d5"><polygon class="aa619d02-fc89-465c-b521-0a5fb01b390d" points="382.56 124.03 387.44 128.9 384.37 128.9 379.5 124.03 382.56 124.03"/><polygon class="a4f0b459-6c12-497b-87c1-3bea94987b41" points="385.62 124.03 387.49 125.89 387.49 128.9 387.44 128.9 382.56 124.03 385.62 124.03"/><polygon class="a4f0b459-6c12-497b-87c1-3bea94987b41" points="379.5 124.03 384.37 128.9 381.31 128.9 376.44 124.03 379.5 124.03"/><polygon class="aa619d02-fc89-465c-b521-0a5fb01b390d" points="387.49 124.03 387.49 125.89 385.62 124.03 387.49 124.03"/><polygon class="a4f0b459-6c12-497b-87c1-3bea94987b41" points="370.28 127.05 372.13 128.9 370.28 128.9 370.28 127.05"/><polygon class="aa619d02-fc89-465c-b521-0a5fb01b390d" points="370.28 124.03 370.31 124.03 375.19 128.9 372.13 128.9 370.28 127.05 370.28 124.03"/><polygon class="a4f0b459-6c12-497b-87c1-3bea94987b41" points="373.38 124.03 378.25 128.9 375.19 128.9 370.31 124.03 373.38 124.03"/><polygon class="aa619d02-fc89-465c-b521-0a5fb01b390d" points="376.44 124.03 381.31 128.9 378.25 128.9 373.38 124.03 376.44 124.03"/></g><circle class="e98bf3ef-b451-487e-bde6-3bb9ce886b8a" cx="378.88" cy="117.93" r="1.84"/><circle class="ba28cbf2-fe7d-4c2f-b500-d4b0ec710d19" cx="378.88" cy="117.93" r="1.05"/><path class="abf8b516-a962-4880-8f4d-efe50d2e5a93" d="M31.1,49.81c.28.43.06.72.27,1.12s1.53,1.83,1,2.48-1.43,1.18-2.23.17a10.45,10.45,0,0,1-1.36-2.74l.52-2S30.74,49.25,31.1,49.81Z"/><path class="f144597a-ebad-47aa-898d-1b55a03004ca" d="M26.46,39.91s3.33,4.58,3.94,5.66A10.27,10.27,0,0,1,31.27,49a4,4,0,0,1,0,1.1C31.1,50.83,29,51,29,51a.46.46,0,0,1-.35-.22c-.05-.1-.09-.65-.14-.75-.46-.89-1.12-2.17-1.54-2.93-.69-1.23-2.82-3.69-3.38-4.55S25.83,39.79,26.46,39.91Z"/><path class="ae88d73c-6d79-45d3-bad8-f0f7c7d39a6c" d="M29.13,42.91a.92.92,0,0,0-1.09.53c-.13.53,1.06,2.89,1.69,2.74s1-.28.94-.82A8.57,8.57,0,0,0,29.13,42.91Z"/><path class="abf8b516-a962-4880-8f4d-efe50d2e5a93" d="M25.42,54.53a3.16,3.16,0,0,0,.87,3.31c1.56,1.25,2.63-.5,2.53-1.61a5.49,5.49,0,0,0-1.26-2.44S25.42,53.87,25.42,54.53Z"/><path class="f144597a-ebad-47aa-898d-1b55a03004ca" d="M22.91,42.14c-1.06-.1-3.57.64-3.55,1.32,0,0,4.52,9.86,5.23,11s.91,1,1.59.86,1.51-.66,1.53-1.07a3.18,3.18,0,0,0,.12-.94,10.59,10.59,0,0,0-.67-1.93c-.25-.64-1.32-3.34-2.28-5.64C24.29,44.26,23.39,41.19,22.91,42.14Z"/><path class="ae88d73c-6d79-45d3-bad8-f0f7c7d39a6c" d="M21.2,48.09c0-.19.94-.66,1.45-.45s1.69,2.56,1.19,3-.9.74-1.3.37A10.81,10.81,0,0,1,21.2,48.09Z"/><path class="f204f06c-bdf3-44a8-a356-f1f13c837774" d="M23.86,52a0,0,0,0,0,0,0,18.23,18.23,0,0,0,1.38,2.63s.1,0,.07,0C24.74,53.73,24.32,52.85,23.86,52Z"/><path class="f204f06c-bdf3-44a8-a356-f1f13c837774" d="M23.47,51.3l.15.36s.08,0,.06,0-.1-.23-.16-.34S23.46,51.27,23.47,51.3Z"/><rect class="ae88d73c-6d79-45d3-bad8-f0f7c7d39a6c" x="12.48" y="26.66" width="13.59" height="16.15" rx="1.79" transform="translate(-13.59 12.43) rotate(-26.81)"/><path class="f204f06c-bdf3-44a8-a356-f1f13c837774" d="M15.74,41.52c-.09-.21-.16-.43-.25-.64,0,0-.08,0-.07,0A6.34,6.34,0,0,0,16,42.16a9.84,9.84,0,0,0,.69,1.18s.08,0,.06,0c-.24-.39-.47-.77-.67-1.18C15.93,41.93,15.83,41.72,15.74,41.52Z"/><path class="f204f06c-bdf3-44a8-a356-f1f13c837774" d="M17.39,43.83s-.09,0-.13-.06a.37.37,0,0,1-.13-.12s-.08,0-.05.05a.44.44,0,0,0,.14.13c.05,0,.11.07.16,0A0,0,0,0,0,17.39,43.83Z"/><path class="f3f29249-1605-4510-9c0c-8909bd73163d" d="M30.6,34.44a5.83,5.83,0,0,1,1.57.77c.74.52.46,1.66.46,1.66s-.58.63-.88.68a8.2,8.2,0,0,1-1.92-.92S30.05,34.76,30.6,34.44Z"/><path class="a37b56b2-3aca-4310-a227-2aa0ee825126" d="M27.33,41.11a.37.37,0,0,1,0,.23,14.82,14.82,0,0,1-3.11,1.95L24,43a14.88,14.88,0,0,0,3.12-2,.42.42,0,0,0,.05-.22Z"/><path class="a37b56b2-3aca-4310-a227-2aa0ee825126" d="M24,43.38c-1.77.91-3.66,1.66-4.07,1.25l-.05-.06-.09-.18c.51.31,2.37-.44,4.08-1.32A2.88,2.88,0,0,1,24,43.38Z"/><path class="f144597a-ebad-47aa-898d-1b55a03004ca" d="M31,34.34c-.32-.22-3.48-1.25-4.33-1.57s-4-1.36-4.67-1.57a1.62,1.62,0,0,0-1.06,0c-.22-.07-.19,0-.39,0-.53-.05-4.84,2.65-4.84,2.65a3.52,3.52,0,0,0-.11.37,1.59,1.59,0,0,0-.17.37h0c-.63.48-1.4,2.68-1.87,4.19a29.1,29.1,0,0,0-2.25-2s-2.7.67-1.68,2.05,5.29,4.47,5.76,3h0A6.1,6.1,0,0,0,16.56,39a30.68,30.68,0,0,0,3.18,5.38c.77.78,6.84-2.61,7.35-3.29.37-.51-1.4-3.82-2.61-6,.68.14,1.84.33,2,.37.83.18,2.61,1.29,3.37,1.17S31.3,34.57,31,34.34Z"/><path class="a79a0713-bc87-44f3-8b3b-25640432bc13" d="M12.31,32.18a4.22,4.22,0,0,0,1.47,3.2c1.6,1.48,4.38.93,4.38.93l.4.8s-3.14.61-5-.87a4.84,4.84,0,0,1-1.81-5s.19.38.28.52Z"/><rect class="ae88d73c-6d79-45d3-bad8-f0f7c7d39a6c" x="18" y="34.67" width="4.51" height="2.31" rx="0.42" transform="translate(-13.98 12.98) rotate(-26.81)"/><rect class="a64783dc-d1db-4a72-90b7-c668ecbd3446" x="18.67" y="35.77" width="0.51" height="1.47" transform="translate(-14.43 12.46) rotate(-26.81)"/><rect class="a64783dc-d1db-4a72-90b7-c668ecbd3446" x="19.43" y="34.92" width="2.19" height="0.49" transform="translate(-13.65 13.04) rotate(-26.81)"/><rect class="ae88d73c-6d79-45d3-bad8-f0f7c7d39a6c" x="19.79" y="37.49" width="4.17" height="3.11" rx="0.52" transform="translate(-15.26 14.06) rotate(-26.81)"/><path class="f204f06c-bdf3-44a8-a356-f1f13c837774" d="M17.07,35.18A3.16,3.16,0,0,1,15.32,35a.79.79,0,0,1-.19-.12.06.06,0,0,1,0-.07h.07a.56.56,0,0,0,.17.1c.45.22,1.77.57,4.16-.71a4.26,4.26,0,0,0,2.4-3,0,0,0,0,1,.06,0,0,0,0,0,1,0,.05,4.45,4.45,0,0,1-2.46,3.09A7.55,7.55,0,0,1,17.07,35.18Z"/><path class="f204f06c-bdf3-44a8-a356-f1f13c837774" d="M22.27,37.58c-.74.39-1.46.76-2.22,1.18,0,0,0,.07,0,.05.78-.39,1.5-.77,2.24-1.16C22.35,37.63,22.32,37.56,22.27,37.58Z"/><path class="f204f06c-bdf3-44a8-a356-f1f13c837774" d="M22.78,37.34a.12.12,0,0,0-.1,0l-.12.07s0,.06,0,0l.12,0a.24.24,0,0,0,.08-.06A0,0,0,0,0,22.78,37.34Z"/><circle class="f144597a-ebad-47aa-898d-1b55a03004ca" cx="16.47" cy="29.13" r="5.16" transform="translate(-16.39 35.48) rotate(-71.45)"/><ellipse class="b304334c-a7a6-4ffd-bbcd-a67efae66899" cx="16.59" cy="29.36" rx="4.54" ry="3.62" transform="translate(-11.46 10.64) rotate(-26.81)"/><path class="f204f06c-bdf3-44a8-a356-f1f13c837774" d="M12.94,25.94a5.25,5.25,0,0,0-.77,1.15,5.94,5.94,0,0,0-.5,1.29s.05.06.06,0a6.54,6.54,0,0,1,.51-1.29A8.55,8.55,0,0,1,13,26S13,25.92,12.94,25.94Z"/><path class="f204f06c-bdf3-44a8-a356-f1f13c837774" d="M13.51,25.35a.44.44,0,0,0-.28.31s0,.05,0,0a.79.79,0,0,1,.25-.29S13.54,25.34,13.51,25.35Z"/><path class="f144597a-ebad-47aa-898d-1b55a03004ca" d="M14.4,27.18a2.62,2.62,0,0,0-.89.8A3.11,3.11,0,0,0,13,29.05a3.37,3.37,0,0,0,.18,2.4s.08,0,.06,0a3.4,3.4,0,0,1-.15-2.35,3.27,3.27,0,0,1,.54-1,5,5,0,0,1,.85-.8S14.43,27.17,14.4,27.18Z"/><path class="f144597a-ebad-47aa-898d-1b55a03004ca" d="M15.11,26.8l-.28.1s0,.1,0,.08l.29-.1C15.21,26.86,15.16,26.78,15.11,26.8Z"/><path class="abf8b516-a962-4880-8f4d-efe50d2e5a93" d="M11.17,37.33a1.35,1.35,0,0,0-.08-1c-.19-.37-.29-.88-.11-1.09s.32-.57,0-.63-1.05.89-1.05.89l-2-1.61a.38.38,0,0,0-.42,0c-.23.12.06.47.06.47l1,1.24-1.84-1s-.4.07,0,.57,1.15,1.13,1.15,1.13l-1.47-.62s-.35-.12-.28.16a.89.89,0,0,0,.32.32c.27.17,1.3.88,1.3.88l-.94-.11s-.3.06-.28.17A.43.43,0,0,0,7,37.4a7.67,7.67,0,0,1,1.32.43s1.13,1,1.77.78A1.76,1.76,0,0,0,11.17,37.33Z"/><path class="f204f06c-bdf3-44a8-a356-f1f13c837774" d="M23.94,40a.65.65,0,0,1-.55-.15.48.48,0,0,1,.1-.86A.61.61,0,0,1,24,39a.65.65,0,0,1,.36.35.69.69,0,0,1-.09.52l-.1-.06a.58.58,0,0,0,.07-.42.49.49,0,0,0-.29-.27.44.44,0,0,0-.42,0,.46.46,0,0,0-.26.32.5.5,0,0,0,.17.34.6.6,0,0,0,.51.11L24,40Z"/><path class="f144597a-ebad-47aa-898d-1b55a03004ca" d="M41.63,47a8.73,8.73,0,0,1-1.94.71A5.19,5.19,0,0,1,34.8,46.5c-2.07-1.93-1-3,0-4.23a5,5,0,0,0,1.69-3.34,4.78,4.78,0,0,0-2.1-4.1,1.42,1.42,0,0,0-1.61.16,11.48,11.48,0,0,0-2.45,3.41,8.42,8.42,0,0,1-1.88,2.67c-2.21,1.56-4.67-1.15-4.7-1.18a.25.25,0,0,1,0-.35.25.25,0,0,1,.36,0s2.19,2.39,4,1.09a8.61,8.61,0,0,0,1.73-2.49,11.66,11.66,0,0,1,2.58-3.57,1.94,1.94,0,0,1,2.15-.21A5.37,5.37,0,0,1,37,38.94a5.44,5.44,0,0,1-1.82,3.67c-1.1,1.21-1.77,1.93-.06,3.52,2.81,2.62,6.72.12,6.76.1a.25.25,0,0,1,.28.42S42,46.79,41.63,47Z"/><path class="abf8b516-a962-4880-8f4d-efe50d2e5a93" d="M32.63,36.87s-.58.63-.88.68a8.2,8.2,0,0,1-1.92-.92v0h.05c.52-.08,1.15-1.41,1.17-2a5.78,5.78,0,0,1,1.12.61C32.91,35.73,32.63,36.87,32.63,36.87Z"/><path class="f204f06c-bdf3-44a8-a356-f1f13c837774" d="M13.46,38.67s-.05,0,0,0,.08.1.13.17a6.29,6.29,0,0,1,.65.88A6.64,6.64,0,0,1,14.76,41s0,0,0,0A4.15,4.15,0,0,0,13.46,38.67Z"/><path class="a94f1654-cf8b-4ff1-ae1e-136dec683fab" d="M10.78,95.77s0,.06,0,.08v30.56c0,5.11,3.38,9.28,7.51,9.28H48.93c-.85-.44-1.66-.91-2.47-1.4C35.08,129.06,17.17,117.62,10.78,95.77Z"/><path class="fdca61d8-59ec-4e63-8b33-ac8afc8dc8d4" d="M392.42,26H360.81c22.6,7.95,33.49,25.85,38.34,38V32.76A6.75,6.75,0,0,0,392.42,26Z"/><path class="b82a26c3-5fe2-4a99-90ae-90fd1544666c" d="M183.19.35h44.61a5.88,5.88,0,0,1,5.88,5.88V17.15a0,0,0,0,1,0,0H177.32a0,0,0,0,1,0,0V6.23A5.88,5.88,0,0,1,183.19.35Z"/><text class="ad5698c0-f868-4178-9cb9-a9aa2e8583c9" transform="translate(182.06 12.99)">本站導覽</text><g class="a9e74f06-9f05-4146-aa06-d77494a22add"><path class="be2f0cd2-d19c-4575-89be-e636c91a04f4" d="M150.52-367.62V154.7a15.78,15.78,0,0,0,15.78,15.77H323A2.26,2.26,0,0,1,323,175h-8.89a2.95,2.95,0,0,0,0,5.89h32.61a2.57,2.57,0,1,1,0,5.14H330.12a4.39,4.39,0,1,0,0,8.78h5.17a5.28,5.28,0,0,1,0,10.55h-7a2.53,2.53,0,0,0-2.53,2.53h0a2.53,2.53,0,0,0,2.53,2.53h33.81a2.75,2.75,0,0,1,2.76,2.76h0a2.76,2.76,0,0,1-2.76,2.76H344.89a3.26,3.26,0,0,0,0,6.52h7.22a3.26,3.26,0,0,1,3.26,3.27V228a6.29,6.29,0,0,0,6.28,6.29h9.59a4.58,4.58,0,0,1,4.58,4.58,4.59,4.59,0,0,0,4.32,4.58l30.76,6.86V-367.62Z"/><g class="bfecb88a-f076-4ba0-b1c3-7fc4323e0d30"><path class="a0090bbb-f423-4ff6-a5a4-729ffa3f371c" d="M351.32,27.19a1.13,1.13,0,1,1-1.12-1.12A1.13,1.13,0,0,1,351.32,27.19Z"/><path class="a72226e6-0cc3-492b-b629-74836175c75b" d="M314.83,15.12a1.23,1.23,0,1,1-1.22-1.23A1.23,1.23,0,0,1,314.83,15.12Z"/><path class="fd3539f8-a32d-4302-9a8d-0f5f5bcfb212" d="M318.56,44.72a.41.41,0,0,1,0-.81.41.41,0,1,1,0,.81Z"/><path class="fd3539f8-a32d-4302-9a8d-0f5f5bcfb212" d="M330.91,38.8a.41.41,0,0,1-.41-.41.41.41,0,0,1,.81,0A.41.41,0,0,1,330.91,38.8Z"/><path class="a72226e6-0cc3-492b-b629-74836175c75b" d="M331.58,47.1a.38.38,0,1,1,0-.76.38.38,0,1,1,0,.76Z"/><path class="a72226e6-0cc3-492b-b629-74836175c75b" d="M360.51,38.46a.44.44,0,0,1,0-.87.44.44,0,1,1,0,.87Z"/><path class="fd3539f8-a32d-4302-9a8d-0f5f5bcfb212" d="M208.84,1.87a.65.65,0,1,1,.64.65A.64.64,0,0,1,208.84,1.87Z"/><path class="a72226e6-0cc3-492b-b629-74836175c75b" d="M313.45,40.8a.52.52,0,0,1-.52.52.52.52,0,1,1,0-1A.51.51,0,0,1,313.45,40.8Z"/><path class="fd3539f8-a32d-4302-9a8d-0f5f5bcfb212" d="M229.47.68a.46.46,0,0,1-.63.17.45.45,0,0,1-.18-.63.46.46,0,0,1,.63-.17A.47.47,0,0,1,229.47.68Z"/><path class="a72226e6-0cc3-492b-b629-74836175c75b" d="M226.57,43.32a.52.52,0,0,1-.7.19.51.51,0,0,1-.2-.7.52.52,0,1,1,.9.51Z"/><path class="fd3539f8-a32d-4302-9a8d-0f5f5bcfb212" d="M311.7,16.92a.41.41,0,0,1,0-.81.41.41,0,1,1,0,.81Z"/><path class="a0090bbb-f423-4ff6-a5a4-729ffa3f371c" d="M300.46,24.6a.7.7,0,1,1,.7-.7A.7.7,0,0,1,300.46,24.6Z"/><path class="a72226e6-0cc3-492b-b629-74836175c75b" d="M297.93,9.51a.39.39,0,1,1,.38-.38A.38.38,0,0,1,297.93,9.51Z"/><path class="a72226e6-0cc3-492b-b629-74836175c75b" d="M306.18.73a.38.38,0,0,1-.38-.39.38.38,0,0,1,.38-.38.39.39,0,0,1,.39.38A.39.39,0,0,1,306.18.73Z"/><path class="a72226e6-0cc3-492b-b629-74836175c75b" d="M294,33.46a.38.38,0,1,1,.38-.38A.38.38,0,0,1,294,33.46Z"/><path class="a72226e6-0cc3-492b-b629-74836175c75b" d="M314.86,25a.77.77,0,1,1,.77-.77A.77.77,0,0,1,314.86,25Z"/><path class="fd3539f8-a32d-4302-9a8d-0f5f5bcfb212" d="M4.92,41a.4.4,0,1,1,.41-.4A.4.4,0,0,1,4.92,41Z"/><path class="fd3539f8-a32d-4302-9a8d-0f5f5bcfb212" d="M17.27,35.07a.41.41,0,1,1,.4-.4A.4.4,0,0,1,17.27,35.07Z"/><path class="a72226e6-0cc3-492b-b629-74836175c75b" d="M18,43.38a.39.39,0,1,1,0-.77.39.39,0,0,1,0,.77Z"/><path class="a72226e6-0cc3-492b-b629-74836175c75b" d="M46.88,34.74a.44.44,0,1,1,.44-.44A.44.44,0,0,1,46.88,34.74Z"/><path class="a72226e6-0cc3-492b-b629-74836175c75b" d="M158.43,42.43a.52.52,0,0,1,.73-.73.5.5,0,0,1,0,.73A.52.52,0,0,1,158.43,42.43Z"/><path class="a72226e6-0cc3-492b-b629-74836175c75b" d="M214.72,47.91a.44.44,0,1,1-.62,0A.44.44,0,0,1,214.72,47.91Z"/><path class="a0090bbb-f423-4ff6-a5a4-729ffa3f371c" d="M179.07,44.7a.71.71,0,0,1,1,0,.69.69,0,0,1,0,1,.7.7,0,0,1-1-1Z"/><path class="be2c6f9a-fde2-4147-838e-7deb4f64d909" d="M147.94,44.41a.84.84,0,0,1,0,1.19.86.86,0,0,1-1.19,0,.84.84,0,1,1,1.19-1.19Z"/><path class="fd3539f8-a32d-4302-9a8d-0f5f5bcfb212" d="M338.27,121.74a.48.48,0,0,1-.48.48.49.49,0,0,1-.48-.48.48.48,0,0,1,.48-.48A.47.47,0,0,1,338.27,121.74Z"/><path class="fd3539f8-a32d-4302-9a8d-0f5f5bcfb212" d="M350.91,100.67a.72.72,0,1,1-.71-.71A.71.71,0,0,1,350.91,100.67Z"/><path class="fd3539f8-a32d-4302-9a8d-0f5f5bcfb212" d="M394.14,89.74a.72.72,0,1,1-.72-.71A.71.71,0,0,1,394.14,89.74Z"/><path class="a0090bbb-f423-4ff6-a5a4-729ffa3f371c" d="M407.69,109.58a1.24,1.24,0,1,1-1.23-1.24A1.23,1.23,0,0,1,407.69,109.58Z"/><path class="a72226e6-0cc3-492b-b629-74836175c75b" d="M381.06,114a.68.68,0,1,1-.68-.68A.68.68,0,0,1,381.06,114Z"/><path class="a72226e6-0cc3-492b-b629-74836175c75b" d="M365.57,99.48a.68.68,0,1,1-.68-.68A.69.69,0,0,1,365.57,99.48Z"/><circle class="a72226e6-0cc3-492b-b629-74836175c75b" cx="373.6" cy="69.16" r="0.68"/><path class="a72226e6-0cc3-492b-b629-74836175c75b" d="M380,120.72a.46.46,0,0,1-.91,0,.46.46,0,1,1,.91,0Z"/><path class="a72226e6-0cc3-492b-b629-74836175c75b" d="M319.19,94.25a.77.77,0,1,1-.76-.77A.76.76,0,0,1,319.19,94.25Z"/><path class="a72226e6-0cc3-492b-b629-74836175c75b" d="M306.4,125a.52.52,0,1,1-.52-.51A.52.52,0,0,1,306.4,125Z"/><path class="a0090bbb-f423-4ff6-a5a4-729ffa3f371c" d="M297.42,141.6a.94.94,0,1,1-.94-.94A.94.94,0,0,1,297.42,141.6Z"/><path class="a0090bbb-f423-4ff6-a5a4-729ffa3f371c" d="M378.39,95.15a1.24,1.24,0,1,1-1.24-1.23A1.25,1.25,0,0,1,378.39,95.15Z"/><path class="be2c6f9a-fde2-4147-838e-7deb4f64d909" d="M405.48,121.74a.75.75,0,1,1-.75-.74A.75.75,0,0,1,405.48,121.74Z"/><path class="be2c6f9a-fde2-4147-838e-7deb4f64d909" d="M404.9,62.15a1.1,1.1,0,1,1-1.1-1.1A1.1,1.1,0,0,1,404.9,62.15Z"/><path class="fd3539f8-a32d-4302-9a8d-0f5f5bcfb212" d="M297.71,68.67a.41.41,0,1,1,.41.41A.4.4,0,0,1,297.71,68.67Z"/><path class="a72226e6-0cc3-492b-b629-74836175c75b" d="M313.91,63.15a.38.38,0,1,1,.38.39A.38.38,0,0,1,313.91,63.15Z"/><path class="a72226e6-0cc3-492b-b629-74836175c75b" d="M345.54,79.3a.52.52,0,1,1-.51-.52A.51.51,0,0,1,345.54,79.3Z"/><path class="a0090bbb-f423-4ff6-a5a4-729ffa3f371c" d="M332.55,63.1a.7.7,0,1,1,.7-.7A.7.7,0,0,1,332.55,63.1Z"/><path class="a72226e6-0cc3-492b-b629-74836175c75b" d="M326.11,72a.39.39,0,0,1,0-.77.39.39,0,1,1,0,.77Z"/><circle class="a72226e6-0cc3-492b-b629-74836175c75b" cx="346.95" cy="62.74" r="0.77"/><path class="fd3539f8-a32d-4302-9a8d-0f5f5bcfb212" d="M15.43,128.92a.47.47,0,0,1-.48.48.48.48,0,0,1-.48-.48.49.49,0,0,1,.48-.48A.48.48,0,0,1,15.43,128.92Z"/><path class="fd3539f8-a32d-4302-9a8d-0f5f5bcfb212" d="M28.07,107.85a.72.72,0,1,1-.71-.71A.71.71,0,0,1,28.07,107.85Z"/><path class="fd3539f8-a32d-4302-9a8d-0f5f5bcfb212" d="M71.3,96.92a.72.72,0,1,1-.72-.71A.72.72,0,0,1,71.3,96.92Z"/><path class="a0090bbb-f423-4ff6-a5a4-729ffa3f371c" d="M84.85,116.76a1.24,1.24,0,1,1-1.24-1.23A1.24,1.24,0,0,1,84.85,116.76Z"/><path class="a0090bbb-f423-4ff6-a5a4-729ffa3f371c" d="M92.34,129.33a.84.84,0,0,1-.84.83.83.83,0,1,1,0-1.66A.84.84,0,0,1,92.34,129.33Z"/><path class="a72226e6-0cc3-492b-b629-74836175c75b" d="M58.22,121.22a.68.68,0,1,1-.68-.67A.67.67,0,0,1,58.22,121.22Z"/><path class="a72226e6-0cc3-492b-b629-74836175c75b" d="M42.73,106.66a.68.68,0,1,1-.68-.67A.68.68,0,0,1,42.73,106.66Z"/><circle class="a72226e6-0cc3-492b-b629-74836175c75b" cx="50.75" cy="76.35" r="0.68"/><path class="a72226e6-0cc3-492b-b629-74836175c75b" d="M57.2,127.9a.46.46,0,1,1-.91,0,.46.46,0,0,1,.91,0Z"/><path class="a72226e6-0cc3-492b-b629-74836175c75b" d="M163.85,128.83a.77.77,0,1,1-.76-.76A.76.76,0,0,1,163.85,128.83Z"/><path class="a72226e6-0cc3-492b-b629-74836175c75b" d="M93.18,77.8a.68.68,0,1,1-.68-.68A.67.67,0,0,1,93.18,77.8Z"/><path class="a0090bbb-f423-4ff6-a5a4-729ffa3f371c" d="M55.54,102.34a1.24,1.24,0,1,1-1.23-1.24A1.23,1.23,0,0,1,55.54,102.34Z"/><path class="be2c6f9a-fde2-4147-838e-7deb4f64d909" d="M82.63,128.92a.74.74,0,1,1-.74-.74A.74.74,0,0,1,82.63,128.92Z"/><path class="be2c6f9a-fde2-4147-838e-7deb4f64d909" d="M82.06,69.33a1.1,1.1,0,1,1-1.1-1.1A1.1,1.1,0,0,1,82.06,69.33Z"/><path class="fd3539f8-a32d-4302-9a8d-0f5f5bcfb212" d="M209.38,118.41a.71.71,0,0,1-1,.27.71.71,0,0,1,.7-1.24A.7.7,0,0,1,209.38,118.41Z"/><path class="fd3539f8-a32d-4302-9a8d-0f5f5bcfb212" d="M208.57,98.35a.71.71,0,1,1-.27-1A.7.7,0,0,1,208.57,98.35Z"/><path class="a72226e6-0cc3-492b-b629-74836175c75b" d="M186.48,73.14a.76.76,0,1,1-.29-1A.76.76,0,0,1,186.48,73.14Z"/><path class="a72226e6-0cc3-492b-b629-74836175c75b" d="M174.62,90.72a.76.76,0,1,1-1.33-.75.78.78,0,0,1,1-.29A.76.76,0,0,1,174.62,90.72Z"/><path class="fd3539f8-a32d-4302-9a8d-0f5f5bcfb212" d="M102.59,95.83a.48.48,0,0,1,.48-.48.49.49,0,0,1,.48.48.48.48,0,0,1-.48.48A.47.47,0,0,1,102.59,95.83Z"/><path class="fd3539f8-a32d-4302-9a8d-0f5f5bcfb212" d="M117.11,141a.49.49,0,0,1-.48.48.48.48,0,0,1-.48-.48.47.47,0,0,1,.48-.48A.48.48,0,0,1,117.11,141Z"/><path class="fd3539f8-a32d-4302-9a8d-0f5f5bcfb212" d="M129.74,120a.71.71,0,1,1-.71-.72A.71.71,0,0,1,129.74,120Z"/><path class="fd3539f8-a32d-4302-9a8d-0f5f5bcfb212" d="M173,109a.72.72,0,1,1-.71-.71A.71.71,0,0,1,173,109Z"/><path class="a0090bbb-f423-4ff6-a5a4-729ffa3f371c" d="M186.53,128.85a1.24,1.24,0,1,1-1.24-1.23A1.24,1.24,0,0,1,186.53,128.85Z"/><path class="a0090bbb-f423-4ff6-a5a4-729ffa3f371c" d="M194,141.42a.84.84,0,0,1-.83.84.85.85,0,0,1-.84-.84.84.84,0,0,1,.84-.83A.83.83,0,0,1,194,141.42Z"/><path class="a72226e6-0cc3-492b-b629-74836175c75b" d="M159.89,133.32a.68.68,0,1,1-.67-.68A.67.67,0,0,1,159.89,133.32Z"/><path class="a72226e6-0cc3-492b-b629-74836175c75b" d="M144.4,118.76a.68.68,0,1,1-.68-.68A.67.67,0,0,1,144.4,118.76Z"/><path class="a72226e6-0cc3-492b-b629-74836175c75b" d="M153.11,88.44a.68.68,0,0,1-1.36,0,.68.68,0,1,1,1.36,0Z"/><path class="a72226e6-0cc3-492b-b629-74836175c75b" d="M158.87,140a.45.45,0,0,1-.45.45.46.46,0,1,1,0-.91A.45.45,0,0,1,158.87,140Z"/><path class="a72226e6-0cc3-492b-b629-74836175c75b" d="M210.14,83.54a.68.68,0,1,1-.68-.67A.67.67,0,0,1,210.14,83.54Z"/><path class="be2c6f9a-fde2-4147-838e-7deb4f64d909" d="M184.31,141a.74.74,0,1,1-.74-.75A.74.74,0,0,1,184.31,141Z"/><circle class="fd3539f8-a32d-4302-9a8d-0f5f5bcfb212" cx="295.01" cy="124.35" r="0.48"/><path class="fd3539f8-a32d-4302-9a8d-0f5f5bcfb212" d="M230.54,88.58a.65.65,0,1,1,.65.64A.65.65,0,0,1,230.54,88.58Z"/><path class="a72226e6-0cc3-492b-b629-74836175c75b" d="M257.53,146.18a.52.52,0,0,1-1,0,.52.52,0,0,1,1,0Z"/><path class="fd3539f8-a32d-4302-9a8d-0f5f5bcfb212" d="M195.06,110.7a.46.46,0,0,1-.63.17.46.46,0,0,1,.46-.8A.46.46,0,0,1,195.06,110.7Z"/><path class="a72226e6-0cc3-492b-b629-74836175c75b" d="M219.83,144.41a.51.51,0,0,1-.7.2.52.52,0,1,1,.7-.2Z"/><path class="fd3539f8-a32d-4302-9a8d-0f5f5bcfb212" d="M270.45,68.61a.41.41,0,1,1,.41.41A.4.4,0,0,1,270.45,68.61Z"/><path class="fd3539f8-a32d-4302-9a8d-0f5f5bcfb212" d="M246,74.81a.41.41,0,1,1,.41.4A.4.4,0,0,1,246,74.81Z"/><path class="a72226e6-0cc3-492b-b629-74836175c75b" d="M262.14,69.29a.39.39,0,0,1,.39-.38.38.38,0,1,1,0,.76A.39.39,0,0,1,262.14,69.29Z"/><path class="a72226e6-0cc3-492b-b629-74836175c75b" d="M270.78,98.22a.44.44,0,1,1,.44.44A.44.44,0,0,1,270.78,98.22Z"/><path class="a72226e6-0cc3-492b-b629-74836175c75b" d="M227.6,102.31a.44.44,0,0,1,.44-.44.44.44,0,1,1,0,.88A.44.44,0,0,1,227.6,102.31Z"/><path class="a72226e6-0cc3-492b-b629-74836175c75b" d="M237.86,78a.77.77,0,1,1,.77.77A.76.76,0,0,1,237.86,78Z"/><path class="a0090bbb-f423-4ff6-a5a4-729ffa3f371c" d="M263.14,102.34a.8.8,0,1,1,.8.8A.8.8,0,0,1,263.14,102.34Z"/><path class="be2c6f9a-fde2-4147-838e-7deb4f64d909" d="M250.93,102.77a.71.71,0,1,1,1.42,0,.71.71,0,1,1-1.42,0Z"/><path class="fd3539f8-a32d-4302-9a8d-0f5f5bcfb212" d="M286.42,99.44a.41.41,0,1,1,.41-.41A.4.4,0,0,1,286.42,99.44Z"/><path class="fd3539f8-a32d-4302-9a8d-0f5f5bcfb212" d="M255.78,122.3a.41.41,0,1,1,.41-.41A.4.4,0,0,1,255.78,122.3Z"/><path class="a0090bbb-f423-4ff6-a5a4-729ffa3f371c" d="M244.54,130a.7.7,0,1,1,.7-.7A.7.7,0,0,1,244.54,130Z"/><path class="a72226e6-0cc3-492b-b629-74836175c75b" d="M291.19,110.6a.38.38,0,1,1,.38-.38A.38.38,0,0,1,291.19,110.6Z"/><path class="a72226e6-0cc3-492b-b629-74836175c75b" d="M238.1,138.84a.38.38,0,0,1-.38-.38.38.38,0,1,1,.76,0A.38.38,0,0,1,238.1,138.84Z"/><path class="a72226e6-0cc3-492b-b629-74836175c75b" d="M258.94,130.39a.77.77,0,1,1,.76-.77A.77.77,0,0,1,258.94,130.39Z"/><path class="a72226e6-0cc3-492b-b629-74836175c75b" d="M127.76,80.09a.52.52,0,1,1-.52-.51A.52.52,0,0,1,127.76,80.09Z"/><path class="be2c6f9a-fde2-4147-838e-7deb4f64d909" d="M130.06,94.34a.84.84,0,0,1-1.68,0,.84.84,0,0,1,1.68,0Z"/><path class="a0090bbb-f423-4ff6-a5a4-729ffa3f371c" d="M114.77,63.89a.7.7,0,1,1,.7-.7A.7.7,0,0,1,114.77,63.89Z"/><path class="a72226e6-0cc3-492b-b629-74836175c75b" d="M108.33,72.75a.38.38,0,1,1,.38-.38A.38.38,0,0,1,108.33,72.75Z"/><path class="a72226e6-0cc3-492b-b629-74836175c75b" d="M129.17,64.3a.77.77,0,1,1,.76-.77A.76.76,0,0,1,129.17,64.3Z"/><path class="a72226e6-0cc3-492b-b629-74836175c75b" d="M22.7,86.48a.52.52,0,1,1-.52-.51A.52.52,0,0,1,22.7,86.48Z"/><path class="a0090bbb-f423-4ff6-a5a4-729ffa3f371c" d="M9.71,70.28a.7.7,0,1,1,.7-.7A.7.7,0,0,1,9.71,70.28Z"/><path class="a72226e6-0cc3-492b-b629-74836175c75b" d="M3.27,79.14a.38.38,0,1,1,.39-.38A.38.38,0,0,1,3.27,79.14Z"/><circle class="a72226e6-0cc3-492b-b629-74836175c75b" cx="24.11" cy="69.92" r="0.77"/><circle class="be2c6f9a-fde2-4147-838e-7deb4f64d909" cx="137.41" cy="86.11" r="0.84"/></g><path class="a09b6199-8cb8-47ff-b57d-4e6b78b8bd49" d="M150.52-367.62V154.57a15.78,15.78,0,0,0,15.78,15.78H323a2.26,2.26,0,0,1-.06,4.51h-8.89a2.94,2.94,0,0,0,0,5.88h32.61a2.58,2.58,0,1,1,0,5.15H330.12a4.39,4.39,0,1,0,0,8.77h5.17a5.28,5.28,0,0,1,0,10.55h-7a2.53,2.53,0,0,0-2.53,2.53h0a2.53,2.53,0,0,0,2.53,2.53h33.81a2.76,2.76,0,0,1,2.76,2.76h0a2.75,2.75,0,0,1-2.76,2.76H344.89a3.27,3.27,0,0,0,0,6.53h7.22a3.26,3.26,0,0,1,3.26,3.26v2.25a6.28,6.28,0,0,0,6.28,6.28h9.59a4.58,4.58,0,0,1,4.58,4.59,4.58,4.58,0,0,0,4.32,4.57l30.76,6.87V-367.62Z"/></g></g></g></svg>