<svg id="bac4acbd-5496-48d1-bf4a-eb0f55ac0a7d" data-name="圖層 1" xmlns="http://www.w3.org/2000/svg" xmlns:xlink="http://www.w3.org/1999/xlink" viewBox="0 0 411 613"><defs><style>.e76f1812-33ef-4e77-b118-c892202fa5d4{fill:none;}.be71ae8b-7d7e-4bc4-90ff-991ec0584472{fill:#f5f7f7;}.a9f7f3f8-57c5-4d13-a2cb-b95314630281{clip-path:url(#aaef8ae4-f5f4-4b2f-8b55-a71c93b134fb);}.bb1bb3ab-e5a4-4dfc-bdef-a2153ec72717{fill:#fff;}.a18907d9-0f18-4c37-ba40-9d0b4f05ed71,.a6fa4b02-e23a-42f8-97ac-81de594e0237,.bb1bb3ab-e5a4-4dfc-bdef-a2153ec72717,.fe03da53-6214-47b0-8876-84aa5e61067c{opacity:0.6;}.a18907d9-0f18-4c37-ba40-9d0b4f05ed71{fill:#77c9d3;}.fe03da53-6214-47b0-8876-84aa5e61067c{fill:#1a88c5;}.a6fa4b02-e23a-42f8-97ac-81de594e0237{fill:#e84966;}.fe36736b-130e-42ce-91f7-35f74d58fe7a{clip-path:url(#b8242b3c-00af-46b7-bf88-e1d961747d3c);}.e76e343e-7d10-4032-bcae-4e37aeb81d31{opacity:0.5;}</style><clipPath id="aaef8ae4-f5f4-4b2f-8b55-a71c93b134fb"><rect class="e76f1812-33ef-4e77-b118-c892202fa5d4" x="-0.5" width="412" height="613"/></clipPath><clipPath id="b8242b3c-00af-46b7-bf88-e1d961747d3c"><rect class="e76f1812-33ef-4e77-b118-c892202fa5d4" x="-0.59" y="848.29" width="411" height="190.71"/></clipPath></defs><title>網站底圖</title><rect class="be71ae8b-7d7e-4bc4-90ff-991ec0584472" x="-12.5" y="-16.84" width="434.72" height="639.84"/><g class="a9f7f3f8-57c5-4d13-a2cb-b95314630281"><path class="bb1bb3ab-e5a4-4dfc-bdef-a2153ec72717" d="M394.59,367a1.34,1.34,0,1,1-1.34-1.33A1.33,1.33,0,0,1,394.59,367Z"/><path class="bb1bb3ab-e5a4-4dfc-bdef-a2153ec72717" d="M406.5,458.94a2.36,2.36,0,1,1-2.36-2.36A2.36,2.36,0,0,1,406.5,458.94Z"/><path class="bb1bb3ab-e5a4-4dfc-bdef-a2153ec72717" d="M409.53,85.9a1,1,0,1,1-1-1A1,1,0,0,1,409.53,85.9Z"/><path class="a18907d9-0f18-4c37-ba40-9d0b4f05ed71" d="M392.32,117.72a1.81,1.81,0,1,1-1.81-1.81A1.8,1.8,0,0,1,392.32,117.72Z"/><path class="bb1bb3ab-e5a4-4dfc-bdef-a2153ec72717" d="M410.68,174.08a1,1,0,1,1-.38-1.34A1,1,0,0,1,410.68,174.08Z"/><path class="fe03da53-6214-47b0-8876-84aa5e61067c" d="M397.31,291.33a.77.77,0,0,1-.78-.77.78.78,0,1,1,1.55,0A.77.77,0,0,1,397.31,291.33Z"/><path class="fe03da53-6214-47b0-8876-84aa5e61067c" d="M401,211.15a.76.76,0,0,1-.77-.77.77.77,0,0,1,.77-.78.78.78,0,0,1,.78.78A.77.77,0,0,1,401,211.15Z"/><path class="bb1bb3ab-e5a4-4dfc-bdef-a2153ec72717" d="M406.45,312.75a.74.74,0,1,1,.73-.74A.74.74,0,0,1,406.45,312.75Z"/><path class="fe03da53-6214-47b0-8876-84aa5e61067c" d="M9.26,381.18A1.25,1.25,0,1,1,8,379.93,1.25,1.25,0,0,1,9.26,381.18Z"/><path class="bb1bb3ab-e5a4-4dfc-bdef-a2153ec72717" d="M66.06,398a2.36,2.36,0,1,1-2.36-2.36A2.35,2.35,0,0,1,66.06,398Z"/><path class="bb1bb3ab-e5a4-4dfc-bdef-a2153ec72717" d="M105.17,328.72a1.18,1.18,0,1,1-1.18-1.17A1.18,1.18,0,0,1,105.17,328.72Z"/><path class="bb1bb3ab-e5a4-4dfc-bdef-a2153ec72717" d="M101.81,388.19a1.33,1.33,0,1,1-1.33-1.33A1.33,1.33,0,0,1,101.81,388.19Z"/><path class="a18907d9-0f18-4c37-ba40-9d0b4f05ed71" d="M205.12,406.36a2.16,2.16,0,1,1-2.15-2.15A2.16,2.16,0,0,1,205.12,406.36Z"/><path class="a6fa4b02-e23a-42f8-97ac-81de594e0237" d="M88,363.6a1.92,1.92,0,1,1-1.92-1.92A1.91,1.91,0,0,1,88,363.6Z"/><path class="a6fa4b02-e23a-42f8-97ac-81de594e0237" d="M160.83,142.65a2.41,2.41,0,1,1-2.41-2.41A2.41,2.41,0,0,1,160.83,142.65Z"/><path class="a18907d9-0f18-4c37-ba40-9d0b4f05ed71" d="M2.29,49.15A2.37,2.37,0,0,1-.08,51.52a2.38,2.38,0,0,1-2.38-2.37A2.38,2.38,0,0,1-.08,46.78,2.37,2.37,0,0,1,2.29,49.15Z"/><path class="a18907d9-0f18-4c37-ba40-9d0b4f05ed71" d="M16.64,73.26a1.6,1.6,0,1,1-1.59-1.6A1.6,1.6,0,0,1,16.64,73.26Z"/><path class="bb1bb3ab-e5a4-4dfc-bdef-a2153ec72717" d="M153.8,72.3a1.47,1.47,0,1,1-1.47-1.46A1.47,1.47,0,0,1,153.8,72.3Z"/><path class="fe03da53-6214-47b0-8876-84aa5e61067c" d="M241.13,52.32a1.37,1.37,0,1,1-.52-1.87A1.38,1.38,0,0,1,241.13,52.32Z"/><path class="fe03da53-6214-47b0-8876-84aa5e61067c" d="M239.57,13.84a1.37,1.37,0,1,1-.52-1.86A1.36,1.36,0,0,1,239.57,13.84Z"/><path class="fe03da53-6214-47b0-8876-84aa5e61067c" d="M9,133.43a.92.92,0,1,1,.92.93A.92.92,0,0,1,9,133.43Z"/><path class="fe03da53-6214-47b0-8876-84aa5e61067c" d="M36.3,9a.93.93,0,1,1,.93.92A.93.93,0,0,1,36.3,9Z"/><path class="fe03da53-6214-47b0-8876-84aa5e61067c" d="M294.85,214.55a1.37,1.37,0,1,1,1.37,1.37A1.37,1.37,0,0,1,294.85,214.55Z"/><path class="fe03da53-6214-47b0-8876-84aa5e61067c" d="M314.89,256.33a1.37,1.37,0,1,1,1.37,1.36A1.37,1.37,0,0,1,314.89,256.33Z"/><path class="bb1bb3ab-e5a4-4dfc-bdef-a2153ec72717" d="M257.07,230.68a1.3,1.3,0,1,1,1.29,1.3A1.29,1.29,0,0,1,257.07,230.68Z"/><path class="bb1bb3ab-e5a4-4dfc-bdef-a2153ec72717" d="M286.78,258.61a1.3,1.3,0,1,1,1.3,1.3A1.3,1.3,0,0,1,286.78,258.61Z"/><path class="fe03da53-6214-47b0-8876-84aa5e61067c" d="M257.76,406a1.24,1.24,0,1,1,1.24,1.24A1.25,1.25,0,0,1,257.76,406Z"/><path class="fe03da53-6214-47b0-8876-84aa5e61067c" d="M203.21,433.55a1.25,1.25,0,1,1,1.24,1.24A1.25,1.25,0,0,1,203.21,433.55Z"/><path class="bb1bb3ab-e5a4-4dfc-bdef-a2153ec72717" d="M150.64,410.23a1.18,1.18,0,1,1,1.18,1.18A1.18,1.18,0,0,1,150.64,410.23Z"/><path class="bb1bb3ab-e5a4-4dfc-bdef-a2153ec72717" d="M10,325.92a1,1,0,1,1,1,1A1,1,0,0,1,10,325.92Z"/><path class="fe03da53-6214-47b0-8876-84aa5e61067c" d="M64.15,95.67a.92.92,0,1,1-.92-.92A.92.92,0,0,1,64.15,95.67Z"/><path class="fe03da53-6214-47b0-8876-84aa5e61067c" d="M88.38,55.26A1.37,1.37,0,1,1,87,53.89,1.36,1.36,0,0,1,88.38,55.26Z"/><path class="fe03da53-6214-47b0-8876-84aa5e61067c" d="M171.29,34.3a1.37,1.37,0,1,1-1.37-1.37A1.37,1.37,0,0,1,171.29,34.3Z"/><path class="a18907d9-0f18-4c37-ba40-9d0b4f05ed71" d="M197.28,72.35A2.37,2.37,0,1,1,194.91,70,2.37,2.37,0,0,1,197.28,72.35Z"/><path class="a18907d9-0f18-4c37-ba40-9d0b4f05ed71" d="M211.64,96.45a1.6,1.6,0,1,1-1.6-1.6A1.6,1.6,0,0,1,211.64,96.45Z"/><path class="bb1bb3ab-e5a4-4dfc-bdef-a2153ec72717" d="M146.21,80.91a1.3,1.3,0,1,1-1.3-1.3A1.3,1.3,0,0,1,146.21,80.91Z"/><path class="bb1bb3ab-e5a4-4dfc-bdef-a2153ec72717" d="M116.49,53a1.3,1.3,0,1,1-1.29-1.3A1.3,1.3,0,0,1,116.49,53Z"/><path class="bb1bb3ab-e5a4-4dfc-bdef-a2153ec72717" d="M144.25,93.71a.88.88,0,1,1-.87-.87A.88.88,0,0,1,144.25,93.71Z"/><path class="a6fa4b02-e23a-42f8-97ac-81de594e0237" d="M193,95.67a1.42,1.42,0,1,1-1.42-1.42A1.42,1.42,0,0,1,193,95.67Z"/><path class="bb1bb3ab-e5a4-4dfc-bdef-a2153ec72717" d="M15.51,290.17a1.75,1.75,0,1,1-.66-2.38A1.74,1.74,0,0,1,15.51,290.17Z"/><circle class="fe03da53-6214-47b0-8876-84aa5e61067c" cx="405.34" cy="63.71" r="0.92"/><path class="fe03da53-6214-47b0-8876-84aa5e61067c" d="M199.34,228.18a.92.92,0,1,1,.92.92A.92.92,0,0,1,199.34,228.18Z"/><path class="a18907d9-0f18-4c37-ba40-9d0b4f05ed71" d="M144.07,173.27a1.6,1.6,0,1,1,1.6,1.6A1.6,1.6,0,0,1,144.07,173.27Z"/><path class="a18907d9-0f18-4c37-ba40-9d0b4f05ed71" d="M56.48,155.85a1.6,1.6,0,1,1,1.59,1.59A1.59,1.59,0,0,1,56.48,155.85Z"/><path class="bb1bb3ab-e5a4-4dfc-bdef-a2153ec72717" d="M178.5,167.5a.88.88,0,0,1,1.75,0,.88.88,0,1,1-1.75,0Z"/><path class="bb1bb3ab-e5a4-4dfc-bdef-a2153ec72717" d="M178,195.22a.88.88,0,1,1,.87.87A.87.87,0,0,1,178,195.22Z"/><path class="bb1bb3ab-e5a4-4dfc-bdef-a2153ec72717" d="M123.86,158.59a.88.88,0,1,1,1.75,0,.88.88,0,0,1-1.75,0Z"/><path class="bb1bb3ab-e5a4-4dfc-bdef-a2153ec72717" d="M30.92,131.86a1,1,0,1,1,1,1A1,1,0,0,1,30.92,131.86Z"/><path class="bb1bb3ab-e5a4-4dfc-bdef-a2153ec72717" d="M27.22,311.61a2,2,0,1,1,2,2A2,2,0,0,1,27.22,311.61Z"/><path class="a18907d9-0f18-4c37-ba40-9d0b4f05ed71" d="M89.75,169.15a1.6,1.6,0,1,1,1.59,1.6A1.6,1.6,0,0,1,89.75,169.15Z"/><path class="a6fa4b02-e23a-42f8-97ac-81de594e0237" d="M100.34,144.43a1.42,1.42,0,1,1,1.42,1.43A1.43,1.43,0,0,1,100.34,144.43Z"/><path class="bb1bb3ab-e5a4-4dfc-bdef-a2153ec72717" d="M209.52,144.43a1.47,1.47,0,0,1,2.93,0,1.47,1.47,0,1,1-2.93,0Z"/><path class="bb1bb3ab-e5a4-4dfc-bdef-a2153ec72717" d="M235.53,208.55a1.75,1.75,0,1,1-.67-2.38A1.75,1.75,0,0,1,235.53,208.55Z"/><path class="fe03da53-6214-47b0-8876-84aa5e61067c" d="M210.46,118.06a.92.92,0,1,1,.92.92A.92.92,0,0,1,210.46,118.06Z"/><path class="fe03da53-6214-47b0-8876-84aa5e61067c" d="M224,146.22a.92.92,0,1,1,.92.92A.92.92,0,0,1,224,146.22Z"/><circle class="a18907d9-0f18-4c37-ba40-9d0b4f05ed71" cx="338.85" cy="196.61" r="1.6"/><path class="a18907d9-0f18-4c37-ba40-9d0b4f05ed71" d="M272.64,173.13a1.6,1.6,0,1,1,1.6,1.6A1.6,1.6,0,0,1,272.64,173.13Z"/><path class="bb1bb3ab-e5a4-4dfc-bdef-a2153ec72717" d="M185,128.93a.88.88,0,1,1,.87.88A.87.87,0,0,1,185,128.93Z"/><path class="bb1bb3ab-e5a4-4dfc-bdef-a2153ec72717" d="M402.55,243.31a.87.87,0,1,1,.87.87A.88.88,0,0,1,402.55,243.31Z"/><path class="bb1bb3ab-e5a4-4dfc-bdef-a2153ec72717" d="M317.05,181.92a.88.88,0,1,1,.87.87A.87.87,0,0,1,317.05,181.92Z"/><path class="bb1bb3ab-e5a4-4dfc-bdef-a2153ec72717" d="M235.13,181a1,1,0,0,1,2,0,1,1,0,0,1-2,0Z"/><path class="bb1bb3ab-e5a4-4dfc-bdef-a2153ec72717" d="M219.5,250.45a2,2,0,1,1,2,2A2,2,0,0,1,219.5,250.45Z"/><path class="a18907d9-0f18-4c37-ba40-9d0b4f05ed71" d="M282.93,192.49a1.6,1.6,0,1,1,1.6,1.6A1.6,1.6,0,0,1,282.93,192.49Z"/><path class="a6fa4b02-e23a-42f8-97ac-81de594e0237" d="M354.78,171.52a1.42,1.42,0,1,1,1.42,1.42A1.43,1.43,0,0,1,354.78,171.52Z"/><circle class="fe03da53-6214-47b0-8876-84aa5e61067c" cx="58.9" cy="230.97" r="0.92"/><path class="fe03da53-6214-47b0-8876-84aa5e61067c" d="M87.06,218.38a.92.92,0,1,1,.92-.92A.92.92,0,0,1,87.06,218.38Z"/><path class="fe03da53-6214-47b0-8876-84aa5e61067c" d="M101.19,274.26a.93.93,0,1,1,.92-.92A.92.92,0,0,1,101.19,274.26Z"/><path class="a18907d9-0f18-4c37-ba40-9d0b4f05ed71" d="M75.55,291.78a1.6,1.6,0,1,1,1.59-1.6A1.59,1.59,0,0,1,75.55,291.78Z"/><path class="bb1bb3ab-e5a4-4dfc-bdef-a2153ec72717" d="M69.78,257.35a.87.87,0,1,1,.87-.87A.87.87,0,0,1,69.78,257.35Z"/><path class="bb1bb3ab-e5a4-4dfc-bdef-a2153ec72717" d="M88.6,237.33a.88.88,0,1,1,0-1.75.88.88,0,0,1,0,1.75Z"/><path class="bb1bb3ab-e5a4-4dfc-bdef-a2153ec72717" d="M154.59,217.62a1,1,0,1,1,1-1A1,1,0,0,1,154.59,217.62Z"/><path class="bb1bb3ab-e5a4-4dfc-bdef-a2153ec72717" d="M60.86,312a.88.88,0,1,1,.87-.88A.87.87,0,0,1,60.86,312Z"/><path class="bb1bb3ab-e5a4-4dfc-bdef-a2153ec72717" d="M152.44,279.34a1,1,0,1,1,1-1A1,1,0,0,1,152.44,279.34Z"/><path class="bb1bb3ab-e5a4-4dfc-bdef-a2153ec72717" d="M108.38,292.71a1.75,1.75,0,1,1,1.75-1.75A1.74,1.74,0,0,1,108.38,292.71Z"/><path class="a18907d9-0f18-4c37-ba40-9d0b4f05ed71" d="M164,235.06a1.83,1.83,0,1,1,1.83-1.83A1.83,1.83,0,0,1,164,235.06Z"/><path class="a6fa4b02-e23a-42f8-97ac-81de594e0237" d="M380.1,226.24a1.63,1.63,0,1,1,1.62-1.62A1.63,1.63,0,0,1,380.1,226.24Z"/><path class="bb1bb3ab-e5a4-4dfc-bdef-a2153ec72717" d="M206.89,359.78a1.18,1.18,0,1,1-1.18-1.18A1.18,1.18,0,0,1,206.89,359.78Z"/><path class="a6fa4b02-e23a-42f8-97ac-81de594e0237" d="M224.76,337.05a1.92,1.92,0,1,1-1.92-1.92A1.91,1.91,0,0,1,224.76,337.05Z"/><path class="bb1bb3ab-e5a4-4dfc-bdef-a2153ec72717" d="M178.68,330.23a1.18,1.18,0,1,1,1.18,1.18A1.18,1.18,0,0,1,178.68,330.23Z"/><path class="a18907d9-0f18-4c37-ba40-9d0b4f05ed71" d="M172.3,378.23a2.16,2.16,0,1,1,2.16,2.15A2.16,2.16,0,0,1,172.3,378.23Z"/><path class="a6fa4b02-e23a-42f8-97ac-81de594e0237" d="M83.39,324.41a1.92,1.92,0,1,1,1.92,1.91A1.92,1.92,0,0,1,83.39,324.41Z"/><path class="bb1bb3ab-e5a4-4dfc-bdef-a2153ec72717" d="M403.84,508.21a1,1,0,1,1-1-1A1,1,0,0,1,403.84,508.21Z"/><path class="fe03da53-6214-47b0-8876-84aa5e61067c" d="M242.78,431.25a.89.89,0,1,1-.34-1.2A.89.89,0,0,1,242.78,431.25Z"/><path class="bb1bb3ab-e5a4-4dfc-bdef-a2153ec72717" d="M237.23,513a1,1,0,1,1-.38-1.35A1,1,0,0,1,237.23,513Z"/><path class="fe03da53-6214-47b0-8876-84aa5e61067c" d="M334.31,367.66a.76.76,0,0,1,.77-.77.77.77,0,0,1,.78.77.78.78,0,0,1-.78.78A.77.77,0,0,1,334.31,367.66Z"/><path class="fe03da53-6214-47b0-8876-84aa5e61067c" d="M287.32,379.54a.78.78,0,0,1,1.55,0,.78.78,0,1,1-1.55,0Z"/><path class="bb1bb3ab-e5a4-4dfc-bdef-a2153ec72717" d="M318.37,369a.74.74,0,1,1,.74.73A.74.74,0,0,1,318.37,369Z"/><path class="bb1bb3ab-e5a4-4dfc-bdef-a2153ec72717" d="M334.94,424.44a.84.84,0,1,1,1.68,0,.84.84,0,1,1-1.68,0Z"/><path class="bb1bb3ab-e5a4-4dfc-bdef-a2153ec72717" d="M283,422.64a.85.85,0,0,1,1.69,0,.85.85,0,0,1-1.69,0Z"/><path class="bb1bb3ab-e5a4-4dfc-bdef-a2153ec72717" d="M271.8,385.59a1.47,1.47,0,1,1,1.47,1.47A1.47,1.47,0,0,1,271.8,385.59Z"/><path class="a18907d9-0f18-4c37-ba40-9d0b4f05ed71" d="M319,412.84a1.54,1.54,0,1,1,1.54,1.54A1.53,1.53,0,0,1,319,412.84Z"/><path class="fe03da53-6214-47b0-8876-84aa5e61067c" d="M364.94,426.77a.77.77,0,0,1-.78-.77.78.78,0,0,1,.78-.78.77.77,0,0,1,.77.78A.76.76,0,0,1,364.94,426.77Z"/><path class="fe03da53-6214-47b0-8876-84aa5e61067c" d="M388.62,415.41a.77.77,0,0,1-.78-.77.78.78,0,1,1,1.55,0A.77.77,0,0,1,388.62,415.41Z"/><path class="fe03da53-6214-47b0-8876-84aa5e61067c" d="M400.5,462.4a.77.77,0,0,1-.78-.77.78.78,0,1,1,1.55,0A.77.77,0,0,1,400.5,462.4Z"/><path class="a18907d9-0f18-4c37-ba40-9d0b4f05ed71" d="M378.93,477.14a1.35,1.35,0,1,1,1.35-1.35A1.34,1.34,0,0,1,378.93,477.14Z"/><path class="bb1bb3ab-e5a4-4dfc-bdef-a2153ec72717" d="M374.08,448.19a.74.74,0,1,1,.74-.74A.74.74,0,0,1,374.08,448.19Z"/><path class="bb1bb3ab-e5a4-4dfc-bdef-a2153ec72717" d="M389.91,431.35a.74.74,0,0,1-.74-.74.73.73,0,0,1,.74-.73.72.72,0,0,1,.73.73A.73.73,0,0,1,389.91,431.35Z"/><path class="bb1bb3ab-e5a4-4dfc-bdef-a2153ec72717" d="M366.58,494.13a.74.74,0,1,1,.74-.73A.73.73,0,0,1,366.58,494.13Z"/><path class="bb1bb3ab-e5a4-4dfc-bdef-a2153ec72717" d="M406.55,477.92a1.47,1.47,0,1,1,1.47-1.47A1.47,1.47,0,0,1,406.55,477.92Z"/><path class="fe03da53-6214-47b0-8876-84aa5e61067c" d="M278.51,300.07a.78.78,0,1,1,.78-.78A.78.78,0,0,1,278.51,300.07Z"/><path class="fe03da53-6214-47b0-8876-84aa5e61067c" d="M302.19,288.71a.78.78,0,1,1,0-1.55.78.78,0,0,1,0,1.55Z"/><path class="fe03da53-6214-47b0-8876-84aa5e61067c" d="M373.86,320.64a.78.78,0,1,1,.78-.78A.78.78,0,0,1,373.86,320.64Z"/><path class="a18907d9-0f18-4c37-ba40-9d0b4f05ed71" d="M382.49,366.72a1.34,1.34,0,1,1,1.35-1.34A1.34,1.34,0,0,1,382.49,366.72Z"/><path class="bb1bb3ab-e5a4-4dfc-bdef-a2153ec72717" d="M287.65,321.49a.74.74,0,0,1-.73-.74.74.74,0,0,1,1.47,0A.74.74,0,0,1,287.65,321.49Z"/><path class="bb1bb3ab-e5a4-4dfc-bdef-a2153ec72717" d="M342.68,302a.74.74,0,1,1,.74-.74A.74.74,0,0,1,342.68,302Z"/><path class="bb1bb3ab-e5a4-4dfc-bdef-a2153ec72717" d="M398,284.26a.84.84,0,0,1,0-1.68.84.84,0,0,1,0,1.68Z"/><path class="bb1bb3ab-e5a4-4dfc-bdef-a2153ec72717" d="M379.91,336.15a1.47,1.47,0,1,1,1.47-1.47A1.47,1.47,0,0,1,379.91,336.15Z"/><path class="fe03da53-6214-47b0-8876-84aa5e61067c" d="M388.63,140.58a1,1,0,1,1-2.09,0,1,1,0,0,1,2.09,0Z"/><path class="fe03da53-6214-47b0-8876-84aa5e61067c" d="M347.13,141.46a1,1,0,1,1-1.05-1A1,1,0,0,1,347.13,141.46Z"/><path class="bb1bb3ab-e5a4-4dfc-bdef-a2153ec72717" d="M333.46,105.57a1,1,0,1,1-1-1A1,1,0,0,1,333.46,105.57Z"/><path class="bb1bb3ab-e5a4-4dfc-bdef-a2153ec72717" d="M340.7,130a1.12,1.12,0,1,1-1.12-1.12A1.12,1.12,0,0,1,340.7,130Z"/><path class="bb1bb3ab-e5a4-4dfc-bdef-a2153ec72717" d="M277.88,150.32a1,1,0,1,1-1-1A1,1,0,0,1,277.88,150.32Z"/><path class="a6fa4b02-e23a-42f8-97ac-81de594e0237" d="M295.63,157.55a1.61,1.61,0,1,1-1.61-1.61A1.61,1.61,0,0,1,295.63,157.55Z"/><path class="fe03da53-6214-47b0-8876-84aa5e61067c" d="M213.66,37.53a.89.89,0,0,1-1.21.33.88.88,0,0,1-.34-1.2.89.89,0,1,1,1.55.87Z"/><path class="bb1bb3ab-e5a4-4dfc-bdef-a2153ec72717" d="M261.17,102.18a1,1,0,1,1-.38-1.35A1,1,0,0,1,261.17,102.18Z"/><path class="bb1bb3ab-e5a4-4dfc-bdef-a2153ec72717" d="M358.88,13.6a.84.84,0,1,1,.84.84A.85.85,0,0,1,358.88,13.6Z"/><path class="bb1bb3ab-e5a4-4dfc-bdef-a2153ec72717" d="M276.07,21.44a.84.84,0,1,1,.84.84A.84.84,0,0,1,276.07,21.44Z"/><path class="a18907d9-0f18-4c37-ba40-9d0b4f05ed71" d="M344.22,21.49A1.54,1.54,0,1,1,345.76,23,1.54,1.54,0,0,1,344.22,21.49Z"/><path class="a6fa4b02-e23a-42f8-97ac-81de594e0237" d="M320.8,22.31a1.37,1.37,0,1,1,1.37,1.37A1.37,1.37,0,0,1,320.8,22.31Z"/><path class="fe03da53-6214-47b0-8876-84aa5e61067c" d="M388.88,15.92a.77.77,0,0,1-.78-.77.78.78,0,1,1,1.55,0A.77.77,0,0,1,388.88,15.92Z"/><path class="fe03da53-6214-47b0-8876-84aa5e61067c" d="M330.11,59.77a.78.78,0,1,1,0-1.55.78.78,0,0,1,0,1.55Z"/><path class="a18907d9-0f18-4c37-ba40-9d0b4f05ed71" d="M308.55,74.51a1.35,1.35,0,1,1,1.34-1.35A1.35,1.35,0,0,1,308.55,74.51Z"/><path class="bb1bb3ab-e5a4-4dfc-bdef-a2153ec72717" d="M398,37.34a.74.74,0,1,1,.73-.73A.74.74,0,0,1,398,37.34Z"/><path class="bb1bb3ab-e5a4-4dfc-bdef-a2153ec72717" d="M296.2,91.5a.74.74,0,1,1,.73-.74A.74.74,0,0,1,296.2,91.5Z"/><path class="bb1bb3ab-e5a4-4dfc-bdef-a2153ec72717" d="M336.16,75.29a1.47,1.47,0,1,1,1.47-1.47A1.47,1.47,0,0,1,336.16,75.29Z"/><path class="a6fa4b02-e23a-42f8-97ac-81de594e0237" d="M89,6.15a1.62,1.62,0,1,1-1.61-1.61A1.61,1.61,0,0,1,89,6.15Z"/><path class="bb1bb3ab-e5a4-4dfc-bdef-a2153ec72717" d="M106.55,511.33a1,1,0,1,1,1.4,0A1,1,0,0,1,106.55,511.33Z"/><path class="bb1bb3ab-e5a4-4dfc-bdef-a2153ec72717" d="M214.49,521.83a.84.84,0,0,1,0,1.19.83.83,0,0,1-1.18,0,.84.84,0,1,1,1.18-1.19Z"/><path class="a18907d9-0f18-4c37-ba40-9d0b4f05ed71" d="M146.13,515.68a1.33,1.33,0,0,1,1.9,0,1.34,1.34,0,0,1-1.9,1.9A1.33,1.33,0,0,1,146.13,515.68Z"/><path class="a6fa4b02-e23a-42f8-97ac-81de594e0237" d="M86.42,515.12a1.61,1.61,0,1,1-2.28,0A1.61,1.61,0,0,1,86.42,515.12Z"/><path class="fe03da53-6214-47b0-8876-84aa5e61067c" d="M373.67,561.66a.77.77,0,0,1,.77-.78.78.78,0,0,1,.78.78.77.77,0,0,1-.78.77A.76.76,0,0,1,373.67,561.66Z"/><path class="bb1bb3ab-e5a4-4dfc-bdef-a2153ec72717" d="M404.72,551.07a.74.74,0,1,1,.74.74A.74.74,0,0,1,404.72,551.07Z"/><path class="bb1bb3ab-e5a4-4dfc-bdef-a2153ec72717" d="M160.34,570.23a1.46,1.46,0,1,1-2.55-1.44,1.46,1.46,0,1,1,2.55,1.44Z"/><path class="bb1bb3ab-e5a4-4dfc-bdef-a2153ec72717" d="M137.59,604a1.46,1.46,0,1,1-.55-2A1.47,1.47,0,0,1,137.59,604Z"/><path class="fe03da53-6214-47b0-8876-84aa5e61067c" d="M-.56,613.75a.92.92,0,0,1,.92-.92.92.92,0,1,1,0,1.84A.92.92,0,0,1-.56,613.75Z"/><path class="bb1bb3ab-e5a4-4dfc-bdef-a2153ec72717" d="M96.33,599.56a1.3,1.3,0,1,1-1.3-1.29A1.3,1.3,0,0,1,96.33,599.56Z"/><path class="bb1bb3ab-e5a4-4dfc-bdef-a2153ec72717" d="M205.71,590.18a1.3,1.3,0,1,1-1.3-1.3A1.3,1.3,0,0,1,205.71,590.18Z"/><path class="fe03da53-6214-47b0-8876-84aa5e61067c" d="M244.83,599.83a1.25,1.25,0,1,1,1.25,1.24A1.24,1.24,0,0,1,244.83,599.83Z"/><path class="fe03da53-6214-47b0-8876-84aa5e61067c" d="M321.38,561.55a.78.78,0,0,1,.78-.78.78.78,0,1,1-.78.78Z"/><path class="fe03da53-6214-47b0-8876-84aa5e61067c" d="M274.39,573.43a.78.78,0,0,1,.78-.78.78.78,0,1,1-.78.78Z"/><path class="bb1bb3ab-e5a4-4dfc-bdef-a2153ec72717" d="M305.45,562.84a.74.74,0,1,1,.73.73A.74.74,0,0,1,305.45,562.84Z"/><path class="bb1bb3ab-e5a4-4dfc-bdef-a2153ec72717" d="M258.88,579.48a1.47,1.47,0,1,1,1.47,1.47A1.47,1.47,0,0,1,258.88,579.48Z"/><path class="bb1bb3ab-e5a4-4dfc-bdef-a2153ec72717" d="M47.71,583.56a1,1,0,1,1-1-1A1,1,0,0,1,47.71,583.56Z"/><path class="a6fa4b02-e23a-42f8-97ac-81de594e0237" d="M52.13,610.88a1.62,1.62,0,1,1-1.62-1.61A1.62,1.62,0,0,1,52.13,610.88Z"/><path class="a18907d9-0f18-4c37-ba40-9d0b4f05ed71" d="M22.8,552.49a1.35,1.35,0,1,1,1.35-1.34A1.34,1.34,0,0,1,22.8,552.49Z"/><path class="bb1bb3ab-e5a4-4dfc-bdef-a2153ec72717" d="M10.45,569.48a.74.74,0,1,1,.74-.73A.73.73,0,0,1,10.45,569.48Z"/><path class="bb1bb3ab-e5a4-4dfc-bdef-a2153ec72717" d="M50.42,553.27a1.47,1.47,0,1,1,1.47-1.47A1.47,1.47,0,0,1,50.42,553.27Z"/><circle class="a6fa4b02-e23a-42f8-97ac-81de594e0237" cx="66.23" cy="595.1" r="1.61"/></g><g class="fe36736b-130e-42ce-91f7-35f74d58fe7a"><path class="be71ae8b-7d7e-4bc4-90ff-991ec0584472" d="M150,309.38V831.7a15.78,15.78,0,0,0,15.78,15.77H322.52a2.26,2.26,0,0,1-.06,4.51h-8.89a2.95,2.95,0,0,0,0,5.89h32.61a2.57,2.57,0,1,1,0,5.14H329.62a4.39,4.39,0,0,0,0,8.78h5.17a5.28,5.28,0,0,1,0,10.55h-7a2.53,2.53,0,0,0-2.53,2.53h0a2.53,2.53,0,0,0,2.53,2.53h33.81a2.75,2.75,0,0,1,2.76,2.76h0a2.76,2.76,0,0,1-2.76,2.76H344.39a3.26,3.26,0,1,0,0,6.52h7.22a3.26,3.26,0,0,1,3.26,3.27V905a6.29,6.29,0,0,0,6.28,6.29h9.59a4.58,4.58,0,0,1,4.58,4.58,4.59,4.59,0,0,0,4.32,4.58l30.76,6.86V309.38Z"/><g class="e76e343e-7d10-4032-bcae-4e37aeb81d31"><path class="fe03da53-6214-47b0-8876-84aa5e61067c" d="M347.79,494.33a.48.48,0,0,1-1,0,.48.48,0,0,1,1,0Z"/><path class="fe03da53-6214-47b0-8876-84aa5e61067c" d="M360.43,473.26a.72.72,0,1,1-.72-.71A.72.72,0,0,1,360.43,473.26Z"/><path class="fe03da53-6214-47b0-8876-84aa5e61067c" d="M403.65,462.33a.71.71,0,1,1-.71-.71A.71.71,0,0,1,403.65,462.33Z"/><path class="bb1bb3ab-e5a4-4dfc-bdef-a2153ec72717" d="M390.58,486.63a.68.68,0,1,1-.68-.67A.68.68,0,0,1,390.58,486.63Z"/><path class="bb1bb3ab-e5a4-4dfc-bdef-a2153ec72717" d="M375.08,472.07a.68.68,0,1,1-.67-.67A.67.67,0,0,1,375.08,472.07Z"/><circle class="bb1bb3ab-e5a4-4dfc-bdef-a2153ec72717" cx="383.11" cy="441.75" r="0.68"/><path class="bb1bb3ab-e5a4-4dfc-bdef-a2153ec72717" d="M389.56,493.31a.46.46,0,1,1-.92,0,.46.46,0,0,1,.92,0Z"/><path class="bb1bb3ab-e5a4-4dfc-bdef-a2153ec72717" d="M328.71,466.84a.77.77,0,1,1-1.53,0,.77.77,0,0,1,1.53,0Z"/><path class="bb1bb3ab-e5a4-4dfc-bdef-a2153ec72717" d="M315.92,497.61a.52.52,0,0,1-.52.51.52.52,0,0,1,0-1A.52.52,0,0,1,315.92,497.61Z"/><path class="a18907d9-0f18-4c37-ba40-9d0b4f05ed71" d="M306.94,514.2a.94.94,0,1,1-.94-1A.94.94,0,0,1,306.94,514.2Z"/><path class="a18907d9-0f18-4c37-ba40-9d0b4f05ed71" d="M387.9,467.75a1.24,1.24,0,1,1-1.23-1.24A1.23,1.23,0,0,1,387.9,467.75Z"/><path class="fe03da53-6214-47b0-8876-84aa5e61067c" d="M327.49,576.24a.55.55,0,0,1-1-.54.55.55,0,0,1,.75-.21A.55.55,0,0,1,327.49,576.24Z"/><path class="bb1bb3ab-e5a4-4dfc-bdef-a2153ec72717" d="M336.42,541a.91.91,0,1,1-1.59-.89.91.91,0,1,1,1.59.89Z"/><path class="bb1bb3ab-e5a4-4dfc-bdef-a2153ec72717" d="M341.13,563.7a.51.51,0,0,1-.71.19.52.52,0,1,1,.71-.19Z"/><path class="bb1bb3ab-e5a4-4dfc-bdef-a2153ec72717" d="M316.51,543.59a.52.52,0,0,1-.7.19.51.51,0,0,1-.2-.7.52.52,0,0,1,.71-.2A.53.53,0,0,1,316.51,543.59Z"/><path class="fe03da53-6214-47b0-8876-84aa5e61067c" d="M398.6,548.17a.49.49,0,0,1,.48-.49.49.49,0,1,1-.48.49Z"/><circle class="a18907d9-0f18-4c37-ba40-9d0b4f05ed71" cx="390.3" cy="534.79" r="0.83"/><circle class="a18907d9-0f18-4c37-ba40-9d0b4f05ed71" cx="344.62" cy="525.71" r="0.83"/><path class="bb1bb3ab-e5a4-4dfc-bdef-a2153ec72717" d="M407.41,531.79a.46.46,0,0,1,.46-.46.46.46,0,0,1,0,.91A.46.46,0,0,1,407.41,531.79Z"/><path class="bb1bb3ab-e5a4-4dfc-bdef-a2153ec72717" d="M378.93,527.14a.46.46,0,0,1,.45-.46.47.47,0,0,1,.46.46.46.46,0,0,1-.46.45A.45.45,0,0,1,378.93,527.14Z"/><path class="bb1bb3ab-e5a4-4dfc-bdef-a2153ec72717" d="M336.22,526.66a.52.52,0,1,1,.51.51A.51.51,0,0,1,336.22,526.66Z"/><path class="bb1bb3ab-e5a4-4dfc-bdef-a2153ec72717" d="M346.87,542.85a1,1,0,1,1,1,1A1,1,0,0,1,346.87,542.85Z"/><path class="bb1bb3ab-e5a4-4dfc-bdef-a2153ec72717" d="M389,551.92a.91.91,0,1,1,.91.91A.91.91,0,0,1,389,551.92Z"/><path class="fe03da53-6214-47b0-8876-84aa5e61067c" d="M365.75,553.2a.48.48,0,0,1,.48-.48.49.49,0,1,1-.48.48Z"/><path class="bb1bb3ab-e5a4-4dfc-bdef-a2153ec72717" d="M385,546.64a.47.47,0,0,1,.46-.46.46.46,0,0,1,0,.92A.47.47,0,0,1,385,546.64Z"/><path class="bb1bb3ab-e5a4-4dfc-bdef-a2153ec72717" d="M356.12,557a.92.92,0,1,1,.92.91A.91.91,0,0,1,356.12,557Z"/><path class="a18907d9-0f18-4c37-ba40-9d0b4f05ed71" d="M361.14,532.65a.83.83,0,1,1,1.66,0,.83.83,0,1,1-1.66,0Z"/><path class="a6fa4b02-e23a-42f8-97ac-81de594e0237" d="M353.49,526.12a.74.74,0,1,1,.74.74A.74.74,0,0,1,353.49,526.12Z"/><path class="a18907d9-0f18-4c37-ba40-9d0b4f05ed71" d="M395.69,607.59a.83.83,0,1,1,.83-.83A.83.83,0,0,1,395.69,607.59Z"/><path class="fe03da53-6214-47b0-8876-84aa5e61067c" d="M309.54,604.72a.41.41,0,1,1,.4-.4A.4.4,0,0,1,309.54,604.72Z"/><path class="fe03da53-6214-47b0-8876-84aa5e61067c" d="M311.47,562.92a.41.41,0,0,1-.4-.41.4.4,0,0,1,.4-.4.41.41,0,0,1,.41.4A.42.42,0,0,1,311.47,562.92Z"/><path class="bb1bb3ab-e5a4-4dfc-bdef-a2153ec72717" d="M322.56,607.11a.39.39,0,0,1-.38-.39.38.38,0,0,1,.76,0A.39.39,0,0,1,322.56,607.11Z"/><path class="bb1bb3ab-e5a4-4dfc-bdef-a2153ec72717" d="M351.49,598.47a.44.44,0,1,1,.44-.44A.44.44,0,0,1,351.49,598.47Z"/><path class="fe03da53-6214-47b0-8876-84aa5e61067c" d="M307.23,441.27a.41.41,0,1,1,.81,0,.41.41,0,0,1-.81,0Z"/><path class="bb1bb3ab-e5a4-4dfc-bdef-a2153ec72717" d="M323.42,435.75a.4.4,0,0,1,.39-.39.39.39,0,0,1,.38.39.38.38,0,0,1-.38.38A.39.39,0,0,1,323.42,435.75Z"/><path class="bb1bb3ab-e5a4-4dfc-bdef-a2153ec72717" d="M355.06,451.89a.52.52,0,0,1-.52.52.52.52,0,1,1,0-1A.51.51,0,0,1,355.06,451.89Z"/><path class="a18907d9-0f18-4c37-ba40-9d0b4f05ed71" d="M342.07,435.69a.7.7,0,1,1,.7-.7A.7.7,0,0,1,342.07,435.69Z"/><path class="bb1bb3ab-e5a4-4dfc-bdef-a2153ec72717" d="M335.63,444.55a.38.38,0,1,1,.38-.38A.38.38,0,0,1,335.63,444.55Z"/><circle class="bb1bb3ab-e5a4-4dfc-bdef-a2153ec72717" cx="356.47" cy="435.33" r="0.77"/><path class="a6fa4b02-e23a-42f8-97ac-81de594e0237" d="M186.24,527.2a1.26,1.26,0,1,1-1.26-1.26A1.26,1.26,0,0,1,186.24,527.2Z"/><path class="fe03da53-6214-47b0-8876-84aa5e61067c" d="M34.15,490.61a.48.48,0,0,1-.48.48.49.49,0,0,1-.48-.48.48.48,0,0,1,.48-.48A.47.47,0,0,1,34.15,490.61Z"/><path class="fe03da53-6214-47b0-8876-84aa5e61067c" d="M46.79,469.54a.72.72,0,1,1-.71-.71A.71.71,0,0,1,46.79,469.54Z"/><path class="fe03da53-6214-47b0-8876-84aa5e61067c" d="M90,458.61a.72.72,0,1,1-.72-.71A.71.71,0,0,1,90,458.61Z"/><path class="a18907d9-0f18-4c37-ba40-9d0b4f05ed71" d="M103.57,478.45a1.24,1.24,0,1,1-1.23-1.24A1.23,1.23,0,0,1,103.57,478.45Z"/><path class="a18907d9-0f18-4c37-ba40-9d0b4f05ed71" d="M111.06,491a.84.84,0,0,1-.84.83.84.84,0,0,1,0-1.67A.84.84,0,0,1,111.06,491Z"/><path class="bb1bb3ab-e5a4-4dfc-bdef-a2153ec72717" d="M76.94,482.91a.68.68,0,1,1-.68-.68A.68.68,0,0,1,76.94,482.91Z"/><path class="bb1bb3ab-e5a4-4dfc-bdef-a2153ec72717" d="M61.45,468.35a.68.68,0,0,1-1.36,0,.68.68,0,1,1,1.36,0Z"/><circle class="bb1bb3ab-e5a4-4dfc-bdef-a2153ec72717" cx="69.48" cy="438.03" r="0.68"/><path class="bb1bb3ab-e5a4-4dfc-bdef-a2153ec72717" d="M75.92,489.59a.46.46,0,1,1-.46-.46A.45.45,0,0,1,75.92,489.59Z"/><path class="bb1bb3ab-e5a4-4dfc-bdef-a2153ec72717" d="M15.07,463.12a.77.77,0,1,1-.76-.77A.76.76,0,0,1,15.07,463.12Z"/><path class="bb1bb3ab-e5a4-4dfc-bdef-a2153ec72717" d="M182.57,490.52a.77.77,0,1,1-.76-.77A.76.76,0,0,1,182.57,490.52Z"/><path class="bb1bb3ab-e5a4-4dfc-bdef-a2153ec72717" d="M2.28,493.88a.52.52,0,1,1-.52-.51A.52.52,0,0,1,2.28,493.88Z"/><path class="bb1bb3ab-e5a4-4dfc-bdef-a2153ec72717" d="M111.9,439.48a.68.68,0,1,1-.68-.67A.67.67,0,0,1,111.9,439.48Z"/><path class="a18907d9-0f18-4c37-ba40-9d0b4f05ed71" d="M74.27,464A1.24,1.24,0,1,1,73,462.79,1.25,1.25,0,0,1,74.27,464Z"/><path class="a6fa4b02-e23a-42f8-97ac-81de594e0237" d="M101.36,490.61a.75.75,0,1,1-.75-.74A.75.75,0,0,1,101.36,490.61Z"/><path class="a6fa4b02-e23a-42f8-97ac-81de594e0237" d="M100.78,431a1.1,1.1,0,1,1-1.1-1.1A1.1,1.1,0,0,1,100.78,431Z"/><path class="fe03da53-6214-47b0-8876-84aa5e61067c" d="M13.85,572.51a.54.54,0,0,1-.75.21.55.55,0,0,1,.54-1A.55.55,0,0,1,13.85,572.51Z"/><path class="fe03da53-6214-47b0-8876-84aa5e61067c" d="M57.34,576.5a.54.54,0,0,1-.74.21.54.54,0,1,1,.53-1A.53.53,0,0,1,57.34,576.5Z"/><path class="bb1bb3ab-e5a4-4dfc-bdef-a2153ec72717" d="M22.79,537.3a.92.92,0,0,1-1.25.34.91.91,0,0,1,.9-1.58A.91.91,0,0,1,22.79,537.3Z"/><path class="bb1bb3ab-e5a4-4dfc-bdef-a2153ec72717" d="M27.49,560a.52.52,0,0,1-.71.2.51.51,0,0,1-.19-.71.52.52,0,0,1,.71-.2A.51.51,0,0,1,27.49,560Z"/><path class="bb1bb3ab-e5a4-4dfc-bdef-a2153ec72717" d="M2.87,539.86a.51.51,0,0,1-.7.2.52.52,0,0,1,.51-.9A.51.51,0,0,1,2.87,539.86Z"/><path class="fe03da53-6214-47b0-8876-84aa5e61067c" d="M228.11,480.1a.73.73,0,0,1-1,.27.72.72,0,1,1,1-.27Z"/><path class="fe03da53-6214-47b0-8876-84aa5e61067c" d="M227.3,460a.72.72,0,1,1-.28-1A.71.71,0,0,1,227.3,460Z"/><path class="bb1bb3ab-e5a4-4dfc-bdef-a2153ec72717" d="M205.2,434.83a.76.76,0,1,1-.29-1A.76.76,0,0,1,205.2,434.83Z"/><path class="bb1bb3ab-e5a4-4dfc-bdef-a2153ec72717" d="M193.34,452.41a.76.76,0,1,1-.29-1A.76.76,0,0,1,193.34,452.41Z"/><path class="fe03da53-6214-47b0-8876-84aa5e61067c" d="M107.06,522.39a.48.48,0,0,1,.48-.48.49.49,0,0,1,.48.48.48.48,0,0,1-.48.48A.47.47,0,0,1,107.06,522.39Z"/><path class="fe03da53-6214-47b0-8876-84aa5e61067c" d="M121.31,457.52a.47.47,0,0,1,.48-.48.48.48,0,0,1,.48.48.49.49,0,0,1-.48.48A.48.48,0,0,1,121.31,457.52Z"/><path class="fe03da53-6214-47b0-8876-84aa5e61067c" d="M78.08,594.91a.48.48,0,0,1,.48-.48.49.49,0,0,1,.48.48.48.48,0,0,1-.48.48A.47.47,0,0,1,78.08,594.91Z"/><circle class="a18907d9-0f18-4c37-ba40-9d0b4f05ed71" cx="76.66" cy="531.07" r="0.83"/><circle class="a18907d9-0f18-4c37-ba40-9d0b4f05ed71" cx="30.99" cy="521.98" r="0.83"/><path class="bb1bb3ab-e5a4-4dfc-bdef-a2153ec72717" d="M93.78,528.06a.45.45,0,0,1,.45-.45.46.46,0,0,1,.46.45.47.47,0,0,1-.46.46A.46.46,0,0,1,93.78,528.06Z"/><path class="bb1bb3ab-e5a4-4dfc-bdef-a2153ec72717" d="M97.33,588.35a.47.47,0,0,1,.46-.46.46.46,0,0,1,.45.46.45.45,0,0,1-.45.45A.46.46,0,0,1,97.33,588.35Z"/><path class="fe03da53-6214-47b0-8876-84aa5e61067c" d="M256.12,564.69a.71.71,0,1,1,.71.71A.71.71,0,0,1,256.12,564.69Z"/><path class="fe03da53-6214-47b0-8876-84aa5e61067c" d="M266.57,586.47a.71.71,0,1,1,.71.71A.71.71,0,0,1,266.57,586.47Z"/><path class="bb1bb3ab-e5a4-4dfc-bdef-a2153ec72717" d="M236.42,573.1a.68.68,0,1,1,.67.67A.67.67,0,0,1,236.42,573.1Z"/><path class="bb1bb3ab-e5a4-4dfc-bdef-a2153ec72717" d="M251.91,587.66a.68.68,0,1,1,.68.68A.68.68,0,0,1,251.91,587.66Z"/><path class="bb1bb3ab-e5a4-4dfc-bdef-a2153ec72717" d="M65.29,523.41a.46.46,0,0,1,.91,0,.46.46,0,1,1-.91,0Z"/><path class="bb1bb3ab-e5a4-4dfc-bdef-a2153ec72717" d="M22.58,522.93a.52.52,0,1,1,.51.52A.51.51,0,0,1,22.58,522.93Z"/><path class="bb1bb3ab-e5a4-4dfc-bdef-a2153ec72717" d="M33.24,539.13a1,1,0,1,1,1,1A1,1,0,0,1,33.24,539.13Z"/><path class="bb1bb3ab-e5a4-4dfc-bdef-a2153ec72717" d="M68.45,598.66a.92.92,0,1,1,.92.92A.92.92,0,0,1,68.45,598.66Z"/><path class="fe03da53-6214-47b0-8876-84aa5e61067c" d="M52.11,549.48a.47.47,0,0,1,.48-.48.48.48,0,0,1,0,1A.47.47,0,0,1,52.11,549.48Z"/><path class="bb1bb3ab-e5a4-4dfc-bdef-a2153ec72717" d="M64.48,593.39a.46.46,0,1,1,.91,0,.46.46,0,0,1-.91,0Z"/><path class="bb1bb3ab-e5a4-4dfc-bdef-a2153ec72717" d="M42.49,553.23a.91.91,0,1,1,.91.91A.91.91,0,0,1,42.49,553.23Z"/><path class="a18907d9-0f18-4c37-ba40-9d0b4f05ed71" d="M47.5,528.92a.83.83,0,0,1,.83-.83.84.84,0,0,1,.84.83.85.85,0,0,1-.84.84A.84.84,0,0,1,47.5,528.92Z"/><path class="a6fa4b02-e23a-42f8-97ac-81de594e0237" d="M39.85,522.39a.75.75,0,1,1,.74.74A.74.74,0,0,1,39.85,522.39Z"/><path class="fe03da53-6214-47b0-8876-84aa5e61067c" d="M135.83,502.7a.48.48,0,0,1-.48.48.48.48,0,0,1,0-1A.48.48,0,0,1,135.83,502.7Z"/><path class="fe03da53-6214-47b0-8876-84aa5e61067c" d="M148.46,481.63a.71.71,0,1,1-.71-.71A.71.71,0,0,1,148.46,481.63Z"/><path class="fe03da53-6214-47b0-8876-84aa5e61067c" d="M191.69,470.7A.72.72,0,1,1,191,470,.71.71,0,0,1,191.69,470.7Z"/><path class="a18907d9-0f18-4c37-ba40-9d0b4f05ed71" d="M205.25,490.54A1.24,1.24,0,1,1,204,489.3,1.25,1.25,0,0,1,205.25,490.54Z"/><path class="a18907d9-0f18-4c37-ba40-9d0b4f05ed71" d="M212.73,503.11a.83.83,0,0,1-.83.83.84.84,0,0,1-.84-.83.85.85,0,0,1,.84-.84A.84.84,0,0,1,212.73,503.11Z"/><path class="bb1bb3ab-e5a4-4dfc-bdef-a2153ec72717" d="M178.61,495a.68.68,0,1,1-.67-.67A.67.67,0,0,1,178.61,495Z"/><path class="bb1bb3ab-e5a4-4dfc-bdef-a2153ec72717" d="M163.12,480.44a.68.68,0,1,1-.68-.67A.67.67,0,0,1,163.12,480.44Z"/><path class="bb1bb3ab-e5a4-4dfc-bdef-a2153ec72717" d="M171.83,450.12a.68.68,0,1,1-.68-.67A.68.68,0,0,1,171.83,450.12Z"/><path class="bb1bb3ab-e5a4-4dfc-bdef-a2153ec72717" d="M177.59,501.68a.46.46,0,0,1-.45.46.46.46,0,1,1,0-.92A.46.46,0,0,1,177.59,501.68Z"/><path class="bb1bb3ab-e5a4-4dfc-bdef-a2153ec72717" d="M228.86,445.23a.68.68,0,1,1-.68-.68A.68.68,0,0,1,228.86,445.23Z"/><path class="a6fa4b02-e23a-42f8-97ac-81de594e0237" d="M203,502.7a.74.74,0,1,1-.74-.74A.74.74,0,0,1,203,502.7Z"/><path class="bb1bb3ab-e5a4-4dfc-bdef-a2153ec72717" d="M110.47,604.11a.91.91,0,1,1-.35-1.24A.92.92,0,0,1,110.47,604.11Z"/><circle class="fe03da53-6214-47b0-8876-84aa5e61067c" cx="313.73" cy="486.04" r="0.48"/><path class="fe03da53-6214-47b0-8876-84aa5e61067c" d="M206.32,571.79a.48.48,0,0,1,.48-.48.49.49,0,0,1,.48.48.48.48,0,0,1-.48.48A.47.47,0,0,1,206.32,571.79Z"/><path class="a18907d9-0f18-4c37-ba40-9d0b4f05ed71" d="M177.5,543.16a.83.83,0,0,1,.83-.83.84.84,0,0,1,.84.83.85.85,0,0,1-.84.84A.84.84,0,0,1,177.5,543.16Z"/><path class="a18907d9-0f18-4c37-ba40-9d0b4f05ed71" d="M131.83,534.08a.83.83,0,1,1,1.66,0,.83.83,0,0,1-1.66,0Z"/><path class="bb1bb3ab-e5a4-4dfc-bdef-a2153ec72717" d="M195.45,540.15a.46.46,0,1,1,.46.46A.45.45,0,0,1,195.45,540.15Z"/><path class="bb1bb3ab-e5a4-4dfc-bdef-a2153ec72717" d="M195.2,554.61a.46.46,0,1,1,.46.45A.45.45,0,0,1,195.2,554.61Z"/><path class="bb1bb3ab-e5a4-4dfc-bdef-a2153ec72717" d="M167,535.51a.46.46,0,1,1,.46.45A.46.46,0,0,1,167,535.51Z"/><path class="bb1bb3ab-e5a4-4dfc-bdef-a2153ec72717" d="M118.5,521.57a.52.52,0,1,1,.52.52A.51.51,0,0,1,118.5,521.57Z"/><path class="a18907d9-0f18-4c37-ba40-9d0b4f05ed71" d="M149.17,541a.85.85,0,0,1,.84-.84.84.84,0,0,1,.83.84.83.83,0,0,1-.83.83A.84.84,0,0,1,149.17,541Z"/><path class="a6fa4b02-e23a-42f8-97ac-81de594e0237" d="M154.7,528.13a.74.74,0,1,1,.74.74A.74.74,0,0,1,154.7,528.13Z"/><path class="bb1bb3ab-e5a4-4dfc-bdef-a2153ec72717" d="M211.62,528.13a.78.78,0,0,1,.77-.77.77.77,0,0,1,.76.77.76.76,0,0,1-.76.76A.77.77,0,0,1,211.62,528.13Z"/><path class="bb1bb3ab-e5a4-4dfc-bdef-a2153ec72717" d="M225.19,561.56a.91.91,0,1,1-.35-1.24A.91.91,0,0,1,225.19,561.56Z"/><path class="fe03da53-6214-47b0-8876-84aa5e61067c" d="M212.11,514.37a.49.49,0,0,1,.48-.48.49.49,0,0,1,0,1A.49.49,0,0,1,212.11,514.37Z"/><path class="fe03da53-6214-47b0-8876-84aa5e61067c" d="M219.16,529.06a.47.47,0,0,1,.48-.48.48.48,0,0,1,.48.48.49.49,0,0,1-.48.48A.48.48,0,0,1,219.16,529.06Z"/><circle class="a18907d9-0f18-4c37-ba40-9d0b4f05ed71" cx="279.06" cy="555.33" r="0.83"/><path class="a18907d9-0f18-4c37-ba40-9d0b4f05ed71" d="M244.54,543.09a.83.83,0,1,1,1.66,0,.83.83,0,0,1-1.66,0Z"/><path class="bb1bb3ab-e5a4-4dfc-bdef-a2153ec72717" d="M198.83,520a.46.46,0,1,1,.46.46A.46.46,0,0,1,198.83,520Z"/><path class="bb1bb3ab-e5a4-4dfc-bdef-a2153ec72717" d="M312.27,579.68a.46.46,0,0,1,.46-.45.45.45,0,0,1,.45.45.46.46,0,0,1-.45.46A.47.47,0,0,1,312.27,579.68Z"/><path class="bb1bb3ab-e5a4-4dfc-bdef-a2153ec72717" d="M267.69,547.67a.46.46,0,0,1,.46-.45.45.45,0,0,1,.45.45.46.46,0,0,1-.45.46A.47.47,0,0,1,267.69,547.67Z"/><path class="bb1bb3ab-e5a4-4dfc-bdef-a2153ec72717" d="M225,547.19a.52.52,0,1,1,.52.52A.51.51,0,0,1,225,547.19Z"/><path class="bb1bb3ab-e5a4-4dfc-bdef-a2153ec72717" d="M216.83,583.41a1,1,0,1,1,1,1A1,1,0,0,1,216.83,583.41Z"/><path class="a18907d9-0f18-4c37-ba40-9d0b4f05ed71" d="M249.9,553.18a.84.84,0,0,1,.84-.83.83.83,0,0,1,.83.83.84.84,0,0,1-.83.84A.85.85,0,0,1,249.9,553.18Z"/><path class="a6fa4b02-e23a-42f8-97ac-81de594e0237" d="M287.37,542.25a.74.74,0,1,1,.74.74A.74.74,0,0,1,287.37,542.25Z"/><circle class="fe03da53-6214-47b0-8876-84aa5e61067c" cx="133.09" cy="573.25" r="0.48"/><path class="fe03da53-6214-47b0-8876-84aa5e61067c" d="M147.77,566.68a.48.48,0,0,1-.48-.48.49.49,0,0,1,.48-.48.48.48,0,0,1,.48.48A.47.47,0,0,1,147.77,566.68Z"/><path class="fe03da53-6214-47b0-8876-84aa5e61067c" d="M155.14,595.82a.48.48,0,0,1-.48-.48.48.48,0,0,1,1,0A.48.48,0,0,1,155.14,595.82Z"/><path class="a18907d9-0f18-4c37-ba40-9d0b4f05ed71" d="M141.77,605a.84.84,0,0,1-.83-.84.83.83,0,0,1,1.66,0A.84.84,0,0,1,141.77,605Z"/><path class="bb1bb3ab-e5a4-4dfc-bdef-a2153ec72717" d="M138.76,587a.46.46,0,0,1,0-.92.46.46,0,0,1,0,.92Z"/><path class="bb1bb3ab-e5a4-4dfc-bdef-a2153ec72717" d="M148.58,576.56a.46.46,0,1,1,.45-.45A.45.45,0,0,1,148.58,576.56Z"/><path class="bb1bb3ab-e5a4-4dfc-bdef-a2153ec72717" d="M183,566.29a.52.52,0,1,1,.52-.52A.52.52,0,0,1,183,566.29Z"/><path class="bb1bb3ab-e5a4-4dfc-bdef-a2153ec72717" d="M181.86,598.47a.52.52,0,1,1,.52-.52A.52.52,0,0,1,181.86,598.47Z"/><path class="bb1bb3ab-e5a4-4dfc-bdef-a2153ec72717" d="M158.89,605.44a.91.91,0,1,1,0-1.82.91.91,0,0,1,0,1.82Z"/><path class="a18907d9-0f18-4c37-ba40-9d0b4f05ed71" d="M187.88,575.38a1,1,0,1,1,1-1A1,1,0,0,1,187.88,575.38Z"/><path class="a6fa4b02-e23a-42f8-97ac-81de594e0237" d="M300.57,570.78a.85.85,0,1,1,.85-.84A.85.85,0,0,1,300.57,570.78Z"/><path class="fe03da53-6214-47b0-8876-84aa5e61067c" d="M247.6,609.28a.41.41,0,1,1,0-.81.41.41,0,0,1,0,.81Z"/><path class="fe03da53-6214-47b0-8876-84aa5e61067c" d="M259.94,603.35a.4.4,0,1,1,.41-.4A.4.4,0,0,1,259.94,603.35Z"/><path class="bb1bb3ab-e5a4-4dfc-bdef-a2153ec72717" d="M281.06,610.27a.39.39,0,1,1,0-.77.39.39,0,0,1,0,.77Z"/><path class="bb1bb3ab-e5a4-4dfc-bdef-a2153ec72717" d="M309.91,601a.44.44,0,1,1,.44-.44A.43.43,0,0,1,309.91,601Z"/><path class="fe03da53-6214-47b0-8876-84aa5e61067c" d="M249.26,450.26a.65.65,0,1,1,.65.65A.65.65,0,0,1,249.26,450.26Z"/><path class="fe03da53-6214-47b0-8876-84aa5e61067c" d="M305,526.12a.54.54,0,0,1-.54.54.55.55,0,0,1-.55-.54.55.55,0,0,1,.55-.55A.55.55,0,0,1,305,526.12Z"/><path class="fe03da53-6214-47b0-8876-84aa5e61067c" d="M283.38,526.58a.55.55,0,0,1-.55.54.54.54,0,0,1-.54-.54.55.55,0,0,1,.54-.55A.55.55,0,0,1,283.38,526.58Z"/><path class="bb1bb3ab-e5a4-4dfc-bdef-a2153ec72717" d="M276.25,507.86a.52.52,0,0,1-.52.52.52.52,0,1,1,0-1A.51.51,0,0,1,276.25,507.86Z"/><path class="bb1bb3ab-e5a4-4dfc-bdef-a2153ec72717" d="M280,520.6a.59.59,0,0,1-.59.58.58.58,0,0,1-.58-.58.59.59,0,0,1,.58-.59A.6.6,0,0,1,280,520.6Z"/><path class="bb1bb3ab-e5a4-4dfc-bdef-a2153ec72717" d="M247.27,531.19a.52.52,0,1,1-.52-.51A.52.52,0,0,1,247.27,531.19Z"/><path class="a6fa4b02-e23a-42f8-97ac-81de594e0237" d="M256.53,535a.84.84,0,0,1-1.68,0,.84.84,0,0,1,1.68,0Z"/><path class="fe03da53-6214-47b0-8876-84aa5e61067c" d="M213.78,472.38a.46.46,0,1,1-.8-.45.47.47,0,0,1,.63-.18A.46.46,0,0,1,213.78,472.38Z"/><path class="bb1bb3ab-e5a4-4dfc-bdef-a2153ec72717" d="M238.55,506.09a.51.51,0,1,1-.9-.5.52.52,0,0,1,.71-.2A.51.51,0,0,1,238.55,506.09Z"/><path class="fe03da53-6214-47b0-8876-84aa5e61067c" d="M289.17,430.3a.41.41,0,1,1,.41.4A.4.4,0,0,1,289.17,430.3Z"/><path class="fe03da53-6214-47b0-8876-84aa5e61067c" d="M264.67,436.49a.41.41,0,1,1,.41.41A.4.4,0,0,1,264.67,436.49Z"/><path class="bb1bb3ab-e5a4-4dfc-bdef-a2153ec72717" d="M280.87,431a.38.38,0,1,1,.38.39A.38.38,0,0,1,280.87,431Z"/><path class="bb1bb3ab-e5a4-4dfc-bdef-a2153ec72717" d="M289.5,459.91a.44.44,0,1,1,.44.43A.44.44,0,0,1,289.5,459.91Z"/><path class="bb1bb3ab-e5a4-4dfc-bdef-a2153ec72717" d="M246.33,464a.44.44,0,1,1,.43.43A.43.43,0,0,1,246.33,464Z"/><path class="bb1bb3ab-e5a4-4dfc-bdef-a2153ec72717" d="M256.58,439.65a.77.77,0,1,1,.77.77A.77.77,0,0,1,256.58,439.65Z"/><path class="bb1bb3ab-e5a4-4dfc-bdef-a2153ec72717" d="M9.79,432a.38.38,0,0,1,.76,0,.38.38,0,1,1-.76,0Z"/><path class="a18907d9-0f18-4c37-ba40-9d0b4f05ed71" d="M281.86,464a.8.8,0,1,1,.8.8A.8.8,0,0,1,281.86,464Z"/><path class="a6fa4b02-e23a-42f8-97ac-81de594e0237" d="M269.65,464.45a.72.72,0,1,1,.71.71A.71.71,0,0,1,269.65,464.45Z"/><path class="fe03da53-6214-47b0-8876-84aa5e61067c" d="M305.14,461.12a.41.41,0,0,1,0-.81.41.41,0,1,1,0,.81Z"/><path class="fe03da53-6214-47b0-8876-84aa5e61067c" d="M274.5,484a.41.41,0,0,1,0-.81.41.41,0,1,1,0,.81Z"/><path class="a18907d9-0f18-4c37-ba40-9d0b4f05ed71" d="M263.26,491.67a.71.71,0,1,1,.7-.71A.7.7,0,0,1,263.26,491.67Z"/><path class="bb1bb3ab-e5a4-4dfc-bdef-a2153ec72717" d="M309.91,472.29a.39.39,0,1,1,.38-.39A.38.38,0,0,1,309.91,472.29Z"/><path class="bb1bb3ab-e5a4-4dfc-bdef-a2153ec72717" d="M256.82,500.53a.39.39,0,0,1-.38-.39.38.38,0,0,1,.76,0A.39.39,0,0,1,256.82,500.53Z"/><path class="bb1bb3ab-e5a4-4dfc-bdef-a2153ec72717" d="M277.66,492.07a.77.77,0,1,1,.76-.76A.76.76,0,0,1,277.66,492.07Z"/><path class="bb1bb3ab-e5a4-4dfc-bdef-a2153ec72717" d="M146.48,441.78a.52.52,0,1,1-.52-.52A.51.51,0,0,1,146.48,441.78Z"/><path class="a6fa4b02-e23a-42f8-97ac-81de594e0237" d="M148.78,456a.84.84,0,1,1-.84-.84A.84.84,0,0,1,148.78,456Z"/><path class="a18907d9-0f18-4c37-ba40-9d0b4f05ed71" d="M133.49,425.58a.7.7,0,1,1,.7-.7A.7.7,0,0,1,133.49,425.58Z"/><path class="bb1bb3ab-e5a4-4dfc-bdef-a2153ec72717" d="M127.05,434.44a.39.39,0,1,1,.38-.39A.38.38,0,0,1,127.05,434.44Z"/><path class="bb1bb3ab-e5a4-4dfc-bdef-a2153ec72717" d="M147.89,426a.77.77,0,1,1,.76-.76A.76.76,0,0,1,147.89,426Z"/><path class="bb1bb3ab-e5a4-4dfc-bdef-a2153ec72717" d="M41.42,448.17a.52.52,0,1,1-.51-.52A.51.51,0,0,1,41.42,448.17Z"/><path class="a18907d9-0f18-4c37-ba40-9d0b4f05ed71" d="M28.43,432a.7.7,0,1,1,.7-.7A.7.7,0,0,1,28.43,432Z"/><path class="bb1bb3ab-e5a4-4dfc-bdef-a2153ec72717" d="M22,440.83a.39.39,0,0,1,0-.77.39.39,0,1,1,0,.77Z"/><circle class="bb1bb3ab-e5a4-4dfc-bdef-a2153ec72717" cx="42.83" cy="431.61" r="0.77"/><circle class="a6fa4b02-e23a-42f8-97ac-81de594e0237" cx="156.13" cy="447.8" r="0.84"/></g><path class="e76f1812-33ef-4e77-b118-c892202fa5d4" d="M150,309.38V831.57a15.78,15.78,0,0,0,15.78,15.78H322.52a2.26,2.26,0,0,1-.06,4.51h-8.89a2.94,2.94,0,0,0,0,5.88h32.61a2.58,2.58,0,1,1,0,5.15H329.62a4.39,4.39,0,1,0,0,8.77h5.17a5.28,5.28,0,0,1,0,10.55h-7a2.53,2.53,0,0,0-2.53,2.53h0a2.53,2.53,0,0,0,2.53,2.53h33.81a2.76,2.76,0,0,1,2.76,2.76h0a2.75,2.75,0,0,1-2.76,2.76H344.39a3.27,3.27,0,0,0,0,6.53h7.22a3.26,3.26,0,0,1,3.26,3.26v2.25a6.28,6.28,0,0,0,6.28,6.28h9.59a4.58,4.58,0,0,1,4.58,4.59,4.58,4.58,0,0,0,4.32,4.57l30.76,6.87V309.38Z"/></g></svg>