<svg id="e931fb5a-4ff6-437c-9921-7e209e7c7814" data-name="圖層 1" xmlns="http://www.w3.org/2000/svg" viewBox="0 0 33.1 33.1"><defs><style>.aa399c8c-5f9b-4133-b6bf-0f2ffc69724e{fill:#f5ac48;}.bd3d9d24-9341-4d43-9a65-3c56bba29e2e{fill:#fff;}</style></defs><title>1030-空間運用</title><circle class="aa399c8c-5f9b-4133-b6bf-0f2ffc69724e" cx="16.55" cy="16.55" r="16.55"/><path class="bd3d9d24-9341-4d43-9a65-3c56bba29e2e" d="M19.7,25.52H11.31a5,5,0,0,1-4.95-4.95V11.66a5,5,0,0,1,5-4.95H19.7a5,5,0,0,1,4.95,5v8.91A5,5,0,0,1,19.7,25.52Zm-8.39-17a3.15,3.15,0,0,0-3.14,3.14v8.91a3.14,3.14,0,0,0,3.14,3.13H19.7a3.13,3.13,0,0,0,3.13-3.13V11.66A3.14,3.14,0,0,0,19.7,8.52Z"/><path class="aa399c8c-5f9b-4133-b6bf-0f2ffc69724e" d="M26.47,8.11a2,2,0,0,0-2.9.22l-8,9.24-3.66-4.26A2,2,0,0,0,9,13.09a2,2,0,0,0-.71,1.4A2.05,2.05,0,0,0,8.81,16L14,22.07a2.07,2.07,0,0,0,1.56.71h0a2,2,0,0,0,1.55-.71L26.68,11a2,2,0,0,0,.5-1.49A2.08,2.08,0,0,0,26.47,8.11Z"/><path class="bd3d9d24-9341-4d43-9a65-3c56bba29e2e" d="M15.59,21.63h0a.9.9,0,0,1-.69-.31L9.68,15.24a.91.91,0,1,1,1.38-1.18l4.53,5.27L24.44,9.08A.91.91,0,0,1,25.72,9a.91.91,0,0,1,.09,1.28L16.28,21.32A.93.93,0,0,1,15.59,21.63Z"/></svg>